STARTFONT 2.1
FONT -druanae-armie-medium-r-normal--12----C--ISO10646-1
SIZE 4 72 72
FONTBOUNDINGBOX 6 12 0 -2
STARTPROPERTIES 17
DEFAULT_CHAR 65535
CHARSET_ENCODING "1"
CHARSET_REGISTRY "ISO10646"
SPACING "C"
FONT_ASCENT 10
FONT_DESCENT 2
X_HEIGHT 5
WEIGHT_NAME "Medium"
SLANT "R"
SETWIDTH_NAME "Normal"
PIXEL_SIZE 12
CAP_HEIGHT 7
COPYRIGHT "© 2018 Quinn M. Wilby <contact@loki.moe>"
COMMENT "A 6x12 Monospaced bitmap font featuring curved characters and legible symbols."
FONT "armie"
FOUNDRY "druanae"
AVERAGE_WIDTH 60
ENDPROPERTIES
CHARS 1527
STARTCHAR SPACE
ENCODING 32
SWIDTH 1500 0
DWIDTH 6 0
BBX 6 12 0 -2
BITMAP
00
00
00
00
00
00
00
00
00
00
00
00
ENDCHAR
STARTCHAR EXCLAMATION MARK
ENCODING 33
SWIDTH 1500 0
DWIDTH 6 0
BBX 6 12 0 -2
BITMAP
00
00
10
10
10
10
10
10
00
10
00
00
ENDCHAR
STARTCHAR QUOTATION MARK
ENCODING 34
SWIDTH 1500 0
DWIDTH 6 0
BBX 6 12 0 -2
BITMAP
00
00
28
28
28
00
00
00
00
00
00
00
ENDCHAR
STARTCHAR NUMBER SIGN
ENCODING 35
SWIDTH 1500 0
DWIDTH 6 0
BBX 6 12 0 -2
BITMAP
00
00
00
28
28
7C
28
7C
28
28
00
00
ENDCHAR
STARTCHAR DOLLAR SIGN
ENCODING 36
SWIDTH 1500 0
DWIDTH 6 0
BBX 6 12 0 -2
BITMAP
00
00
08
3C
48
50
38
14
24
78
20
00
ENDCHAR
STARTCHAR PERCENT SIGN
ENCODING 37
SWIDTH 1500 0
DWIDTH 6 0
BBX 6 12 0 -2
BITMAP
00
00
00
00
44
08
10
20
44
00
00
00
ENDCHAR
STARTCHAR AMPERSAND
ENCODING 38
SWIDTH 1500 0
DWIDTH 6 0
BBX 6 12 0 -2
BITMAP
00
00
00
10
28
28
30
54
48
34
00
00
ENDCHAR
STARTCHAR APOSTROPHE
ENCODING 39
SWIDTH 1500 0
DWIDTH 6 0
BBX 6 12 0 -2
BITMAP
00
00
10
10
10
00
00
00
00
00
00
00
ENDCHAR
STARTCHAR LEFT PARENTHESIS
ENCODING 40
SWIDTH 1500 0
DWIDTH 6 0
BBX 6 12 0 -2
BITMAP
00
00
08
10
20
20
20
20
20
10
08
00
ENDCHAR
STARTCHAR RIGHT PARENTHESIS
ENCODING 41
SWIDTH 1500 0
DWIDTH 6 0
BBX 6 12 0 -2
BITMAP
00
00
20
10
08
08
08
08
08
10
20
00
ENDCHAR
STARTCHAR ASTERISK
ENCODING 42
SWIDTH 1500 0
DWIDTH 6 0
BBX 6 12 0 -2
BITMAP
00
00
00
00
28
10
7C
10
28
00
00
00
ENDCHAR
STARTCHAR PLUS SIGN
ENCODING 43
SWIDTH 1500 0
DWIDTH 6 0
BBX 6 12 0 -2
BITMAP
00
00
00
00
10
10
7C
10
10
00
00
00
ENDCHAR
STARTCHAR COMMA
ENCODING 44
SWIDTH 1500 0
DWIDTH 6 0
BBX 6 12 0 -2
BITMAP
00
00
00
00
00
00
00
00
00
10
20
00
ENDCHAR
STARTCHAR HYPHEN-MINUS
ENCODING 45
SWIDTH 1500 0
DWIDTH 6 0
BBX 6 12 0 -2
BITMAP
00
00
00
00
00
00
7C
00
00
00
00
00
ENDCHAR
STARTCHAR FULL STOP
ENCODING 46
SWIDTH 1500 0
DWIDTH 6 0
BBX 6 12 0 -2
BITMAP
00
00
00
00
00
00
00
00
00
10
00
00
ENDCHAR
STARTCHAR SOLIDUS
ENCODING 47
SWIDTH 1500 0
DWIDTH 6 0
BBX 6 12 0 -2
BITMAP
00
00
00
08
08
10
10
20
20
40
40
00
ENDCHAR
STARTCHAR DIGIT ZERO
ENCODING 48
SWIDTH 1500 0
DWIDTH 6 0
BBX 6 12 0 -2
BITMAP
00
00
00
38
44
4C
54
64
44
38
00
00
ENDCHAR
STARTCHAR DIGIT ONE
ENCODING 49
SWIDTH 1500 0
DWIDTH 6 0
BBX 6 12 0 -2
BITMAP
00
00
00
08
18
28
08
08
08
08
00
00
ENDCHAR
STARTCHAR DIGIT TWO
ENCODING 50
SWIDTH 1500 0
DWIDTH 6 0
BBX 6 12 0 -2
BITMAP
00
00
00
38
44
04
08
10
20
7C
00
00
ENDCHAR
STARTCHAR DIGIT THREE
ENCODING 51
SWIDTH 1500 0
DWIDTH 6 0
BBX 6 12 0 -2
BITMAP
00
00
00
38
44
04
18
04
44
38
00
00
ENDCHAR
STARTCHAR DIGIT FOUR
ENCODING 52
SWIDTH 1500 0
DWIDTH 6 0
BBX 6 12 0 -2
BITMAP
00
00
00
04
0C
14
24
7C
04
04
00
00
ENDCHAR
STARTCHAR DIGIT FIVE
ENCODING 53
SWIDTH 1500 0
DWIDTH 6 0
BBX 6 12 0 -2
BITMAP
00
00
00
7C
40
78
04
04
04
78
00
00
ENDCHAR
STARTCHAR DIGIT SIX
ENCODING 54
SWIDTH 1500 0
DWIDTH 6 0
BBX 6 12 0 -2
BITMAP
00
00
00
38
40
78
44
44
44
38
00
00
ENDCHAR
STARTCHAR DIGIT SEVEN
ENCODING 55
SWIDTH 1500 0
DWIDTH 6 0
BBX 6 12 0 -2
BITMAP
00
00
00
7C
04
04
08
10
10
10
00
00
ENDCHAR
STARTCHAR DIGIT EIGHT
ENCODING 56
SWIDTH 1500 0
DWIDTH 6 0
BBX 6 12 0 -2
BITMAP
00
00
00
38
44
44
38
44
44
38
00
00
ENDCHAR
STARTCHAR DIGIT NINE
ENCODING 57
SWIDTH 1500 0
DWIDTH 6 0
BBX 6 12 0 -2
BITMAP
00
00
00
38
44
44
3C
04
04
38
00
00
ENDCHAR
STARTCHAR COLON
ENCODING 58
SWIDTH 1500 0
DWIDTH 6 0
BBX 6 12 0 -2
BITMAP
00
00
00
00
00
10
00
00
00
10
00
00
ENDCHAR
STARTCHAR SEMICOLON
ENCODING 59
SWIDTH 1500 0
DWIDTH 6 0
BBX 6 12 0 -2
BITMAP
00
00
00
00
00
10
00
00
00
10
20
00
ENDCHAR
STARTCHAR LESS-THAN SIGN
ENCODING 60
SWIDTH 1500 0
DWIDTH 6 0
BBX 6 12 0 -2
BITMAP
00
00
00
08
10
20
40
20
10
08
00
00
ENDCHAR
STARTCHAR EQUALS SIGN
ENCODING 61
SWIDTH 1500 0
DWIDTH 6 0
BBX 6 12 0 -2
BITMAP
00
00
00
00
00
7C
00
7C
00
00
00
00
ENDCHAR
STARTCHAR GREATER-THAN SIGN
ENCODING 62
SWIDTH 1500 0
DWIDTH 6 0
BBX 6 12 0 -2
BITMAP
00
00
00
20
10
08
04
08
10
20
00
00
ENDCHAR
STARTCHAR QUESTION MARK
ENCODING 63
SWIDTH 1500 0
DWIDTH 6 0
BBX 6 12 0 -2
BITMAP
00
00
00
38
44
04
08
10
00
10
00
00
ENDCHAR
STARTCHAR COMMERCIAL AT
ENCODING 64
SWIDTH 1500 0
DWIDTH 6 0
BBX 6 12 0 -2
BITMAP
00
00
00
78
84
84
BC
A4
B8
80
78
00
ENDCHAR
STARTCHAR LATIN CAPITAL LETTER A
ENCODING 65
SWIDTH 1500 0
DWIDTH 6 0
BBX 6 12 0 -2
BITMAP
00
00
00
38
44
44
44
7C
44
44
00
00
ENDCHAR
STARTCHAR LATIN CAPITAL LETTER B
ENCODING 66
SWIDTH 1500 0
DWIDTH 6 0
BBX 6 12 0 -2
BITMAP
00
00
00
78
44
44
78
44
44
78
00
00
ENDCHAR
STARTCHAR LATIN CAPITAL LETTER C
ENCODING 67
SWIDTH 1500 0
DWIDTH 6 0
BBX 6 12 0 -2
BITMAP
00
00
00
3C
40
40
40
40
40
3C
00
00
ENDCHAR
STARTCHAR LATIN CAPITAL LETTER D
ENCODING 68
SWIDTH 1500 0
DWIDTH 6 0
BBX 6 12 0 -2
BITMAP
00
00
00
78
44
44
44
44
44
78
00
00
ENDCHAR
STARTCHAR LATIN CAPITAL LETTER E
ENCODING 69
SWIDTH 1500 0
DWIDTH 6 0
BBX 6 12 0 -2
BITMAP
00
00
00
7C
40
40
70
40
40
7C
00
00
ENDCHAR
STARTCHAR LATIN CAPITAL LETTER F
ENCODING 70
SWIDTH 1500 0
DWIDTH 6 0
BBX 6 12 0 -2
BITMAP
00
00
00
7C
40
40
70
40
40
40
00
00
ENDCHAR
STARTCHAR LATIN CAPITAL LETTER G
ENCODING 71
SWIDTH 1500 0
DWIDTH 6 0
BBX 6 12 0 -2
BITMAP
00
00
00
3C
40
40
4C
44
44
3C
00
00
ENDCHAR
STARTCHAR LATIN CAPITAL LETTER H
ENCODING 72
SWIDTH 1500 0
DWIDTH 6 0
BBX 6 12 0 -2
BITMAP
00
00
00
44
44
44
7C
44
44
44
00
00
ENDCHAR
STARTCHAR LATIN CAPITAL LETTER I
ENCODING 73
SWIDTH 1500 0
DWIDTH 6 0
BBX 6 12 0 -2
BITMAP
00
00
00
38
10
10
10
10
10
38
00
00
ENDCHAR
STARTCHAR LATIN CAPITAL LETTER J
ENCODING 74
SWIDTH 1500 0
DWIDTH 6 0
BBX 6 12 0 -2
BITMAP
00
00
00
04
04
04
04
04
44
38
00
00
ENDCHAR
STARTCHAR LATIN CAPITAL LETTER K
ENCODING 75
SWIDTH 1500 0
DWIDTH 6 0
BBX 6 12 0 -2
BITMAP
00
00
00
44
48
50
60
50
48
44
00
00
ENDCHAR
STARTCHAR LATIN CAPITAL LETTER L
ENCODING 76
SWIDTH 1500 0
DWIDTH 6 0
BBX 6 12 0 -2
BITMAP
00
00
00
40
40
40
40
40
40
7C
00
00
ENDCHAR
STARTCHAR LATIN CAPITAL LETTER M
ENCODING 77
SWIDTH 1500 0
DWIDTH 6 0
BBX 6 12 0 -2
BITMAP
00
00
00
44
6C
54
44
44
44
44
00
00
ENDCHAR
STARTCHAR LATIN CAPITAL LETTER N
ENCODING 78
SWIDTH 1500 0
DWIDTH 6 0
BBX 6 12 0 -2
BITMAP
00
00
00
44
44
64
54
4C
44
44
00
00
ENDCHAR
STARTCHAR LATIN CAPITAL LETTER O
ENCODING 79
SWIDTH 1500 0
DWIDTH 6 0
BBX 6 12 0 -2
BITMAP
00
00
00
38
44
44
44
44
44
38
00
00
ENDCHAR
STARTCHAR LATIN CAPITAL LETTER P
ENCODING 80
SWIDTH 1500 0
DWIDTH 6 0
BBX 6 12 0 -2
BITMAP
00
00
00
78
44
44
44
78
40
40
00
00
ENDCHAR
STARTCHAR LATIN CAPITAL LETTER Q
ENCODING 81
SWIDTH 1500 0
DWIDTH 6 0
BBX 6 12 0 -2
BITMAP
00
00
00
38
44
44
44
44
48
34
00
00
ENDCHAR
STARTCHAR LATIN CAPITAL LETTER R
ENCODING 82
SWIDTH 1500 0
DWIDTH 6 0
BBX 6 12 0 -2
BITMAP
00
00
00
78
44
44
44
78
48
44
00
00
ENDCHAR
STARTCHAR LATIN CAPITAL LETTER S
ENCODING 83
SWIDTH 1500 0
DWIDTH 6 0
BBX 6 12 0 -2
BITMAP
00
00
00
3C
40
40
38
04
04
78
00
00
ENDCHAR
STARTCHAR LATIN CAPITAL LETTER T
ENCODING 84
SWIDTH 1500 0
DWIDTH 6 0
BBX 6 12 0 -2
BITMAP
00
00
00
7C
10
10
10
10
10
10
00
00
ENDCHAR
STARTCHAR LATIN CAPITAL LETTER U
ENCODING 85
SWIDTH 1500 0
DWIDTH 6 0
BBX 6 12 0 -2
BITMAP
00
00
00
44
44
44
44
44
44
38
00
00
ENDCHAR
STARTCHAR LATIN CAPITAL LETTER V
ENCODING 86
SWIDTH 1500 0
DWIDTH 6 0
BBX 6 12 0 -2
BITMAP
00
00
00
44
44
44
44
28
28
10
00
00
ENDCHAR
STARTCHAR LATIN CAPITAL LETTER W
ENCODING 87
SWIDTH 1500 0
DWIDTH 6 0
BBX 6 12 0 -2
BITMAP
00
00
00
44
44
44
44
54
6C
44
00
00
ENDCHAR
STARTCHAR LATIN CAPITAL LETTER X
ENCODING 88
SWIDTH 1500 0
DWIDTH 6 0
BBX 6 12 0 -2
BITMAP
00
00
00
44
44
28
10
28
44
44
00
00
ENDCHAR
STARTCHAR LATIN CAPITAL LETTER Y
ENCODING 89
SWIDTH 1500 0
DWIDTH 6 0
BBX 6 12 0 -2
BITMAP
00
00
00
44
44
28
10
10
10
10
00
00
ENDCHAR
STARTCHAR LATIN CAPITAL LETTER Z
ENCODING 90
SWIDTH 1500 0
DWIDTH 6 0
BBX 6 12 0 -2
BITMAP
00
00
00
7C
04
08
10
20
40
7C
00
00
ENDCHAR
STARTCHAR LEFT SQUARE BRACKET
ENCODING 91
SWIDTH 1500 0
DWIDTH 6 0
BBX 6 12 0 -2
BITMAP
00
00
00
18
10
10
10
10
10
10
18
00
ENDCHAR
STARTCHAR REVERSE SOLIDUS
ENCODING 92
SWIDTH 1500 0
DWIDTH 6 0
BBX 6 12 0 -2
BITMAP
00
00
00
40
40
20
20
10
10
08
08
00
ENDCHAR
STARTCHAR RIGHT SQUARE BRACKET
ENCODING 93
SWIDTH 1500 0
DWIDTH 6 0
BBX 6 12 0 -2
BITMAP
00
00
00
30
10
10
10
10
10
10
30
00
ENDCHAR
STARTCHAR CIRCUMFLEX ACCENT
ENCODING 94
SWIDTH 1500 0
DWIDTH 6 0
BBX 6 12 0 -2
BITMAP
00
00
10
28
44
00
00
00
00
00
00
00
ENDCHAR
STARTCHAR LOW LINE
ENCODING 95
SWIDTH 1500 0
DWIDTH 6 0
BBX 6 12 0 -2
BITMAP
00
00
00
00
00
00
00
00
00
00
7C
00
ENDCHAR
STARTCHAR GRAVE ACCENT
ENCODING 96
SWIDTH 1500 0
DWIDTH 6 0
BBX 6 12 0 -2
BITMAP
00
00
20
10
08
00
00
00
00
00
00
00
ENDCHAR
STARTCHAR LATIN SMALL LETTER A
ENCODING 97
SWIDTH 1500 0
DWIDTH 6 0
BBX 6 12 0 -2
BITMAP
00
00
00
00
00
3C
44
44
4C
34
00
00
ENDCHAR
STARTCHAR LATIN SMALL LETTER B
ENCODING 98
SWIDTH 1500 0
DWIDTH 6 0
BBX 6 12 0 -2
BITMAP
00
00
40
40
40
78
44
44
44
78
00
00
ENDCHAR
STARTCHAR LATIN SMALL LETTER C
ENCODING 99
SWIDTH 1500 0
DWIDTH 6 0
BBX 6 12 0 -2
BITMAP
00
00
00
00
00
3C
40
40
40
3C
00
00
ENDCHAR
STARTCHAR LATIN SMALL LETTER D
ENCODING 100
SWIDTH 1500 0
DWIDTH 6 0
BBX 6 12 0 -2
BITMAP
00
00
04
04
04
3C
44
44
44
3C
00
00
ENDCHAR
STARTCHAR LATIN SMALL LETTER E
ENCODING 101
SWIDTH 1500 0
DWIDTH 6 0
BBX 6 12 0 -2
BITMAP
00
00
00
00
00
38
44
7C
40
38
00
00
ENDCHAR
STARTCHAR LATIN SMALL LETTER F
ENCODING 102
SWIDTH 1500 0
DWIDTH 6 0
BBX 6 12 0 -2
BITMAP
00
00
18
20
20
70
20
20
20
20
00
00
ENDCHAR
STARTCHAR LATIN SMALL LETTER G
ENCODING 103
SWIDTH 1500 0
DWIDTH 6 0
BBX 6 12 0 -2
BITMAP
00
00
00
00
00
3C
44
44
44
3C
04
38
ENDCHAR
STARTCHAR LATIN SMALL LETTER H
ENCODING 104
SWIDTH 1500 0
DWIDTH 6 0
BBX 6 12 0 -2
BITMAP
00
00
40
40
40
58
64
44
44
44
00
00
ENDCHAR
STARTCHAR LATIN SMALL LETTER I
ENCODING 105
SWIDTH 1500 0
DWIDTH 6 0
BBX 6 12 0 -2
BITMAP
00
00
00
10
00
30
10
10
10
10
00
00
ENDCHAR
STARTCHAR LATIN SMALL LETTER J
ENCODING 106
SWIDTH 1500 0
DWIDTH 6 0
BBX 6 12 0 -2
BITMAP
00
00
00
10
00
30
10
10
10
10
10
20
ENDCHAR
STARTCHAR LATIN SMALL LETTER K
ENCODING 107
SWIDTH 1500 0
DWIDTH 6 0
BBX 6 12 0 -2
BITMAP
00
00
20
20
20
24
28
30
28
24
00
00
ENDCHAR
STARTCHAR LATIN SMALL LETTER L
ENCODING 108
SWIDTH 1500 0
DWIDTH 6 0
BBX 6 12 0 -2
BITMAP
00
00
30
10
10
10
10
10
10
0C
00
00
ENDCHAR
STARTCHAR LATIN SMALL LETTER M
ENCODING 109
SWIDTH 1500 0
DWIDTH 6 0
BBX 6 12 0 -2
BITMAP
00
00
00
00
00
78
54
54
54
44
00
00
ENDCHAR
STARTCHAR LATIN SMALL LETTER N
ENCODING 110
SWIDTH 1500 0
DWIDTH 6 0
BBX 6 12 0 -2
BITMAP
00
00
00
00
00
58
64
44
44
44
00
00
ENDCHAR
STARTCHAR LATIN SMALL LETTER O
ENCODING 111
SWIDTH 1500 0
DWIDTH 6 0
BBX 6 12 0 -2
BITMAP
00
00
00
00
00
38
44
44
44
38
00
00
ENDCHAR
STARTCHAR LATIN SMALL LETTER P
ENCODING 112
SWIDTH 1500 0
DWIDTH 6 0
BBX 6 12 0 -2
BITMAP
00
00
00
00
00
78
44
44
44
78
40
40
ENDCHAR
STARTCHAR LATIN SMALL LETTER Q
ENCODING 113
SWIDTH 1500 0
DWIDTH 6 0
BBX 6 12 0 -2
BITMAP
00
00
00
00
00
3C
44
44
44
3C
04
04
ENDCHAR
STARTCHAR LATIN SMALL LETTER R
ENCODING 114
SWIDTH 1500 0
DWIDTH 6 0
BBX 6 12 0 -2
BITMAP
00
00
00
00
00
5C
60
40
40
40
00
00
ENDCHAR
STARTCHAR LATIN SMALL LETTER S
ENCODING 115
SWIDTH 1500 0
DWIDTH 6 0
BBX 6 12 0 -2
BITMAP
00
00
00
00
00
38
40
30
08
70
00
00
ENDCHAR
STARTCHAR LATIN SMALL LETTER T
ENCODING 116
SWIDTH 1500 0
DWIDTH 6 0
BBX 6 12 0 -2
BITMAP
00
00
20
20
20
70
20
20
20
18
00
00
ENDCHAR
STARTCHAR LATIN SMALL LETTER U
ENCODING 117
SWIDTH 1500 0
DWIDTH 6 0
BBX 6 12 0 -2
BITMAP
00
00
00
00
00
44
44
44
4C
34
00
00
ENDCHAR
STARTCHAR LATIN SMALL LETTER V
ENCODING 118
SWIDTH 1500 0
DWIDTH 6 0
BBX 6 12 0 -2
BITMAP
00
00
00
00
00
44
44
28
28
10
00
00
ENDCHAR
STARTCHAR LATIN SMALL LETTER W
ENCODING 119
SWIDTH 1500 0
DWIDTH 6 0
BBX 6 12 0 -2
BITMAP
00
00
00
00
00
44
44
54
6C
44
00
00
ENDCHAR
STARTCHAR LATIN SMALL LETTER X
ENCODING 120
SWIDTH 1500 0
DWIDTH 6 0
BBX 6 12 0 -2
BITMAP
00
00
00
00
00
44
28
10
28
44
00
00
ENDCHAR
STARTCHAR LATIN SMALL LETTER Y
ENCODING 121
SWIDTH 1500 0
DWIDTH 6 0
BBX 6 12 0 -2
BITMAP
00
00
00
00
00
44
44
44
4C
34
04
38
ENDCHAR
STARTCHAR LATIN SMALL LETTER Z
ENCODING 122
SWIDTH 1500 0
DWIDTH 6 0
BBX 6 12 0 -2
BITMAP
00
00
00
00
00
7C
08
10
20
7C
00
00
ENDCHAR
STARTCHAR LEFT CURLY BRACKET
ENCODING 123
SWIDTH 1500 0
DWIDTH 6 0
BBX 6 12 0 -2
BITMAP
00
00
08
10
10
10
20
10
10
10
08
00
ENDCHAR
STARTCHAR VERTICAL LINE
ENCODING 124
SWIDTH 1500 0
DWIDTH 6 0
BBX 6 12 0 -2
BITMAP
00
00
10
10
10
10
10
10
10
10
10
00
ENDCHAR
STARTCHAR RIGHT CURLY BRACKET
ENCODING 125
SWIDTH 1500 0
DWIDTH 6 0
BBX 6 12 0 -2
BITMAP
00
00
20
10
10
10
08
10
10
10
20
00
ENDCHAR
STARTCHAR TILDE
ENCODING 126
SWIDTH 1500 0
DWIDTH 6 0
BBX 6 12 0 -2
BITMAP
00
00
00
00
00
00
64
98
00
00
00
00
ENDCHAR
STARTCHAR NO-BREAK SPACE
ENCODING 160
SWIDTH 1500 0
DWIDTH 6 0
BBX 6 12 0 -2
BITMAP
00
00
00
00
00
00
00
00
00
00
00
00
ENDCHAR
STARTCHAR INVERTED EXCLAMATION MARK
ENCODING 161
SWIDTH 1500 0
DWIDTH 6 0
BBX 6 12 0 -2
BITMAP
00
00
00
00
00
10
00
10
10
10
10
10
ENDCHAR
STARTCHAR CENT SIGN
ENCODING 162
SWIDTH 1500 0
DWIDTH 6 0
BBX 6 12 0 -2
BITMAP
00
00
00
00
08
3C
40
40
40
3C
10
00
ENDCHAR
STARTCHAR POUND SIGN
ENCODING 163
SWIDTH 1500 0
DWIDTH 6 0
BBX 6 12 0 -2
BITMAP
00
00
00
0C
10
10
38
10
10
3C
00
00
ENDCHAR
STARTCHAR CURRENCY SIGN
ENCODING 164
SWIDTH 1500 0
DWIDTH 6 0
BBX 6 12 0 -2
BITMAP
00
00
00
00
44
38
28
38
44
00
00
00
ENDCHAR
STARTCHAR YEN SIGN
ENCODING 165
SWIDTH 1500 0
DWIDTH 6 0
BBX 6 12 0 -2
BITMAP
00
00
00
44
44
28
10
38
10
10
00
00
ENDCHAR
STARTCHAR BROKEN BAR
ENCODING 166
SWIDTH 1500 0
DWIDTH 6 0
BBX 6 12 0 -2
BITMAP
00
10
10
10
10
00
00
10
10
10
10
00
ENDCHAR
STARTCHAR SECTION SIGN
ENCODING 167
SWIDTH 1500 0
DWIDTH 6 0
BBX 6 12 0 -2
BITMAP
00
3C
40
40
38
44
44
44
38
04
04
78
ENDCHAR
STARTCHAR DIAERESIS
ENCODING 168
SWIDTH 1500 0
DWIDTH 6 0
BBX 6 12 0 -2
BITMAP
00
28
00
00
00
00
00
00
00
00
00
00
ENDCHAR
STARTCHAR COPYRIGHT SIGN
ENCODING 169
SWIDTH 1500 0
DWIDTH 6 0
BBX 6 12 0 -2
BITMAP
00
00
00
38
44
5C
64
64
5C
44
38
00
ENDCHAR
STARTCHAR FEMININE ORDINAL INDICATOR
ENCODING 170
SWIDTH 1500 0
DWIDTH 6 0
BBX 6 12 0 -2
BITMAP
00
00
00
30
38
48
38
00
00
00
00
00
ENDCHAR
STARTCHAR LEFT-POINTING DOUBLE ANGLE QUOTATION MARK
ENCODING 171
SWIDTH 1500 0
DWIDTH 6 0
BBX 6 12 0 -2
BITMAP
00
00
00
00
24
48
90
48
24
00
00
00
ENDCHAR
STARTCHAR NOT SIGN
ENCODING 172
SWIDTH 1500 0
DWIDTH 6 0
BBX 6 12 0 -2
BITMAP
00
00
00
00
00
00
7C
04
00
00
00
00
ENDCHAR
STARTCHAR SOFT HYPHEN
ENCODING 173
SWIDTH 1500 0
DWIDTH 6 0
BBX 6 12 0 -2
BITMAP
00
00
00
00
00
00
38
00
00
00
00
00
ENDCHAR
STARTCHAR REGISTERED SIGN
ENCODING 174
SWIDTH 1500 0
DWIDTH 6 0
BBX 6 12 0 -2
BITMAP
38
44
74
6C
74
6C
44
38
00
00
00
00
ENDCHAR
STARTCHAR MACRON
ENCODING 175
SWIDTH 1500 0
DWIDTH 6 0
BBX 6 12 0 -2
BITMAP
00
00
7C
00
00
00
00
00
00
00
00
00
ENDCHAR
STARTCHAR DEGREE SIGN
ENCODING 176
SWIDTH 1500 0
DWIDTH 6 0
BBX 6 12 0 -2
BITMAP
00
00
00
10
28
10
00
00
00
00
00
00
ENDCHAR
STARTCHAR PLUS-MINUS SIGN
ENCODING 177
SWIDTH 1500 0
DWIDTH 6 0
BBX 6 12 0 -2
BITMAP
00
00
00
10
10
7C
10
10
00
7C
00
00
ENDCHAR
STARTCHAR SUPERSCRIPT TWO
ENCODING 178
SWIDTH 1500 0
DWIDTH 6 0
BBX 6 12 0 -2
BITMAP
00
30
48
08
10
20
78
00
00
00
00
00
ENDCHAR
STARTCHAR SUPERSCRIPT THREE
ENCODING 179
SWIDTH 1500 0
DWIDTH 6 0
BBX 6 12 0 -2
BITMAP
00
70
08
30
08
08
70
00
00
00
00
00
ENDCHAR
STARTCHAR ACUTE ACCENT
ENCODING 180
SWIDTH 1500 0
DWIDTH 6 0
BBX 6 12 0 -2
BITMAP
00
00
08
10
20
00
00
00
00
00
00
00
ENDCHAR
STARTCHAR MICRO SIGN
ENCODING 181
SWIDTH 1500 0
DWIDTH 6 0
BBX 6 12 0 -2
BITMAP
00
00
00
00
00
44
44
44
44
78
40
40
ENDCHAR
STARTCHAR PILCROW SIGN
ENCODING 182
SWIDTH 1500 0
DWIDTH 6 0
BBX 6 12 0 -2
BITMAP
00
00
3C
74
74
74
34
14
14
14
00
00
ENDCHAR
STARTCHAR MIDDLE DOT
ENCODING 183
SWIDTH 1500 0
DWIDTH 6 0
BBX 6 12 0 -2
BITMAP
00
00
00
00
00
00
10
00
00
00
00
00
ENDCHAR
STARTCHAR CEDILLA
ENCODING 184
SWIDTH 1500 0
DWIDTH 6 0
BBX 6 12 0 -2
BITMAP
00
00
00
00
00
00
00
00
00
00
10
20
ENDCHAR
STARTCHAR SUPERSCRIPT ONE
ENCODING 185
SWIDTH 1500 0
DWIDTH 6 0
BBX 6 12 0 -2
BITMAP
00
10
30
10
10
10
10
00
00
00
00
00
ENDCHAR
STARTCHAR MASCULINE ORDINAL INDICATOR
ENCODING 186
SWIDTH 1500 0
DWIDTH 6 0
BBX 6 12 0 -2
BITMAP
00
00
00
30
48
48
30
00
00
00
00
00
ENDCHAR
STARTCHAR RIGHT-POINTING DOUBLE ANGLE QUOTATION MARK
ENCODING 187
SWIDTH 1500 0
DWIDTH 6 0
BBX 6 12 0 -2
BITMAP
00
00
00
00
90
48
24
48
90
00
00
00
ENDCHAR
STARTCHAR VULGAR FRACTION ONE QUARTER
ENCODING 188
SWIDTH 1500 0
DWIDTH 6 0
BBX 6 12 0 -2
BITMAP
00
20
60
20
20
20
24
0C
14
3C
04
04
ENDCHAR
STARTCHAR VULGAR FRACTION ONE HALF
ENCODING 189
SWIDTH 1500 0
DWIDTH 6 0
BBX 6 12 0 -2
BITMAP
00
20
60
20
20
20
18
24
04
08
10
3C
ENDCHAR
STARTCHAR VULGAR FRACTION THREE QUARTERS
ENCODING 190
SWIDTH 1500 0
DWIDTH 6 0
BBX 6 12 0 -2
BITMAP
00
70
08
30
08
08
74
0C
14
3C
04
04
ENDCHAR
STARTCHAR INVERTED QUESTION MARK
ENCODING 191
SWIDTH 1500 0
DWIDTH 6 0
BBX 6 12 0 -2
BITMAP
00
00
00
00
00
10
00
10
20
40
44
38
ENDCHAR
STARTCHAR LATIN CAPITAL LETTER A WITH GRAVE
ENCODING 192
SWIDTH 1500 0
DWIDTH 6 0
BBX 6 12 0 -2
BITMAP
20
10
00
38
44
44
44
7C
44
44
00
00
ENDCHAR
STARTCHAR LATIN CAPITAL LETTER A WITH ACUTE
ENCODING 193
SWIDTH 1500 0
DWIDTH 6 0
BBX 6 12 0 -2
BITMAP
08
10
00
38
44
44
44
7C
44
44
00
00
ENDCHAR
STARTCHAR LATIN CAPITAL LETTER A WITH CIRCUMFLEX
ENCODING 194
SWIDTH 1500 0
DWIDTH 6 0
BBX 6 12 0 -2
BITMAP
10
28
00
38
44
44
44
7C
44
44
00
00
ENDCHAR
STARTCHAR LATIN CAPITAL LETTER A WITH TILDE
ENCODING 195
SWIDTH 1500 0
DWIDTH 6 0
BBX 6 12 0 -2
BITMAP
14
28
00
38
44
44
44
7C
44
44
00
00
ENDCHAR
STARTCHAR LATIN CAPITAL LETTER A WITH DIAERESIS
ENCODING 196
SWIDTH 1500 0
DWIDTH 6 0
BBX 6 12 0 -2
BITMAP
00
28
00
38
44
44
44
7C
44
44
00
00
ENDCHAR
STARTCHAR LATIN CAPITAL LETTER A WITH RING ABOVE
ENCODING 197
SWIDTH 1500 0
DWIDTH 6 0
BBX 6 12 0 -2
BITMAP
10
28
10
38
44
44
44
7C
44
44
00
00
ENDCHAR
STARTCHAR LATIN CAPITAL LETTER AE
ENCODING 198
SWIDTH 1500 0
DWIDTH 6 0
BBX 6 12 0 -2
BITMAP
00
00
00
3C
50
50
58
70
50
5C
00
00
ENDCHAR
STARTCHAR LATIN CAPITAL LETTER C WITH CEDILLA
ENCODING 199
SWIDTH 1500 0
DWIDTH 6 0
BBX 6 12 0 -2
BITMAP
00
00
00
3C
40
40
40
40
40
3C
08
18
ENDCHAR
STARTCHAR LATIN CAPITAL LETTER E WITH GRAVE
ENCODING 200
SWIDTH 1500 0
DWIDTH 6 0
BBX 6 12 0 -2
BITMAP
20
10
00
7C
40
40
70
40
40
7C
00
00
ENDCHAR
STARTCHAR LATIN CAPITAL LETTER E WITH ACUTE
ENCODING 201
SWIDTH 1500 0
DWIDTH 6 0
BBX 6 12 0 -2
BITMAP
08
10
00
7C
40
40
70
40
40
7C
00
00
ENDCHAR
STARTCHAR LATIN CAPITAL LETTER E WITH CIRCUMFLEX
ENCODING 202
SWIDTH 1500 0
DWIDTH 6 0
BBX 6 12 0 -2
BITMAP
10
28
00
7C
40
40
70
40
40
7C
00
00
ENDCHAR
STARTCHAR LATIN CAPITAL LETTER E WITH DIAERESIS
ENCODING 203
SWIDTH 1500 0
DWIDTH 6 0
BBX 6 12 0 -2
BITMAP
00
28
00
7C
40
40
70
40
40
7C
00
00
ENDCHAR
STARTCHAR LATIN CAPITAL LETTER I WITH GRAVE
ENCODING 204
SWIDTH 1500 0
DWIDTH 6 0
BBX 6 12 0 -2
BITMAP
20
10
00
38
10
10
10
10
10
38
00
00
ENDCHAR
STARTCHAR LATIN CAPITAL LETTER I WITH ACUTE
ENCODING 205
SWIDTH 1500 0
DWIDTH 6 0
BBX 6 12 0 -2
BITMAP
08
10
00
38
10
10
10
10
10
38
00
00
ENDCHAR
STARTCHAR LATIN CAPITAL LETTER I WITH CIRCUMFLEX
ENCODING 206
SWIDTH 1500 0
DWIDTH 6 0
BBX 6 12 0 -2
BITMAP
10
28
00
38
10
10
10
10
10
38
00
00
ENDCHAR
STARTCHAR LATIN CAPITAL LETTER I WITH DIAERESIS
ENCODING 207
SWIDTH 1500 0
DWIDTH 6 0
BBX 6 12 0 -2
BITMAP
00
28
00
38
10
10
10
10
10
38
00
00
ENDCHAR
STARTCHAR LATIN CAPITAL LETTER ETH
ENCODING 208
SWIDTH 1500 0
DWIDTH 6 0
BBX 6 12 0 -2
BITMAP
00
00
00
78
44
44
F4
44
44
78
00
00
ENDCHAR
STARTCHAR LATIN CAPITAL LETTER N WITH TILDE
ENCODING 209
SWIDTH 1500 0
DWIDTH 6 0
BBX 6 12 0 -2
BITMAP
14
28
00
44
44
64
54
4C
44
44
00
00
ENDCHAR
STARTCHAR LATIN CAPITAL LETTER O WITH GRAVE
ENCODING 210
SWIDTH 1500 0
DWIDTH 6 0
BBX 6 12 0 -2
BITMAP
20
10
00
38
44
44
44
44
44
38
00
00
ENDCHAR
STARTCHAR LATIN CAPITAL LETTER O WITH ACUTE
ENCODING 211
SWIDTH 1500 0
DWIDTH 6 0
BBX 6 12 0 -2
BITMAP
08
10
00
38
44
44
44
44
44
38
00
00
ENDCHAR
STARTCHAR LATIN CAPITAL LETTER O WITH CIRCUMFLEX
ENCODING 212
SWIDTH 1500 0
DWIDTH 6 0
BBX 6 12 0 -2
BITMAP
10
28
00
38
44
44
44
44
44
38
00
00
ENDCHAR
STARTCHAR LATIN CAPITAL LETTER O WITH TILDE
ENCODING 213
SWIDTH 1500 0
DWIDTH 6 0
BBX 6 12 0 -2
BITMAP
14
28
00
38
44
44
44
44
44
38
00
00
ENDCHAR
STARTCHAR LATIN CAPITAL LETTER O WITH DIAERESIS
ENCODING 214
SWIDTH 1500 0
DWIDTH 6 0
BBX 6 12 0 -2
BITMAP
00
28
00
38
44
44
44
44
44
38
00
00
ENDCHAR
STARTCHAR MULTIPLICATION SIGN
ENCODING 215
SWIDTH 1500 0
DWIDTH 6 0
BBX 6 12 0 -2
BITMAP
00
00
00
00
44
28
10
28
44
00
00
00
ENDCHAR
STARTCHAR LATIN CAPITAL LETTER O WITH STROKE
ENCODING 216
SWIDTH 1500 0
DWIDTH 6 0
BBX 6 12 0 -2
BITMAP
00
00
00
3C
4C
4C
54
64
64
78
00
00
ENDCHAR
STARTCHAR LATIN CAPITAL LETTER U WITH GRAVE
ENCODING 217
SWIDTH 1500 0
DWIDTH 6 0
BBX 6 12 0 -2
BITMAP
20
10
00
44
44
44
44
44
44
38
00
00
ENDCHAR
STARTCHAR LATIN CAPITAL LETTER U WITH ACUTE
ENCODING 218
SWIDTH 1500 0
DWIDTH 6 0
BBX 6 12 0 -2
BITMAP
08
10
00
44
44
44
44
44
44
38
00
00
ENDCHAR
STARTCHAR LATIN CAPITAL LETTER U WITH CIRCUMFLEX
ENCODING 219
SWIDTH 1500 0
DWIDTH 6 0
BBX 6 12 0 -2
BITMAP
10
28
00
44
44
44
44
44
44
38
00
00
ENDCHAR
STARTCHAR LATIN CAPITAL LETTER U WITH DIAERESIS
ENCODING 220
SWIDTH 1500 0
DWIDTH 6 0
BBX 6 12 0 -2
BITMAP
00
28
00
44
44
44
44
44
44
38
00
00
ENDCHAR
STARTCHAR LATIN CAPITAL LETTER Y WITH ACUTE
ENCODING 221
SWIDTH 1500 0
DWIDTH 6 0
BBX 6 12 0 -2
BITMAP
08
10
00
44
44
28
10
10
10
10
00
00
ENDCHAR
STARTCHAR LATIN CAPITAL LETTER THORN
ENCODING 222
SWIDTH 1500 0
DWIDTH 6 0
BBX 6 12 0 -2
BITMAP
00
00
00
40
78
44
44
44
78
40
00
00
ENDCHAR
STARTCHAR LATIN SMALL LETTER SHARP S
ENCODING 223
SWIDTH 1500 0
DWIDTH 6 0
BBX 6 12 0 -2
BITMAP
00
00
30
48
48
50
48
44
44
58
00
00
ENDCHAR
STARTCHAR LATIN SMALL LETTER A WITH GRAVE
ENCODING 224
SWIDTH 1500 0
DWIDTH 6 0
BBX 6 12 0 -2
BITMAP
00
00
20
10
00
00
3C
44
44
4C
34
00
ENDCHAR
STARTCHAR LATIN SMALL LETTER A WITH ACUTE
ENCODING 225
SWIDTH 1500 0
DWIDTH 6 0
BBX 6 12 0 -2
BITMAP
00
00
08
10
00
00
3C
44
44
4C
34
00
ENDCHAR
STARTCHAR LATIN SMALL LETTER A WITH CIRCUMFLEX
ENCODING 226
SWIDTH 1500 0
DWIDTH 6 0
BBX 6 12 0 -2
BITMAP
00
00
10
28
00
00
3C
44
44
4C
34
00
ENDCHAR
STARTCHAR LATIN SMALL LETTER A WITH TILDE
ENCODING 227
SWIDTH 1500 0
DWIDTH 6 0
BBX 6 12 0 -2
BITMAP
00
00
14
28
00
00
3C
44
44
4C
34
00
ENDCHAR
STARTCHAR LATIN SMALL LETTER A WITH DIAERESIS
ENCODING 228
SWIDTH 1500 0
DWIDTH 6 0
BBX 6 12 0 -2
BITMAP
00
00
00
28
00
00
3C
44
44
4C
34
00
ENDCHAR
STARTCHAR LATIN SMALL LETTER A WITH RING ABOVE
ENCODING 229
SWIDTH 1500 0
DWIDTH 6 0
BBX 6 12 0 -2
BITMAP
00
10
28
10
00
00
3C
44
44
4C
34
00
ENDCHAR
STARTCHAR LATIN SMALL LETTER AE
ENCODING 230
SWIDTH 1500 0
DWIDTH 6 0
BBX 6 12 0 -2
BITMAP
00
00
00
00
00
68
14
7C
90
6C
00
00
ENDCHAR
STARTCHAR LATIN SMALL LETTER C WITH CEDILLA
ENCODING 231
SWIDTH 1500 0
DWIDTH 6 0
BBX 6 12 0 -2
BITMAP
00
00
00
00
00
3C
40
40
40
3C
08
10
ENDCHAR
STARTCHAR LATIN SMALL LETTER E WITH GRAVE
ENCODING 232
SWIDTH 1500 0
DWIDTH 6 0
BBX 6 12 0 -2
BITMAP
00
00
20
10
00
38
44
7C
40
38
00
00
ENDCHAR
STARTCHAR LATIN SMALL LETTER E WITH ACUTE
ENCODING 233
SWIDTH 1500 0
DWIDTH 6 0
BBX 6 12 0 -2
BITMAP
00
00
08
10
00
38
44
7C
40
38
00
00
ENDCHAR
STARTCHAR LATIN SMALL LETTER E WITH CIRCUMFLEX
ENCODING 234
SWIDTH 1500 0
DWIDTH 6 0
BBX 6 12 0 -2
BITMAP
00
00
10
28
00
38
44
7C
40
38
00
00
ENDCHAR
STARTCHAR LATIN SMALL LETTER E WITH DIAERESIS
ENCODING 235
SWIDTH 1500 0
DWIDTH 6 0
BBX 6 12 0 -2
BITMAP
00
00
00
28
00
38
44
7C
40
38
00
00
ENDCHAR
STARTCHAR LATIN SMALL LETTER I WITH GRAVE
ENCODING 236
SWIDTH 1500 0
DWIDTH 6 0
BBX 6 12 0 -2
BITMAP
00
00
20
10
00
30
10
10
10
10
00
00
ENDCHAR
STARTCHAR LATIN SMALL LETTER I WITH ACUTE
ENCODING 237
SWIDTH 1500 0
DWIDTH 6 0
BBX 6 12 0 -2
BITMAP
00
00
08
10
00
30
10
10
10
10
00
00
ENDCHAR
STARTCHAR LATIN SMALL LETTER I WITH CIRCUMFLEX
ENCODING 238
SWIDTH 1500 0
DWIDTH 6 0
BBX 6 12 0 -2
BITMAP
00
00
10
28
00
30
10
10
10
10
00
00
ENDCHAR
STARTCHAR LATIN SMALL LETTER I WITH DIAERESIS
ENCODING 239
SWIDTH 1500 0
DWIDTH 6 0
BBX 6 12 0 -2
BITMAP
00
00
00
28
00
30
10
10
10
10
00
00
ENDCHAR
STARTCHAR LATIN SMALL LETTER ETH
ENCODING 240
SWIDTH 1500 0
DWIDTH 6 0
BBX 6 12 0 -2
BITMAP
00
28
10
28
04
3C
44
44
44
38
00
00
ENDCHAR
STARTCHAR LATIN SMALL LETTER N WITH TILDE
ENCODING 241
SWIDTH 1500 0
DWIDTH 6 0
BBX 6 12 0 -2
BITMAP
00
00
28
50
00
58
64
44
44
44
00
00
ENDCHAR
STARTCHAR LATIN SMALL LETTER O WITH GRAVE
ENCODING 242
SWIDTH 1500 0
DWIDTH 6 0
BBX 6 12 0 -2
BITMAP
00
00
20
10
00
38
44
44
44
38
00
00
ENDCHAR
STARTCHAR LATIN SMALL LETTER O WITH ACUTE
ENCODING 243
SWIDTH 1500 0
DWIDTH 6 0
BBX 6 12 0 -2
BITMAP
00
00
08
10
00
38
44
44
44
38
00
00
ENDCHAR
STARTCHAR LATIN SMALL LETTER O WITH CIRCUMFLEX
ENCODING 244
SWIDTH 1500 0
DWIDTH 6 0
BBX 6 12 0 -2
BITMAP
00
00
10
28
00
38
44
44
44
38
00
00
ENDCHAR
STARTCHAR LATIN SMALL LETTER O WITH TILDE
ENCODING 245
SWIDTH 1500 0
DWIDTH 6 0
BBX 6 12 0 -2
BITMAP
00
00
14
28
00
38
44
44
44
38
00
00
ENDCHAR
STARTCHAR LATIN SMALL LETTER O WITH DIAERESIS
ENCODING 246
SWIDTH 1500 0
DWIDTH 6 0
BBX 6 12 0 -2
BITMAP
00
00
00
28
00
38
44
44
44
38
00
00
ENDCHAR
STARTCHAR DIVISION SIGN
ENCODING 247
SWIDTH 1500 0
DWIDTH 6 0
BBX 6 12 0 -2
BITMAP
00
00
00
00
10
00
7C
00
10
00
00
00
ENDCHAR
STARTCHAR LATIN SMALL LETTER O WITH STROKE
ENCODING 248
SWIDTH 1500 0
DWIDTH 6 0
BBX 6 12 0 -2
BITMAP
00
00
00
00
00
3C
4C
54
64
78
00
00
ENDCHAR
STARTCHAR LATIN SMALL LETTER U WITH GRAVE
ENCODING 249
SWIDTH 1500 0
DWIDTH 6 0
BBX 6 12 0 -2
BITMAP
00
00
20
10
00
44
44
44
4C
34
00
00
ENDCHAR
STARTCHAR LATIN SMALL LETTER U WITH ACUTE
ENCODING 250
SWIDTH 1500 0
DWIDTH 6 0
BBX 6 12 0 -2
BITMAP
00
00
08
10
00
44
44
44
4C
34
00
00
ENDCHAR
STARTCHAR LATIN SMALL LETTER U WITH CIRCUMFLEX
ENCODING 251
SWIDTH 1500 0
DWIDTH 6 0
BBX 6 12 0 -2
BITMAP
00
00
10
28
00
44
44
44
4C
34
00
00
ENDCHAR
STARTCHAR LATIN SMALL LETTER U WITH DIAERESIS
ENCODING 252
SWIDTH 1500 0
DWIDTH 6 0
BBX 6 12 0 -2
BITMAP
00
00
00
28
00
44
44
44
4C
34
00
00
ENDCHAR
STARTCHAR LATIN SMALL LETTER Y WITH ACUTE
ENCODING 253
SWIDTH 1500 0
DWIDTH 6 0
BBX 6 12 0 -2
BITMAP
00
00
08
10
00
44
44
44
4C
34
04
18
ENDCHAR
STARTCHAR LATIN SMALL LETTER THORN
ENCODING 254
SWIDTH 1500 0
DWIDTH 6 0
BBX 6 12 0 -2
BITMAP
00
00
00
40
40
78
44
44
44
78
40
40
ENDCHAR
STARTCHAR LATIN SMALL LETTER Y WITH DIAERESIS
ENCODING 255
SWIDTH 1500 0
DWIDTH 6 0
BBX 6 12 0 -2
BITMAP
00
00
00
28
00
44
44
44
4C
34
04
18
ENDCHAR
STARTCHAR LATIN CAPITAL LETTER A WITH MACRON
ENCODING 256
SWIDTH 1500 0
DWIDTH 6 0
BBX 6 12 0 -2
BITMAP
00
38
00
38
44
44
44
7C
44
44
00
00
ENDCHAR
STARTCHAR LATIN SMALL LETTER A WITH MACRON
ENCODING 257
SWIDTH 1500 0
DWIDTH 6 0
BBX 6 12 0 -2
BITMAP
00
00
00
38
00
00
3C
44
44
4C
34
00
ENDCHAR
STARTCHAR LATIN CAPITAL LETTER A WITH BREVE
ENCODING 258
SWIDTH 1500 0
DWIDTH 6 0
BBX 6 12 0 -2
BITMAP
44
38
00
38
44
44
44
7C
44
44
00
00
ENDCHAR
STARTCHAR LATIN SMALL LETTER A WITH BREVE
ENCODING 259
SWIDTH 1500 0
DWIDTH 6 0
BBX 6 12 0 -2
BITMAP
00
00
24
18
00
00
3C
44
44
4C
34
00
ENDCHAR
STARTCHAR LATIN CAPITAL LETTER A WITH OGONEK
ENCODING 260
SWIDTH 1500 0
DWIDTH 6 0
BBX 6 12 0 -2
BITMAP
00
00
00
38
44
44
44
7C
44
44
08
04
ENDCHAR
STARTCHAR LATIN SMALL LETTER A WITH OGONEK
ENCODING 261
SWIDTH 1500 0
DWIDTH 6 0
BBX 6 12 0 -2
BITMAP
00
00
00
00
00
00
3C
44
44
4C
34
08
ENDCHAR
STARTCHAR LATIN CAPITAL LETTER C WITH ACUTE
ENCODING 262
SWIDTH 1500 0
DWIDTH 6 0
BBX 6 12 0 -2
BITMAP
08
10
00
3C
40
40
40
40
40
3C
00
00
ENDCHAR
STARTCHAR LATIN SMALL LETTER C WITH ACUTE
ENCODING 263
SWIDTH 1500 0
DWIDTH 6 0
BBX 6 12 0 -2
BITMAP
00
00
08
10
00
3C
40
40
40
3C
00
00
ENDCHAR
STARTCHAR LATIN CAPITAL LETTER C WITH CIRCUMFLEX
ENCODING 264
SWIDTH 1500 0
DWIDTH 6 0
BBX 6 12 0 -2
BITMAP
10
28
00
3C
40
40
40
40
40
3C
00
00
ENDCHAR
STARTCHAR LATIN SMALL LETTER C WITH CIRCUMFLEX
ENCODING 265
SWIDTH 1500 0
DWIDTH 6 0
BBX 6 12 0 -2
BITMAP
00
00
10
28
00
3C
40
40
40
3C
00
00
ENDCHAR
STARTCHAR LATIN CAPITAL LETTER C WITH DOT ABOVE
ENCODING 266
SWIDTH 1500 0
DWIDTH 6 0
BBX 6 12 0 -2
BITMAP
00
10
00
3C
40
40
40
40
40
3C
00
00
ENDCHAR
STARTCHAR LATIN SMALL LETTER C WITH DOT ABOVE
ENCODING 267
SWIDTH 1500 0
DWIDTH 6 0
BBX 6 12 0 -2
BITMAP
00
00
00
10
00
3C
40
40
40
3C
00
00
ENDCHAR
STARTCHAR LATIN CAPITAL LETTER C WITH CARON
ENCODING 268
SWIDTH 1500 0
DWIDTH 6 0
BBX 6 12 0 -2
BITMAP
28
10
00
3C
40
40
40
40
40
3C
00
00
ENDCHAR
STARTCHAR LATIN SMALL LETTER C WITH CARON
ENCODING 269
SWIDTH 1500 0
DWIDTH 6 0
BBX 6 12 0 -2
BITMAP
00
00
28
10
00
3C
40
40
40
3C
00
00
ENDCHAR
STARTCHAR LATIN CAPITAL LETTER D WITH CARON
ENCODING 270
SWIDTH 1500 0
DWIDTH 6 0
BBX 6 12 0 -2
BITMAP
28
10
00
78
44
44
44
44
44
78
00
00
ENDCHAR
STARTCHAR LATIN SMALL LETTER D WITH CARON
ENCODING 271
SWIDTH 1500 0
DWIDTH 6 0
BBX 6 12 0 -2
BITMAP
04
08
00
04
04
3C
44
44
44
3C
00
00
ENDCHAR
STARTCHAR LATIN CAPITAL LETTER D WITH STROKE
ENCODING 272
SWIDTH 1500 0
DWIDTH 6 0
BBX 6 12 0 -2
BITMAP
00
00
00
78
44
44
F4
44
44
78
00
00
ENDCHAR
STARTCHAR LATIN SMALL LETTER D WITH STROKE
ENCODING 273
SWIDTH 1500 0
DWIDTH 6 0
BBX 6 12 0 -2
BITMAP
00
00
04
1C
04
3C
44
44
44
3C
00
00
ENDCHAR
STARTCHAR LATIN CAPITAL LETTER E WITH MACRON
ENCODING 274
SWIDTH 1500 0
DWIDTH 6 0
BBX 6 12 0 -2
BITMAP
00
38
00
7C
40
40
70
40
40
7C
00
00
ENDCHAR
STARTCHAR LATIN SMALL LETTER E WITH MACRON
ENCODING 275
SWIDTH 1500 0
DWIDTH 6 0
BBX 6 12 0 -2
BITMAP
00
00
00
38
00
38
44
7C
40
38
00
00
ENDCHAR
STARTCHAR LATIN CAPITAL LETTER E WITH BREVE
ENCODING 276
SWIDTH 1500 0
DWIDTH 6 0
BBX 6 12 0 -2
BITMAP
44
38
00
7C
40
40
70
40
40
7C
00
00
ENDCHAR
STARTCHAR LATIN SMALL LETTER E WITH BREVE
ENCODING 277
SWIDTH 1500 0
DWIDTH 6 0
BBX 6 12 0 -2
BITMAP
00
00
44
38
00
38
44
7C
40
38
00
00
ENDCHAR
STARTCHAR LATIN CAPITAL LETTER E WITH DOT ABOVE
ENCODING 278
SWIDTH 1500 0
DWIDTH 6 0
BBX 6 12 0 -2
BITMAP
00
10
00
7C
40
40
70
40
40
7C
00
00
ENDCHAR
STARTCHAR LATIN SMALL LETTER E WITH DOT ABOVE
ENCODING 279
SWIDTH 1500 0
DWIDTH 6 0
BBX 6 12 0 -2
BITMAP
00
00
00
10
00
38
44
7C
40
38
00
00
ENDCHAR
STARTCHAR LATIN CAPITAL LETTER E WITH OGONEK
ENCODING 280
SWIDTH 1500 0
DWIDTH 6 0
BBX 6 12 0 -2
BITMAP
00
00
00
7C
40
40
70
40
40
7C
08
04
ENDCHAR
STARTCHAR LATIN SMALL LETTER E WITH OGONEK
ENCODING 281
SWIDTH 1500 0
DWIDTH 6 0
BBX 6 12 0 -2
BITMAP
00
00
00
00
00
38
44
7C
40
38
08
04
ENDCHAR
STARTCHAR LATIN CAPITAL LETTER E WITH CARON
ENCODING 282
SWIDTH 1500 0
DWIDTH 6 0
BBX 6 12 0 -2
BITMAP
28
10
00
7C
40
40
70
40
40
7C
00
00
ENDCHAR
STARTCHAR LATIN SMALL LETTER E WITH CARON
ENCODING 283
SWIDTH 1500 0
DWIDTH 6 0
BBX 6 12 0 -2
BITMAP
00
00
28
10
00
38
44
7C
40
38
00
00
ENDCHAR
STARTCHAR LATIN CAPITAL LETTER G WITH CIRCUMFLEX
ENCODING 284
SWIDTH 1500 0
DWIDTH 6 0
BBX 6 12 0 -2
BITMAP
10
28
00
3C
40
40
4C
44
44
3C
00
00
ENDCHAR
STARTCHAR LATIN SMALL LETTER G WITH CIRCUMFLEX
ENCODING 285
SWIDTH 1500 0
DWIDTH 6 0
BBX 6 12 0 -2
BITMAP
00
00
10
28
00
3C
44
44
44
3C
04
18
ENDCHAR
STARTCHAR LATIN CAPITAL LETTER G WITH BREVE
ENCODING 286
SWIDTH 1500 0
DWIDTH 6 0
BBX 6 12 0 -2
BITMAP
24
18
00
3C
40
40
4C
44
44
3C
00
00
ENDCHAR
STARTCHAR LATIN SMALL LETTER G WITH BREVE
ENCODING 287
SWIDTH 1500 0
DWIDTH 6 0
BBX 6 12 0 -2
BITMAP
00
00
24
18
00
3C
44
44
44
3C
04
18
ENDCHAR
STARTCHAR LATIN CAPITAL LETTER G WITH DOT ABOVE
ENCODING 288
SWIDTH 1500 0
DWIDTH 6 0
BBX 6 12 0 -2
BITMAP
00
10
00
3C
40
40
4C
44
44
3C
00
00
ENDCHAR
STARTCHAR LATIN SMALL LETTER G WITH DOT ABOVE
ENCODING 289
SWIDTH 1500 0
DWIDTH 6 0
BBX 6 12 0 -2
BITMAP
00
00
00
10
00
3C
44
44
44
3C
04
18
ENDCHAR
STARTCHAR LATIN CAPITAL LETTER G WITH CEDILLA
ENCODING 290
SWIDTH 1500 0
DWIDTH 6 0
BBX 6 12 0 -2
BITMAP
00
00
00
3C
40
40
4C
44
44
3C
08
10
ENDCHAR
STARTCHAR LATIN SMALL LETTER G WITH CEDILLA
ENCODING 291
SWIDTH 1500 0
DWIDTH 6 0
BBX 6 12 0 -2
BITMAP
00
00
08
10
00
3C
44
44
44
3C
04
18
ENDCHAR
STARTCHAR LATIN CAPITAL LETTER H WITH CIRCUMFLEX
ENCODING 292
SWIDTH 1500 0
DWIDTH 6 0
BBX 6 12 0 -2
BITMAP
10
28
00
44
44
44
7C
44
44
44
00
00
ENDCHAR
STARTCHAR LATIN SMALL LETTER H WITH CIRCUMFLEX
ENCODING 293
SWIDTH 1500 0
DWIDTH 6 0
BBX 6 12 0 -2
BITMAP
10
28
40
40
40
58
64
44
44
44
00
00
ENDCHAR
STARTCHAR LATIN CAPITAL LETTER H WITH STROKE
ENCODING 294
SWIDTH 1500 0
DWIDTH 6 0
BBX 6 12 0 -2
BITMAP
00
00
00
44
7C
44
7C
44
44
44
00
00
ENDCHAR
STARTCHAR LATIN SMALL LETTER H WITH STROKE
ENCODING 295
SWIDTH 1500 0
DWIDTH 6 0
BBX 6 12 0 -2
BITMAP
00
00
40
70
40
58
64
44
44
44
00
00
ENDCHAR
STARTCHAR LATIN CAPITAL LETTER I WITH TILDE
ENCODING 296
SWIDTH 1500 0
DWIDTH 6 0
BBX 6 12 0 -2
BITMAP
14
28
00
38
10
10
10
10
10
38
00
00
ENDCHAR
STARTCHAR LATIN SMALL LETTER I WITH TILDE
ENCODING 297
SWIDTH 1500 0
DWIDTH 6 0
BBX 6 12 0 -2
BITMAP
00
00
28
50
00
30
10
10
10
10
00
00
ENDCHAR
STARTCHAR LATIN CAPITAL LETTER I WITH MACRON
ENCODING 298
SWIDTH 1500 0
DWIDTH 6 0
BBX 6 12 0 -2
BITMAP
00
38
00
38
10
10
10
10
10
38
00
00
ENDCHAR
STARTCHAR LATIN SMALL LETTER I WITH MACRON
ENCODING 299
SWIDTH 1500 0
DWIDTH 6 0
BBX 6 12 0 -2
BITMAP
00
00
00
30
00
30
10
10
10
10
00
00
ENDCHAR
STARTCHAR LATIN CAPITAL LETTER I WITH BREVE
ENCODING 300
SWIDTH 1500 0
DWIDTH 6 0
BBX 6 12 0 -2
BITMAP
44
38
00
38
10
10
10
10
10
38
00
00
ENDCHAR
STARTCHAR LATIN SMALL LETTER I WITH BREVE
ENCODING 301
SWIDTH 1500 0
DWIDTH 6 0
BBX 6 12 0 -2
BITMAP
00
00
48
30
00
30
10
10
10
10
00
00
ENDCHAR
STARTCHAR LATIN CAPITAL LETTER I WITH OGONEK
ENCODING 302
SWIDTH 1500 0
DWIDTH 6 0
BBX 6 12 0 -2
BITMAP
00
00
00
38
10
10
10
10
10
38
10
08
ENDCHAR
STARTCHAR LATIN SMALL LETTER I WITH OGONEK
ENCODING 303
SWIDTH 1500 0
DWIDTH 6 0
BBX 6 12 0 -2
BITMAP
00
00
00
10
00
30
10
10
10
10
10
08
ENDCHAR
STARTCHAR LATIN CAPITAL LETTER I WITH DOT ABOVE
ENCODING 304
SWIDTH 1500 0
DWIDTH 6 0
BBX 6 12 0 -2
BITMAP
00
10
00
38
10
10
10
10
10
38
00
00
ENDCHAR
STARTCHAR LATIN SMALL LETTER DOTLESS I
ENCODING 305
SWIDTH 1500 0
DWIDTH 6 0
BBX 6 12 0 -2
BITMAP
00
00
00
00
00
30
10
10
10
10
00
00
ENDCHAR
STARTCHAR LATIN CAPITAL LIGATURE IJ
ENCODING 306
SWIDTH 1500 0
DWIDTH 6 0
BBX 6 12 0 -2
BITMAP
00
00
00
74
24
24
24
24
24
78
00
00
ENDCHAR
STARTCHAR LATIN SMALL LIGATURE IJ
ENCODING 307
SWIDTH 1500 0
DWIDTH 6 0
BBX 6 12 0 -2
BITMAP
00
00
00
24
00
6C
24
24
24
24
04
08
ENDCHAR
STARTCHAR LATIN CAPITAL LETTER J WITH CIRCUMFLEX
ENCODING 308
SWIDTH 1500 0
DWIDTH 6 0
BBX 6 12 0 -2
BITMAP
08
14
00
04
04
04
04
04
44
38
00
00
ENDCHAR
STARTCHAR LATIN SMALL LETTER J WITH CIRCUMFLEX
ENCODING 309
SWIDTH 1500 0
DWIDTH 6 0
BBX 6 12 0 -2
BITMAP
00
00
10
28
00
30
10
10
10
10
10
20
ENDCHAR
STARTCHAR LATIN CAPITAL LETTER K WITH CEDILLA
ENCODING 310
SWIDTH 1500 0
DWIDTH 6 0
BBX 6 12 0 -2
BITMAP
00
00
00
44
48
50
60
50
48
44
10
20
ENDCHAR
STARTCHAR LATIN SMALL LETTER K WITH CEDILLA
ENCODING 311
SWIDTH 1500 0
DWIDTH 6 0
BBX 6 12 0 -2
BITMAP
00
00
20
20
20
24
28
30
28
24
08
10
ENDCHAR
STARTCHAR LATIN SMALL LETTER KRA
ENCODING 312
SWIDTH 1500 0
DWIDTH 6 0
BBX 6 12 0 -2
BITMAP
00
00
00
00
00
24
28
30
28
24
00
00
ENDCHAR
STARTCHAR LATIN CAPITAL LETTER L WITH ACUTE
ENCODING 313
SWIDTH 1500 0
DWIDTH 6 0
BBX 6 12 0 -2
BITMAP
20
40
00
40
40
40
40
40
40
7C
00
00
ENDCHAR
STARTCHAR LATIN SMALL LETTER L WITH ACUTE
ENCODING 314
SWIDTH 1500 0
DWIDTH 6 0
BBX 6 12 0 -2
BITMAP
10
20
00
20
20
20
20
20
20
18
00
00
ENDCHAR
STARTCHAR LATIN CAPITAL LETTER L WITH CEDILLA
ENCODING 315
SWIDTH 1500 0
DWIDTH 6 0
BBX 6 12 0 -2
BITMAP
00
00
00
40
40
40
40
40
40
7C
10
20
ENDCHAR
STARTCHAR LATIN SMALL LETTER L WITH CEDILLA
ENCODING 316
SWIDTH 1500 0
DWIDTH 6 0
BBX 6 12 0 -2
BITMAP
00
00
30
10
10
10
10
10
10
0C
10
20
ENDCHAR
STARTCHAR LATIN CAPITAL LETTER L WITH CARON
ENCODING 317
SWIDTH 1500 0
DWIDTH 6 0
BBX 6 12 0 -2
BITMAP
00
00
00
48
50
40
40
40
40
7C
00
00
ENDCHAR
STARTCHAR LATIN SMALL LETTER L WITH CARON
ENCODING 318
SWIDTH 1500 0
DWIDTH 6 0
BBX 6 12 0 -2
BITMAP
00
00
24
28
20
20
20
20
20
18
00
00
ENDCHAR
STARTCHAR LATIN CAPITAL LETTER L WITH MIDDLE DOT
ENCODING 319
SWIDTH 1500 0
DWIDTH 6 0
BBX 6 12 0 -2
BITMAP
00
00
00
40
40
48
40
40
40
7C
00
00
ENDCHAR
STARTCHAR LATIN SMALL LETTER L WITH MIDDLE DOT
ENCODING 320
SWIDTH 1500 0
DWIDTH 6 0
BBX 6 12 0 -2
BITMAP
00
00
20
20
28
20
20
20
20
18
00
00
ENDCHAR
STARTCHAR LATIN CAPITAL LETTER L WITH STROKE
ENCODING 321
SWIDTH 1500 0
DWIDTH 6 0
BBX 6 12 0 -2
BITMAP
00
00
00
40
50
60
40
C0
40
7C
00
00
ENDCHAR
STARTCHAR LATIN SMALL LETTER L WITH STROKE
ENCODING 322
SWIDTH 1500 0
DWIDTH 6 0
BBX 6 12 0 -2
BITMAP
00
00
20
20
20
30
60
20
20
18
00
00
ENDCHAR
STARTCHAR LATIN CAPITAL LETTER N WITH ACUTE
ENCODING 323
SWIDTH 1500 0
DWIDTH 6 0
BBX 6 12 0 -2
BITMAP
08
10
00
44
44
64
54
4C
44
44
00
00
ENDCHAR
STARTCHAR LATIN SMALL LETTER N WITH ACUTE
ENCODING 324
SWIDTH 1500 0
DWIDTH 6 0
BBX 6 12 0 -2
BITMAP
00
00
08
10
00
58
64
44
44
44
00
00
ENDCHAR
STARTCHAR LATIN CAPITAL LETTER N WITH CEDILLA
ENCODING 325
SWIDTH 1500 0
DWIDTH 6 0
BBX 6 12 0 -2
BITMAP
00
00
00
44
44
64
54
4C
44
44
10
20
ENDCHAR
STARTCHAR LATIN SMALL LETTER N WITH CEDILLA
ENCODING 326
SWIDTH 1500 0
DWIDTH 6 0
BBX 6 12 0 -2
BITMAP
00
00
00
00
00
58
64
44
44
44
10
20
ENDCHAR
STARTCHAR LATIN CAPITAL LETTER N WITH CARON
ENCODING 327
SWIDTH 1500 0
DWIDTH 6 0
BBX 6 12 0 -2
BITMAP
28
10
00
44
44
64
54
4C
44
44
00
00
ENDCHAR
STARTCHAR LATIN SMALL LETTER N WITH CARON
ENCODING 328
SWIDTH 1500 0
DWIDTH 6 0
BBX 6 12 0 -2
BITMAP
00
00
28
10
00
58
64
44
44
44
00
00
ENDCHAR
STARTCHAR LATIN SMALL LETTER N PRECEDED BY APOSTROPHE
ENCODING 329
SWIDTH 1500 0
DWIDTH 6 0
BBX 6 12 0 -2
BITMAP
00
00
00
40
80
58
64
44
44
44
00
00
ENDCHAR
STARTCHAR LATIN CAPITAL LETTER ENG
ENCODING 330
SWIDTH 1500 0
DWIDTH 6 0
BBX 6 12 0 -2
BITMAP
00
00
00
44
44
64
54
4C
44
44
04
08
ENDCHAR
STARTCHAR LATIN SMALL LETTER ENG
ENCODING 331
SWIDTH 1500 0
DWIDTH 6 0
BBX 6 12 0 -2
BITMAP
00
00
00
00
00
58
64
44
44
44
04
08
ENDCHAR
STARTCHAR LATIN CAPITAL LETTER O WITH MACRON
ENCODING 332
SWIDTH 1500 0
DWIDTH 6 0
BBX 6 12 0 -2
BITMAP
00
38
00
38
44
44
44
44
44
38
00
00
ENDCHAR
STARTCHAR LATIN SMALL LETTER O WITH MACRON
ENCODING 333
SWIDTH 1500 0
DWIDTH 6 0
BBX 6 12 0 -2
BITMAP
00
00
00
38
00
38
44
44
44
38
00
00
ENDCHAR
STARTCHAR LATIN CAPITAL LETTER O WITH BREVE
ENCODING 334
SWIDTH 1500 0
DWIDTH 6 0
BBX 6 12 0 -2
BITMAP
44
38
00
38
44
44
44
44
44
38
00
00
ENDCHAR
STARTCHAR LATIN SMALL LETTER O WITH BREVE
ENCODING 335
SWIDTH 1500 0
DWIDTH 6 0
BBX 6 12 0 -2
BITMAP
00
00
44
38
00
38
44
44
44
38
00
00
ENDCHAR
STARTCHAR LATIN CAPITAL LETTER O WITH DOUBLE ACUTE
ENCODING 336
SWIDTH 1500 0
DWIDTH 6 0
BBX 6 12 0 -2
BITMAP
24
48
00
38
44
44
44
44
44
38
00
00
ENDCHAR
STARTCHAR LATIN SMALL LETTER O WITH DOUBLE ACUTE
ENCODING 337
SWIDTH 1500 0
DWIDTH 6 0
BBX 6 12 0 -2
BITMAP
00
00
24
48
00
38
44
44
44
38
00
00
ENDCHAR
STARTCHAR LATIN CAPITAL LIGATURE OE
ENCODING 338
SWIDTH 1500 0
DWIDTH 6 0
BBX 6 12 0 -2
BITMAP
00
00
00
3C
50
50
58
50
50
3C
00
00
ENDCHAR
STARTCHAR LATIN SMALL LIGATURE OE
ENCODING 339
SWIDTH 1500 0
DWIDTH 6 0
BBX 6 12 0 -2
BITMAP
00
00
00
00
00
28
54
5C
50
28
00
00
ENDCHAR
STARTCHAR LATIN CAPITAL LETTER R WITH ACUTE
ENCODING 340
SWIDTH 1500 0
DWIDTH 6 0
BBX 6 12 0 -2
BITMAP
08
10
00
78
44
44
44
78
48
44
00
00
ENDCHAR
STARTCHAR LATIN SMALL LETTER R WITH ACUTE
ENCODING 341
SWIDTH 1500 0
DWIDTH 6 0
BBX 6 12 0 -2
BITMAP
00
00
08
10
00
5C
60
40
40
40
00
00
ENDCHAR
STARTCHAR LATIN CAPITAL LETTER R WITH CEDILLA
ENCODING 342
SWIDTH 1500 0
DWIDTH 6 0
BBX 6 12 0 -2
BITMAP
00
00
00
78
44
44
44
78
48
44
10
20
ENDCHAR
STARTCHAR LATIN SMALL LETTER R WITH CEDILLA
ENCODING 343
SWIDTH 1500 0
DWIDTH 6 0
BBX 6 12 0 -2
BITMAP
00
00
00
00
00
5C
60
40
40
40
20
40
ENDCHAR
STARTCHAR LATIN CAPITAL LETTER R WITH CARON
ENCODING 344
SWIDTH 1500 0
DWIDTH 6 0
BBX 6 12 0 -2
BITMAP
28
10
00
78
44
44
44
78
48
44
00
00
ENDCHAR
STARTCHAR LATIN SMALL LETTER R WITH CARON
ENCODING 345
SWIDTH 1500 0
DWIDTH 6 0
BBX 6 12 0 -2
BITMAP
00
00
28
10
00
5C
60
40
40
40
00
00
ENDCHAR
STARTCHAR LATIN CAPITAL LETTER S WITH ACUTE
ENCODING 346
SWIDTH 1500 0
DWIDTH 6 0
BBX 6 12 0 -2
BITMAP
08
10
00
3C
40
40
38
04
04
78
00
00
ENDCHAR
STARTCHAR LATIN SMALL LETTER S WITH ACUTE
ENCODING 347
SWIDTH 1500 0
DWIDTH 6 0
BBX 6 12 0 -2
BITMAP
00
00
08
10
00
1C
20
18
04
38
00
00
ENDCHAR
STARTCHAR LATIN CAPITAL LETTER S WITH CIRCUMFLEX
ENCODING 348
SWIDTH 1500 0
DWIDTH 6 0
BBX 6 12 0 -2
BITMAP
10
28
00
3C
40
40
38
04
04
78
00
00
ENDCHAR
STARTCHAR LATIN SMALL LETTER S WITH CIRCUMFLEX
ENCODING 349
SWIDTH 1500 0
DWIDTH 6 0
BBX 6 12 0 -2
BITMAP
00
00
10
28
00
1C
20
18
04
38
00
00
ENDCHAR
STARTCHAR LATIN CAPITAL LETTER S WITH CEDILLA
ENCODING 350
SWIDTH 1500 0
DWIDTH 6 0
BBX 6 12 0 -2
BITMAP
00
00
00
3C
40
40
38
04
04
78
10
20
ENDCHAR
STARTCHAR LATIN SMALL LETTER S WITH CEDILLA
ENCODING 351
SWIDTH 1500 0
DWIDTH 6 0
BBX 6 12 0 -2
BITMAP
00
00
00
00
00
1C
20
18
04
38
10
20
ENDCHAR
STARTCHAR LATIN CAPITAL LETTER S WITH CARON
ENCODING 352
SWIDTH 1500 0
DWIDTH 6 0
BBX 6 12 0 -2
BITMAP
28
10
00
3C
40
40
38
04
04
78
00
00
ENDCHAR
STARTCHAR LATIN SMALL LETTER S WITH CARON
ENCODING 353
SWIDTH 1500 0
DWIDTH 6 0
BBX 6 12 0 -2
BITMAP
00
00
28
10
00
1C
20
18
04
38
00
00
ENDCHAR
STARTCHAR LATIN CAPITAL LETTER T WITH CEDILLA
ENCODING 354
SWIDTH 1500 0
DWIDTH 6 0
BBX 6 12 0 -2
BITMAP
00
00
00
7C
10
10
10
10
10
10
10
20
ENDCHAR
STARTCHAR LATIN SMALL LETTER T WITH CEDILLA
ENCODING 355
SWIDTH 1500 0
DWIDTH 6 0
BBX 6 12 0 -2
BITMAP
00
00
10
10
10
38
10
10
10
0C
08
10
ENDCHAR
STARTCHAR LATIN CAPITAL LETTER T WITH CARON
ENCODING 356
SWIDTH 1500 0
DWIDTH 6 0
BBX 6 12 0 -2
BITMAP
28
10
00
7C
10
10
10
10
10
10
00
00
ENDCHAR
STARTCHAR LATIN SMALL LETTER T WITH CARON
ENCODING 357
SWIDTH 1500 0
DWIDTH 6 0
BBX 6 12 0 -2
BITMAP
00
04
18
10
10
38
10
10
10
0C
00
00
ENDCHAR
STARTCHAR LATIN CAPITAL LETTER T WITH STROKE
ENCODING 358
SWIDTH 1500 0
DWIDTH 6 0
BBX 6 12 0 -2
BITMAP
00
00
00
7C
10
10
38
10
10
10
00
00
ENDCHAR
STARTCHAR LATIN SMALL LETTER T WITH STROKE
ENCODING 359
SWIDTH 1500 0
DWIDTH 6 0
BBX 6 12 0 -2
BITMAP
00
00
10
10
38
10
38
10
10
0C
00
00
ENDCHAR
STARTCHAR LATIN CAPITAL LETTER U WITH TILDE
ENCODING 360
SWIDTH 1500 0
DWIDTH 6 0
BBX 6 12 0 -2
BITMAP
14
28
00
44
44
44
44
44
44
38
00
00
ENDCHAR
STARTCHAR LATIN SMALL LETTER U WITH TILDE
ENCODING 361
SWIDTH 1500 0
DWIDTH 6 0
BBX 6 12 0 -2
BITMAP
00
00
14
28
00
44
44
44
4C
34
00
00
ENDCHAR
STARTCHAR LATIN CAPITAL LETTER U WITH MACRON
ENCODING 362
SWIDTH 1500 0
DWIDTH 6 0
BBX 6 12 0 -2
BITMAP
00
38
00
44
44
44
44
44
44
38
00
00
ENDCHAR
STARTCHAR LATIN SMALL LETTER U WITH MACRON
ENCODING 363
SWIDTH 1500 0
DWIDTH 6 0
BBX 6 12 0 -2
BITMAP
00
00
00
38
00
44
44
44
4C
34
00
00
ENDCHAR
STARTCHAR LATIN CAPITAL LETTER U WITH BREVE
ENCODING 364
SWIDTH 1500 0
DWIDTH 6 0
BBX 6 12 0 -2
BITMAP
44
38
00
44
44
44
44
44
44
38
00
00
ENDCHAR
STARTCHAR LATIN SMALL LETTER U WITH BREVE
ENCODING 365
SWIDTH 1500 0
DWIDTH 6 0
BBX 6 12 0 -2
BITMAP
00
00
44
38
00
44
44
44
4C
34
00
00
ENDCHAR
STARTCHAR LATIN CAPITAL LETTER U WITH RING ABOVE
ENCODING 366
SWIDTH 1500 0
DWIDTH 6 0
BBX 6 12 0 -2
BITMAP
10
28
10
44
44
44
44
44
44
38
00
00
ENDCHAR
STARTCHAR LATIN SMALL LETTER U WITH RING ABOVE
ENCODING 367
SWIDTH 1500 0
DWIDTH 6 0
BBX 6 12 0 -2
BITMAP
00
10
28
10
00
44
44
44
4C
34
00
00
ENDCHAR
STARTCHAR LATIN CAPITAL LETTER U WITH DOUBLE ACUTE
ENCODING 368
SWIDTH 1500 0
DWIDTH 6 0
BBX 6 12 0 -2
BITMAP
24
48
00
44
44
44
44
44
44
38
00
00
ENDCHAR
STARTCHAR LATIN SMALL LETTER U WITH DOUBLE ACUTE
ENCODING 369
SWIDTH 1500 0
DWIDTH 6 0
BBX 6 12 0 -2
BITMAP
00
00
24
48
00
44
44
44
4C
34
00
00
ENDCHAR
STARTCHAR LATIN CAPITAL LETTER U WITH OGONEK
ENCODING 370
SWIDTH 1500 0
DWIDTH 6 0
BBX 6 12 0 -2
BITMAP
00
00
00
44
44
44
44
44
44
38
10
08
ENDCHAR
STARTCHAR LATIN SMALL LETTER U WITH OGONEK
ENCODING 371
SWIDTH 1500 0
DWIDTH 6 0
BBX 6 12 0 -2
BITMAP
00
00
00
00
00
44
44
44
4C
34
08
04
ENDCHAR
STARTCHAR LATIN CAPITAL LETTER W WITH CIRCUMFLEX
ENCODING 372
SWIDTH 1500 0
DWIDTH 6 0
BBX 6 12 0 -2
BITMAP
10
28
00
44
44
44
44
54
6C
44
00
00
ENDCHAR
STARTCHAR LATIN SMALL LETTER W WITH CIRCUMFLEX
ENCODING 373
SWIDTH 1500 0
DWIDTH 6 0
BBX 6 12 0 -2
BITMAP
00
00
10
28
00
44
44
54
6C
44
00
00
ENDCHAR
STARTCHAR LATIN CAPITAL LETTER Y WITH CIRCUMFLEX
ENCODING 374
SWIDTH 1500 0
DWIDTH 6 0
BBX 6 12 0 -2
BITMAP
10
28
00
44
44
28
10
10
10
10
00
00
ENDCHAR
STARTCHAR LATIN SMALL LETTER Y WITH CIRCUMFLEX
ENCODING 375
SWIDTH 1500 0
DWIDTH 6 0
BBX 6 12 0 -2
BITMAP
00
00
10
28
00
44
44
44
4C
34
04
18
ENDCHAR
STARTCHAR LATIN CAPITAL LETTER Y WITH DIAERESIS
ENCODING 376
SWIDTH 1500 0
DWIDTH 6 0
BBX 6 12 0 -2
BITMAP
00
28
00
44
44
28
10
10
10
10
00
00
ENDCHAR
STARTCHAR LATIN CAPITAL LETTER Z WITH ACUTE
ENCODING 377
SWIDTH 1500 0
DWIDTH 6 0
BBX 6 12 0 -2
BITMAP
08
10
00
7C
04
08
10
20
40
7C
00
00
ENDCHAR
STARTCHAR LATIN SMALL LETTER Z WITH ACUTE
ENCODING 378
SWIDTH 1500 0
DWIDTH 6 0
BBX 6 12 0 -2
BITMAP
00
00
08
10
00
7C
08
10
20
7C
00
00
ENDCHAR
STARTCHAR LATIN CAPITAL LETTER Z WITH DOT ABOVE
ENCODING 379
SWIDTH 1500 0
DWIDTH 6 0
BBX 6 12 0 -2
BITMAP
00
10
00
7C
04
08
10
20
40
7C
00
00
ENDCHAR
STARTCHAR LATIN SMALL LETTER Z WITH DOT ABOVE
ENCODING 380
SWIDTH 1500 0
DWIDTH 6 0
BBX 6 12 0 -2
BITMAP
00
00
00
10
00
7C
08
10
20
7C
00
00
ENDCHAR
STARTCHAR LATIN CAPITAL LETTER Z WITH CARON
ENCODING 381
SWIDTH 1500 0
DWIDTH 6 0
BBX 6 12 0 -2
BITMAP
28
10
00
7C
04
08
10
20
40
7C
00
00
ENDCHAR
STARTCHAR LATIN SMALL LETTER Z WITH CARON
ENCODING 382
SWIDTH 1500 0
DWIDTH 6 0
BBX 6 12 0 -2
BITMAP
00
00
28
10
00
7C
08
10
20
7C
00
00
ENDCHAR
STARTCHAR LATIN SMALL LETTER LONG S
ENCODING 383
SWIDTH 1500 0
DWIDTH 6 0
BBX 6 12 0 -2
BITMAP
00
00
18
20
20
20
20
20
20
20
00
00
ENDCHAR
STARTCHAR LATIN CAPITAL LETTER REVERSED E
ENCODING 398
SWIDTH 1500 0
DWIDTH 6 0
BBX 6 12 0 -2
BITMAP
00
00
00
7C
04
04
1C
04
04
7C
00
00
ENDCHAR
STARTCHAR LATIN CAPITAL LETTER SCHWA
ENCODING 399
SWIDTH 1500 0
DWIDTH 6 0
BBX 6 12 0 -2
BITMAP
00
00
00
38
04
04
7C
44
44
38
00
00
ENDCHAR
STARTCHAR LATIN SMALL LETTER F WITH HOOK
ENCODING 402
SWIDTH 1500 0
DWIDTH 6 0
BBX 6 12 0 -2
BITMAP
00
00
0C
10
10
38
10
10
10
10
10
60
ENDCHAR
STARTCHAR LATIN CAPITAL LETTER O WITH HORN
ENCODING 416
SWIDTH 1500 0
DWIDTH 6 0
BBX 6 12 0 -2
BITMAP
00
00
04
34
4C
48
48
48
48
30
00
00
ENDCHAR
STARTCHAR LATIN SMALL LETTER O WITH HORN
ENCODING 417
SWIDTH 1500 0
DWIDTH 6 0
BBX 6 12 0 -2
BITMAP
00
00
00
00
04
34
4C
48
48
30
00
00
ENDCHAR
STARTCHAR LATIN CAPITAL LETTER U WITH HORN
ENCODING 431
SWIDTH 1500 0
DWIDTH 6 0
BBX 6 12 0 -2
BITMAP
00
00
04
4C
4C
48
48
48
48
30
00
00
ENDCHAR
STARTCHAR LATIN SMALL LETTER U WITH HORN
ENCODING 432
SWIDTH 1500 0
DWIDTH 6 0
BBX 6 12 0 -2
BITMAP
00
00
00
00
04
4C
4C
48
48
38
00
00
ENDCHAR
STARTCHAR LATIN SMALL LETTER TURNED E
ENCODING 477
SWIDTH 1500 0
DWIDTH 6 0
BBX 6 12 0 -2
BITMAP
00
00
00
00
00
38
04
7C
44
38
00
00
ENDCHAR
STARTCHAR LATIN CAPITAL LETTER A WITH RING ABOVE AND ACUTE
ENCODING 506
SWIDTH 1500 0
DWIDTH 6 0
BBX 6 12 0 -2
BITMAP
08
10
28
38
44
44
44
7C
44
44
00
00
ENDCHAR
STARTCHAR LATIN SMALL LETTER A WITH RING ABOVE AND ACUTE
ENCODING 507
SWIDTH 1500 0
DWIDTH 6 0
BBX 6 12 0 -2
BITMAP
08
10
10
28
10
3C
04
3C
44
3C
00
00
ENDCHAR
STARTCHAR LATIN CAPITAL LETTER AE WITH ACUTE
ENCODING 508
SWIDTH 1500 0
DWIDTH 6 0
BBX 6 12 0 -2
BITMAP
08
10
00
3C
50
50
58
70
50
5C
00
00
ENDCHAR
STARTCHAR LATIN SMALL LETTER AE WITH ACUTE
ENCODING 509
SWIDTH 1500 0
DWIDTH 6 0
BBX 6 12 0 -2
BITMAP
00
00
08
10
00
68
14
7C
90
7C
00
00
ENDCHAR
STARTCHAR LATIN CAPITAL LETTER O WITH STROKE AND ACUTE
ENCODING 510
SWIDTH 1500 0
DWIDTH 6 0
BBX 6 12 0 -2
BITMAP
08
10
00
3C
4C
4C
54
64
64
78
00
00
ENDCHAR
STARTCHAR LATIN SMALL LETTER O WITH STROKE AND ACUTE
ENCODING 511
SWIDTH 1500 0
DWIDTH 6 0
BBX 6 12 0 -2
BITMAP
00
00
08
10
00
3C
4C
54
64
78
00
00
ENDCHAR
STARTCHAR LATIN CAPITAL LETTER S WITH COMMA BELOW
ENCODING 536
SWIDTH 1500 0
DWIDTH 6 0
BBX 6 12 0 -2
BITMAP
00
00
00
3C
40
40
38
04
04
78
10
20
ENDCHAR
STARTCHAR LATIN SMALL LETTER S WITH COMMA BELOW
ENCODING 537
SWIDTH 1500 0
DWIDTH 6 0
BBX 6 12 0 -2
BITMAP
00
00
00
00
00
1C
20
18
04
38
10
20
ENDCHAR
STARTCHAR LATIN CAPITAL LETTER T WITH COMMA BELOW
ENCODING 538
SWIDTH 1500 0
DWIDTH 6 0
BBX 6 12 0 -2
BITMAP
00
00
00
7C
10
10
10
10
10
10
10
20
ENDCHAR
STARTCHAR LATIN SMALL LETTER T WITH COMMA BELOW
ENCODING 539
SWIDTH 1500 0
DWIDTH 6 0
BBX 6 12 0 -2
BITMAP
00
00
20
20
20
70
20
20
20
18
10
20
ENDCHAR
STARTCHAR LATIN SMALL LETTER TURNED A
ENCODING 592
SWIDTH 1500 0
DWIDTH 6 0
BBX 6 12 0 -2
BITMAP
00
00
00
00
00
78
44
78
40
38
00
00
ENDCHAR
STARTCHAR LATIN SMALL LETTER ALPHA
ENCODING 593
SWIDTH 1500 0
DWIDTH 6 0
BBX 6 12 0 -2
BITMAP
00
00
00
00
00
3C
44
44
44
3C
00
00
ENDCHAR
STARTCHAR LATIN SMALL LETTER TURNED ALPHA
ENCODING 594
SWIDTH 1500 0
DWIDTH 6 0
BBX 6 12 0 -2
BITMAP
00
00
00
00
00
78
44
44
44
78
00
00
ENDCHAR
STARTCHAR LATIN SMALL LETTER B WITH HOOK
ENCODING 595
SWIDTH 1500 0
DWIDTH 6 0
BBX 6 12 0 -2
BITMAP
00
20
40
40
40
78
44
44
44
78
00
00
ENDCHAR
STARTCHAR LATIN SMALL LETTER OPEN O
ENCODING 596
SWIDTH 1500 0
DWIDTH 6 0
BBX 6 12 0 -2
BITMAP
00
00
00
00
00
78
04
04
04
78
00
00
ENDCHAR
STARTCHAR LATIN SMALL LETTER C WITH CURL
ENCODING 597
SWIDTH 1500 0
DWIDTH 6 0
BBX 6 12 0 -2
BITMAP
00
00
00
00
00
3C
40
40
4C
3C
08
00
ENDCHAR
STARTCHAR LATIN SMALL LETTER D WITH TAIL
ENCODING 598
SWIDTH 1500 0
DWIDTH 6 0
BBX 6 12 0 -2
BITMAP
00
00
08
08
08
38
48
48
48
38
08
04
ENDCHAR
STARTCHAR LATIN SMALL LETTER D WITH HOOK
ENCODING 599
SWIDTH 1500 0
DWIDTH 6 0
BBX 6 12 0 -2
BITMAP
00
04
08
08
08
38
48
48
48
38
00
00
ENDCHAR
STARTCHAR LATIN SMALL LETTER REVERSED E
ENCODING 600
SWIDTH 1500 0
DWIDTH 6 0
BBX 6 12 0 -2
BITMAP
00
00
00
00
00
38
44
7C
04
38
00
00
ENDCHAR
STARTCHAR LATIN SMALL LETTER SCHWA
ENCODING 601
SWIDTH 1500 0
DWIDTH 6 0
BBX 6 12 0 -2
BITMAP
00
00
00
00
00
38
04
7C
44
38
00
00
ENDCHAR
STARTCHAR LATIN SMALL LETTER SCHWA WITH HOOK
ENCODING 602
SWIDTH 1500 0
DWIDTH 6 0
BBX 6 12 0 -2
BITMAP
00
00
00
00
00
60
10
F8
94
60
00
00
ENDCHAR
STARTCHAR LATIN SMALL LETTER OPEN E
ENCODING 603
SWIDTH 1500 0
DWIDTH 6 0
BBX 6 12 0 -2
BITMAP
00
00
00
00
00
3C
40
30
40
3C
00
00
ENDCHAR
STARTCHAR LATIN SMALL LETTER REVERSED OPEN E
ENCODING 604
SWIDTH 1500 0
DWIDTH 6 0
BBX 6 12 0 -2
BITMAP
00
00
00
00
00
78
04
18
04
78
00
00
ENDCHAR
STARTCHAR LATIN SMALL LETTER REVERSED OPEN E WITH HOOK
ENCODING 605
SWIDTH 1500 0
DWIDTH 6 0
BBX 6 12 0 -2
BITMAP
00
00
00
00
00
60
18
24
10
60
00
00
ENDCHAR
STARTCHAR LATIN SMALL LETTER CLOSED REVERSED OPEN E
ENCODING 606
SWIDTH 1500 0
DWIDTH 6 0
BBX 6 12 0 -2
BITMAP
00
00
00
00
00
38
44
58
44
38
00
00
ENDCHAR
STARTCHAR LATIN SMALL LETTER DOTLESS J WITH STROKE
ENCODING 607
SWIDTH 1500 0
DWIDTH 6 0
BBX 6 12 0 -2
BITMAP
00
00
00
00
00
30
10
38
10
10
10
20
ENDCHAR
STARTCHAR LATIN SMALL LETTER G WITH HOOK
ENCODING 608
SWIDTH 1500 0
DWIDTH 6 0
BBX 6 12 0 -2
BITMAP
00
00
00
04
08
38
48
48
48
38
08
30
ENDCHAR
STARTCHAR LATIN SMALL LETTER SCRIPT G
ENCODING 609
SWIDTH 1500 0
DWIDTH 6 0
BBX 6 12 0 -2
BITMAP
00
00
00
00
00
3C
44
44
4C
34
04
38
ENDCHAR
STARTCHAR LATIN LETTER SMALL CAPITAL G
ENCODING 610
SWIDTH 1500 0
DWIDTH 6 0
BBX 6 12 0 -2
BITMAP
00
00
00
00
00
3C
40
4C
44
3C
00
00
ENDCHAR
STARTCHAR LATIN SMALL LETTER GAMMA
ENCODING 611
SWIDTH 1500 0
DWIDTH 6 0
BBX 6 12 0 -2
BITMAP
00
00
00
00
00
44
44
28
28
10
28
10
ENDCHAR
STARTCHAR LATIN SMALL LETTER RAMS HORN
ENCODING 612
SWIDTH 1500 0
DWIDTH 6 0
BBX 6 12 0 -2
BITMAP
00
00
00
00
00
44
28
10
28
10
00
00
ENDCHAR
STARTCHAR LATIN SMALL LETTER TURNED H
ENCODING 613
SWIDTH 1500 0
DWIDTH 6 0
BBX 6 12 0 -2
BITMAP
00
00
00
00
00
44
44
44
4C
34
04
04
ENDCHAR
STARTCHAR LATIN SMALL LETTER H WITH HOOK
ENCODING 614
SWIDTH 1500 0
DWIDTH 6 0
BBX 6 12 0 -2
BITMAP
00
20
40
40
40
58
64
44
44
44
00
00
ENDCHAR
STARTCHAR LATIN SMALL LETTER HENG WITH HOOK
ENCODING 615
SWIDTH 1500 0
DWIDTH 6 0
BBX 6 12 0 -2
BITMAP
00
20
40
40
40
58
64
44
44
44
04
08
ENDCHAR
STARTCHAR LATIN SMALL LETTER I WITH STROKE
ENCODING 616
SWIDTH 1500 0
DWIDTH 6 0
BBX 6 12 0 -2
BITMAP
00
00
00
10
00
30
10
38
10
10
00
00
ENDCHAR
STARTCHAR LATIN SMALL LETTER IOTA
ENCODING 617
SWIDTH 1500 0
DWIDTH 6 0
BBX 6 12 0 -2
BITMAP
00
00
00
00
00
10
10
10
10
08
00
00
ENDCHAR
STARTCHAR LATIN LETTER SMALL CAPITAL I
ENCODING 618
SWIDTH 1500 0
DWIDTH 6 0
BBX 6 12 0 -2
BITMAP
00
00
00
00
00
38
10
10
10
38
00
00
ENDCHAR
STARTCHAR LATIN SMALL LETTER L WITH MIDDLE TILDE
ENCODING 619
SWIDTH 1500 0
DWIDTH 6 0
BBX 6 12 0 -2
BITMAP
00
00
10
10
10
34
58
10
10
0C
00
00
ENDCHAR
STARTCHAR LATIN SMALL LETTER L WITH BELT
ENCODING 620
SWIDTH 1500 0
DWIDTH 6 0
BBX 6 12 0 -2
BITMAP
00
00
10
10
10
70
7C
10
10
0C
00
00
ENDCHAR
STARTCHAR LATIN SMALL LETTER L WITH RETROFLEX HOOK
ENCODING 621
SWIDTH 1500 0
DWIDTH 6 0
BBX 6 12 0 -2
BITMAP
00
00
30
10
10
10
10
10
10
0C
08
04
ENDCHAR
STARTCHAR LATIN SMALL LETTER LEZH
ENCODING 622
SWIDTH 1500 0
DWIDTH 6 0
BBX 6 12 0 -2
BITMAP
00
00
40
40
40
7C
48
50
48
24
04
38
ENDCHAR
STARTCHAR LATIN SMALL LETTER TURNED M
ENCODING 623
SWIDTH 1500 0
DWIDTH 6 0
BBX 6 12 0 -2
BITMAP
00
00
00
00
00
44
54
54
54
2C
00
00
ENDCHAR
STARTCHAR LATIN SMALL LETTER TURNED M WITH LONG LEG
ENCODING 624
SWIDTH 1500 0
DWIDTH 6 0
BBX 6 12 0 -2
BITMAP
00
00
00
00
00
44
54
54
54
2C
04
04
ENDCHAR
STARTCHAR LATIN SMALL LETTER M WITH HOOK
ENCODING 625
SWIDTH 1500 0
DWIDTH 6 0
BBX 6 12 0 -2
BITMAP
00
00
00
00
00
78
54
54
54
44
04
08
ENDCHAR
STARTCHAR LATIN SMALL LETTER N WITH LEFT HOOK
ENCODING 626
SWIDTH 1500 0
DWIDTH 6 0
BBX 6 12 0 -2
BITMAP
00
00
00
00
00
58
64
44
44
44
40
80
ENDCHAR
STARTCHAR LATIN SMALL LETTER N WITH RETROFLEX HOOK
ENCODING 627
SWIDTH 1500 0
DWIDTH 6 0
BBX 6 12 0 -2
BITMAP
00
00
00
00
00
70
48
48
48
48
08
04
ENDCHAR
STARTCHAR LATIN LETTER SMALL CAPITAL N
ENCODING 628
SWIDTH 1500 0
DWIDTH 6 0
BBX 6 12 0 -2
BITMAP
00
00
00
00
00
44
64
54
4C
44
00
00
ENDCHAR
STARTCHAR LATIN SMALL LETTER BARRED O
ENCODING 629
SWIDTH 1500 0
DWIDTH 6 0
BBX 6 12 0 -2
BITMAP
00
00
00
00
00
38
44
7C
44
38
00
00
ENDCHAR
STARTCHAR LATIN LETTER SMALL CAPITAL OE
ENCODING 630
SWIDTH 1500 0
DWIDTH 6 0
BBX 6 12 0 -2
BITMAP
00
00
00
00
00
3C
50
58
50
3C
00
00
ENDCHAR
STARTCHAR LATIN SMALL LETTER CLOSED OMEGA
ENCODING 631
SWIDTH 1500 0
DWIDTH 6 0
BBX 6 12 0 -2
BITMAP
00
00
00
00
00
38
44
54
54
28
00
00
ENDCHAR
STARTCHAR LATIN SMALL LETTER PHI
ENCODING 632
SWIDTH 1500 0
DWIDTH 6 0
BBX 6 12 0 -2
BITMAP
00
00
00
10
10
38
54
54
54
38
10
10
ENDCHAR
STARTCHAR LATIN SMALL LETTER TURNED R
ENCODING 633
SWIDTH 1500 0
DWIDTH 6 0
BBX 6 12 0 -2
BITMAP
00
00
00
00
00
04
04
04
0C
74
00
00
ENDCHAR
STARTCHAR LATIN SMALL LETTER TURNED R WITH LONG LEG
ENCODING 634
SWIDTH 1500 0
DWIDTH 6 0
BBX 6 12 0 -2
BITMAP
00
00
00
04
04
04
04
04
0C
74
00
00
ENDCHAR
STARTCHAR LATIN SMALL LETTER TURNED R WITH HOOK
ENCODING 635
SWIDTH 1500 0
DWIDTH 6 0
BBX 6 12 0 -2
BITMAP
00
00
00
00
00
08
08
08
18
68
08
04
ENDCHAR
STARTCHAR LATIN SMALL LETTER R WITH LONG LEG
ENCODING 636
SWIDTH 1500 0
DWIDTH 6 0
BBX 6 12 0 -2
BITMAP
00
00
00
00
00
5C
60
40
40
40
40
40
ENDCHAR
STARTCHAR LATIN SMALL LETTER R WITH TAIL
ENCODING 637
SWIDTH 1500 0
DWIDTH 6 0
BBX 6 12 0 -2
BITMAP
00
00
00
00
00
5C
60
40
40
40
40
20
ENDCHAR
STARTCHAR LATIN SMALL LETTER R WITH FISHHOOK
ENCODING 638
SWIDTH 1500 0
DWIDTH 6 0
BBX 6 12 0 -2
BITMAP
00
00
00
00
00
1C
20
20
20
70
00
00
ENDCHAR
STARTCHAR LATIN SMALL LETTER REVERSED R WITH FISHHOOK
ENCODING 639
SWIDTH 1500 0
DWIDTH 6 0
BBX 6 12 0 -2
BITMAP
00
00
00
00
00
70
08
08
08
1C
00
00
ENDCHAR
STARTCHAR LATIN LETTER SMALL CAPITAL R
ENCODING 640
SWIDTH 1500 0
DWIDTH 6 0
BBX 6 12 0 -2
BITMAP
00
00
00
00
00
78
44
78
48
44
00
00
ENDCHAR
STARTCHAR LATIN LETTER SMALL CAPITAL INVERTED R
ENCODING 641
SWIDTH 1500 0
DWIDTH 6 0
BBX 6 12 0 -2
BITMAP
00
00
00
00
00
44
48
78
44
78
00
00
ENDCHAR
STARTCHAR LATIN SMALL LETTER S WITH HOOK
ENCODING 642
SWIDTH 1500 0
DWIDTH 6 0
BBX 6 12 0 -2
BITMAP
00
00
00
00
00
1C
20
18
04
38
40
20
ENDCHAR
STARTCHAR LATIN SMALL LETTER ESH
ENCODING 643
SWIDTH 1500 0
DWIDTH 6 0
BBX 6 12 0 -2
BITMAP
00
00
0C
10
10
10
10
10
10
10
10
60
ENDCHAR
STARTCHAR LATIN SMALL LETTER DOTLESS J WITH STROKE AND HOOK
ENCODING 644
SWIDTH 1500 0
DWIDTH 6 0
BBX 6 12 0 -2
BITMAP
00
00
00
08
10
30
10
38
10
10
10
20
ENDCHAR
STARTCHAR LATIN SMALL LETTER SQUAT REVERSED ESH
ENCODING 645
SWIDTH 1500 0
DWIDTH 6 0
BBX 6 12 0 -2
BITMAP
00
00
00
00
00
60
10
10
10
10
10
0C
ENDCHAR
STARTCHAR LATIN SMALL LETTER ESH WITH CURL
ENCODING 646
SWIDTH 1500 0
DWIDTH 6 0
BBX 6 12 0 -2
BITMAP
00
00
0C
10
10
10
10
10
10
10
78
60
ENDCHAR
STARTCHAR LATIN SMALL LETTER TURNED T
ENCODING 647
SWIDTH 1500 0
DWIDTH 6 0
BBX 6 12 0 -2
BITMAP
00
00
00
00
00
30
08
08
08
1C
08
08
ENDCHAR
STARTCHAR LATIN SMALL LETTER T WITH RETROFLEX HOOK
ENCODING 648
SWIDTH 1500 0
DWIDTH 6 0
BBX 6 12 0 -2
BITMAP
00
00
20
20
20
70
20
20
20
18
08
04
ENDCHAR
STARTCHAR LATIN SMALL LETTER U BAR
ENCODING 649
SWIDTH 1500 0
DWIDTH 6 0
BBX 6 12 0 -2
BITMAP
00
00
00
00
00
44
44
7C
44
3C
00
00
ENDCHAR
STARTCHAR LATIN SMALL LETTER UPSILON
ENCODING 650
SWIDTH 1500 0
DWIDTH 6 0
BBX 6 12 0 -2
BITMAP
00
00
00
00
00
44
28
44
44
38
00
00
ENDCHAR
STARTCHAR LATIN SMALL LETTER V WITH HOOK
ENCODING 651
SWIDTH 1500 0
DWIDTH 6 0
BBX 6 12 0 -2
BITMAP
00
00
00
08
04
44
44
28
28
10
00
00
ENDCHAR
STARTCHAR LATIN SMALL LETTER TURNED V
ENCODING 652
SWIDTH 1500 0
DWIDTH 6 0
BBX 6 12 0 -2
BITMAP
00
00
00
00
00
10
28
28
44
44
00
00
ENDCHAR
STARTCHAR LATIN SMALL LETTER TURNED W
ENCODING 653
SWIDTH 1500 0
DWIDTH 6 0
BBX 6 12 0 -2
BITMAP
00
00
00
00
00
44
6C
54
44
44
00
00
ENDCHAR
STARTCHAR LATIN SMALL LETTER TURNED Y
ENCODING 654
SWIDTH 1500 0
DWIDTH 6 0
BBX 6 12 0 -2
BITMAP
00
00
00
38
40
58
64
44
44
44
00
00
ENDCHAR
STARTCHAR LATIN LETTER SMALL CAPITAL Y
ENCODING 655
SWIDTH 1500 0
DWIDTH 6 0
BBX 6 12 0 -2
BITMAP
00
00
00
00
00
44
28
10
10
10
00
00
ENDCHAR
STARTCHAR LATIN SMALL LETTER Z WITH RETROFLEX HOOK
ENCODING 656
SWIDTH 1500 0
DWIDTH 6 0
BBX 6 12 0 -2
BITMAP
00
00
00
00
00
78
10
20
40
78
08
04
ENDCHAR
STARTCHAR LATIN SMALL LETTER Z WITH CURL
ENCODING 657
SWIDTH 1500 0
DWIDTH 6 0
BBX 6 12 0 -2
BITMAP
00
00
00
00
00
7C
08
10
2C
7C
08
00
ENDCHAR
STARTCHAR LATIN SMALL LETTER EZH
ENCODING 658
SWIDTH 1500 0
DWIDTH 6 0
BBX 6 12 0 -2
BITMAP
00
00
00
00
00
7C
08
10
38
04
04
78
ENDCHAR
STARTCHAR LATIN SMALL LETTER EZH WITH CURL
ENCODING 659
SWIDTH 1500 0
DWIDTH 6 0
BBX 6 12 0 -2
BITMAP
00
00
00
00
00
7C
08
10
08
64
78
20
ENDCHAR
STARTCHAR LATIN LETTER GLOTTAL STOP
ENCODING 660
SWIDTH 1500 0
DWIDTH 6 0
BBX 6 12 0 -2
BITMAP
00
00
00
78
04
04
08
10
10
10
00
00
ENDCHAR
STARTCHAR LATIN LETTER PHARYNGEAL VOICED FRICATIVE
ENCODING 661
SWIDTH 1500 0
DWIDTH 6 0
BBX 6 12 0 -2
BITMAP
00
00
00
3C
40
40
20
10
10
10
00
00
ENDCHAR
STARTCHAR LATIN LETTER INVERTED GLOTTAL STOP
ENCODING 662
SWIDTH 1500 0
DWIDTH 6 0
BBX 6 12 0 -2
BITMAP
00
00
00
10
10
10
08
04
04
78
00
00
ENDCHAR
STARTCHAR LATIN LETTER STRETCHED C
ENCODING 663
SWIDTH 1500 0
DWIDTH 6 0
BBX 6 12 0 -2
BITMAP
00
00
00
3C
40
40
40
40
40
40
40
3C
ENDCHAR
STARTCHAR LATIN LETTER BILABIAL CLICK
ENCODING 664
SWIDTH 1500 0
DWIDTH 6 0
BBX 6 12 0 -2
BITMAP
00
00
00
38
44
44
54
44
44
38
00
00
ENDCHAR
STARTCHAR LATIN LETTER SMALL CAPITAL B
ENCODING 665
SWIDTH 1500 0
DWIDTH 6 0
BBX 6 12 0 -2
BITMAP
00
00
00
00
00
78
44
78
44
78
00
00
ENDCHAR
STARTCHAR LATIN SMALL LETTER CLOSED OPEN E
ENCODING 666
SWIDTH 1500 0
DWIDTH 6 0
BBX 6 12 0 -2
BITMAP
00
00
00
00
00
38
44
34
44
38
00
00
ENDCHAR
STARTCHAR LATIN LETTER SMALL CAPITAL G WITH HOOK
ENCODING 667
SWIDTH 1500 0
DWIDTH 6 0
BBX 6 12 0 -2
BITMAP
00
00
00
04
08
38
40
58
48
38
00
00
ENDCHAR
STARTCHAR LATIN LETTER SMALL CAPITAL H
ENCODING 668
SWIDTH 1500 0
DWIDTH 6 0
BBX 6 12 0 -2
BITMAP
00
00
00
00
00
44
44
7C
44
44
00
00
ENDCHAR
STARTCHAR LATIN SMALL LETTER J WITH CROSSED-TAIL
ENCODING 669
SWIDTH 1500 0
DWIDTH 6 0
BBX 6 12 0 -2
BITMAP
00
00
00
10
00
30
10
10
10
38
10
20
ENDCHAR
STARTCHAR LATIN SMALL LETTER TURNED K
ENCODING 670
SWIDTH 1500 0
DWIDTH 6 0
BBX 6 12 0 -2
BITMAP
00
00
00
00
00
24
14
0C
14
24
04
04
ENDCHAR
STARTCHAR LATIN LETTER SMALL CAPITAL L
ENCODING 671
SWIDTH 1500 0
DWIDTH 6 0
BBX 6 12 0 -2
BITMAP
00
00
00
00
00
40
40
40
40
7C
00
00
ENDCHAR
STARTCHAR LATIN SMALL LETTER Q WITH HOOK
ENCODING 672
SWIDTH 1500 0
DWIDTH 6 0
BBX 6 12 0 -2
BITMAP
00
00
00
04
08
38
48
48
48
38
08
08
ENDCHAR
STARTCHAR LATIN LETTER GLOTTAL STOP WITH STROKE
ENCODING 673
SWIDTH 1500 0
DWIDTH 6 0
BBX 6 12 0 -2
BITMAP
00
00
00
78
04
04
08
10
38
10
00
00
ENDCHAR
STARTCHAR LATIN LETTER REVERSED GLOTTAL STOP WITH STROKE
ENCODING 674
SWIDTH 1500 0
DWIDTH 6 0
BBX 6 12 0 -2
BITMAP
00
00
00
3C
40
40
20
10
38
10
00
00
ENDCHAR
STARTCHAR LATIN SMALL LETTER DZ DIGRAPH
ENCODING 675
SWIDTH 1500 0
DWIDTH 6 0
BBX 6 12 0 -2
BITMAP
00
00
10
10
10
3C
54
5C
58
3C
00
00
ENDCHAR
STARTCHAR LATIN SMALL LETTER DEZH DIGRAPH
ENCODING 676
SWIDTH 1500 0
DWIDTH 6 0
BBX 6 12 0 -2
BITMAP
00
00
10
10
10
3C
54
58
54
34
04
18
ENDCHAR
STARTCHAR LATIN SMALL LETTER DZ DIGRAPH WITH CURL
ENCODING 677
SWIDTH 1500 0
DWIDTH 6 0
BBX 6 12 0 -2
BITMAP
00
00
10
10
10
3C
54
5C
58
3C
04
00
ENDCHAR
STARTCHAR LATIN SMALL LETTER TS DIGRAPH
ENCODING 678
SWIDTH 1500 0
DWIDTH 6 0
BBX 6 12 0 -2
BITMAP
00
00
20
20
20
7C
30
28
24
18
00
00
ENDCHAR
STARTCHAR LATIN SMALL LETTER TESH DIGRAPH
ENCODING 679
SWIDTH 1500 0
DWIDTH 6 0
BBX 6 12 0 -2
BITMAP
00
00
24
28
28
78
28
28
28
18
08
10
ENDCHAR
STARTCHAR LATIN SMALL LETTER TC DIGRAPH WITH CURL
ENCODING 680
SWIDTH 1500 0
DWIDTH 6 0
BBX 6 12 0 -2
BITMAP
00
00
20
20
20
74
28
28
2C
1C
04
00
ENDCHAR
STARTCHAR LATIN SMALL LETTER FENG DIGRAPH
ENCODING 681
SWIDTH 1500 0
DWIDTH 6 0
BBX 6 12 0 -2
BITMAP
00
00
30
40
40
78
54
54
54
54
04
08
ENDCHAR
STARTCHAR LATIN SMALL LETTER LS DIGRAPH
ENCODING 682
SWIDTH 1500 0
DWIDTH 6 0
BBX 6 12 0 -2
BITMAP
00
00
40
40
40
4C
50
48
44
38
00
00
ENDCHAR
STARTCHAR LATIN SMALL LETTER LZ DIGRAPH
ENCODING 683
SWIDTH 1500 0
DWIDTH 6 0
BBX 6 12 0 -2
BITMAP
00
00
40
40
40
5C
44
48
50
3C
00
00
ENDCHAR
STARTCHAR LATIN LETTER BILABIAL PERCUSSIVE
ENCODING 684
SWIDTH 1500 0
DWIDTH 6 0
BBX 6 12 0 -2
BITMAP
00
00
00
00
00
54
28
00
54
28
00
00
ENDCHAR
STARTCHAR LATIN LETTER BIDENTAL PERCUSSIVE
ENCODING 685
SWIDTH 1500 0
DWIDTH 6 0
BBX 6 12 0 -2
BITMAP
00
00
00
00
00
7C
44
00
7C
44
00
00
ENDCHAR
STARTCHAR LATIN SMALL LETTER TURNED H WITH FISHHOOK
ENCODING 686
SWIDTH 1500 0
DWIDTH 6 0
BBX 6 12 0 -2
BITMAP
00
00
00
00
80
44
44
44
3C
04
04
04
ENDCHAR
STARTCHAR LATIN SMALL LETTER TURNED H WITH FISHHOOK AND TAIL
ENCODING 687
SWIDTH 1500 0
DWIDTH 6 0
BBX 6 12 0 -2
BITMAP
00
00
00
00
80
48
48
48
48
38
08
04
ENDCHAR
STARTCHAR MODIFIER LETTER SMALL H
ENCODING 688
SWIDTH 1500 0
DWIDTH 6 0
BBX 6 12 0 -2
BITMAP
00
40
40
70
48
48
48
00
00
00
00
00
ENDCHAR
STARTCHAR MODIFIER LETTER SMALL H WITH HOOK
ENCODING 689
SWIDTH 1500 0
DWIDTH 6 0
BBX 6 12 0 -2
BITMAP
20
40
40
70
48
48
48
00
00
00
00
00
ENDCHAR
STARTCHAR MODIFIER LETTER SMALL J
ENCODING 690
SWIDTH 1500 0
DWIDTH 6 0
BBX 6 12 0 -2
BITMAP
00
10
00
30
10
10
10
20
00
00
00
00
ENDCHAR
STARTCHAR MODIFIER LETTER SMALL R
ENCODING 691
SWIDTH 1500 0
DWIDTH 6 0
BBX 6 12 0 -2
BITMAP
00
00
00
58
60
40
40
00
00
00
00
00
ENDCHAR
STARTCHAR MODIFIER LETTER SMALL TURNED R
ENCODING 692
SWIDTH 1500 0
DWIDTH 6 0
BBX 6 12 0 -2
BITMAP
00
00
00
08
08
18
68
00
00
00
00
00
ENDCHAR
STARTCHAR MODIFIER LETTER SMALL TURNED R WITH HOOK
ENCODING 693
SWIDTH 1500 0
DWIDTH 6 0
BBX 6 12 0 -2
BITMAP
00
00
00
08
08
18
68
04
00
00
00
00
ENDCHAR
STARTCHAR MODIFIER LETTER SMALL CAPITAL INVERTED R
ENCODING 694
SWIDTH 1500 0
DWIDTH 6 0
BBX 6 12 0 -2
BITMAP
00
00
00
48
70
48
70
00
00
00
00
00
ENDCHAR
STARTCHAR MODIFIER LETTER SMALL W
ENCODING 695
SWIDTH 1500 0
DWIDTH 6 0
BBX 6 12 0 -2
BITMAP
00
00
00
48
48
78
48
00
00
00
00
00
ENDCHAR
STARTCHAR MODIFIER LETTER SMALL Y
ENCODING 696
SWIDTH 1500 0
DWIDTH 6 0
BBX 6 12 0 -2
BITMAP
00
00
00
48
48
38
08
30
00
00
00
00
ENDCHAR
STARTCHAR MODIFIER LETTER PRIME
ENCODING 697
SWIDTH 1500 0
DWIDTH 6 0
BBX 6 12 0 -2
BITMAP
08
10
20
00
00
00
00
00
00
00
00
00
ENDCHAR
STARTCHAR MODIFIER LETTER DOUBLE PRIME
ENCODING 698
SWIDTH 1500 0
DWIDTH 6 0
BBX 6 12 0 -2
BITMAP
24
48
90
00
00
00
00
00
00
00
00
00
ENDCHAR
STARTCHAR MODIFIER LETTER TURNED COMMA
ENCODING 699
SWIDTH 1500 0
DWIDTH 6 0
BBX 6 12 0 -2
BITMAP
08
10
10
00
00
00
00
00
00
00
00
00
ENDCHAR
STARTCHAR MODIFIER LETTER APOSTROPHE
ENCODING 700
SWIDTH 1500 0
DWIDTH 6 0
BBX 6 12 0 -2
BITMAP
10
10
20
00
00
00
00
00
00
00
00
00
ENDCHAR
STARTCHAR MODIFIER LETTER REVERSED COMMA
ENCODING 701
SWIDTH 1500 0
DWIDTH 6 0
BBX 6 12 0 -2
BITMAP
10
10
08
00
00
00
00
00
00
00
00
00
ENDCHAR
STARTCHAR MODIFIER LETTER RIGHT HALF RING
ENCODING 702
SWIDTH 1500 0
DWIDTH 6 0
BBX 6 12 0 -2
BITMAP
10
08
10
00
00
00
00
00
00
00
00
00
ENDCHAR
STARTCHAR MODIFIER LETTER LEFT HALF RING
ENCODING 703
SWIDTH 1500 0
DWIDTH 6 0
BBX 6 12 0 -2
BITMAP
10
20
10
00
00
00
00
00
00
00
00
00
ENDCHAR
STARTCHAR MODIFIER LETTER GLOTTAL STOP
ENCODING 704
SWIDTH 1500 0
DWIDTH 6 0
BBX 6 12 0 -2
BITMAP
00
70
08
08
10
20
20
00
00
00
00
00
ENDCHAR
STARTCHAR MODIFIER LETTER REVERSED GLOTTAL STOP
ENCODING 705
SWIDTH 1500 0
DWIDTH 6 0
BBX 6 12 0 -2
BITMAP
00
38
40
40
20
10
10
00
00
00
00
00
ENDCHAR
STARTCHAR MODIFIER LETTER LEFT ARROWHEAD
ENCODING 706
SWIDTH 1500 0
DWIDTH 6 0
BBX 6 12 0 -2
BITMAP
00
00
00
18
60
18
00
00
00
00
00
00
ENDCHAR
STARTCHAR MODIFIER LETTER RIGHT ARROWHEAD
ENCODING 707
SWIDTH 1500 0
DWIDTH 6 0
BBX 6 12 0 -2
BITMAP
00
00
00
60
18
60
00
00
00
00
00
00
ENDCHAR
STARTCHAR MODIFIER LETTER UP ARROWHEAD
ENCODING 708
SWIDTH 1500 0
DWIDTH 6 0
BBX 6 12 0 -2
BITMAP
00
00
00
10
28
00
00
00
00
00
00
00
ENDCHAR
STARTCHAR MODIFIER LETTER DOWN ARROWHEAD
ENCODING 709
SWIDTH 1500 0
DWIDTH 6 0
BBX 6 12 0 -2
BITMAP
00
00
00
28
10
00
00
00
00
00
00
00
ENDCHAR
STARTCHAR MODIFIER LETTER CIRCUMFLEX ACCENT
ENCODING 710
SWIDTH 1500 0
DWIDTH 6 0
BBX 6 12 0 -2
BITMAP
10
28
00
00
00
00
00
00
00
00
00
00
ENDCHAR
STARTCHAR CARON
ENCODING 711
SWIDTH 1500 0
DWIDTH 6 0
BBX 6 12 0 -2
BITMAP
28
10
00
00
00
00
00
00
00
00
00
00
ENDCHAR
STARTCHAR MODIFIER LETTER VERTICAL LINE
ENCODING 712
SWIDTH 1500 0
DWIDTH 6 0
BBX 6 12 0 -2
BITMAP
10
10
10
00
00
00
00
00
00
00
00
00
ENDCHAR
STARTCHAR MODIFIER LETTER MACRON
ENCODING 713
SWIDTH 1500 0
DWIDTH 6 0
BBX 6 12 0 -2
BITMAP
00
38
00
00
00
00
00
00
00
00
00
00
ENDCHAR
STARTCHAR MODIFIER LETTER ACUTE ACCENT
ENCODING 714
SWIDTH 1500 0
DWIDTH 6 0
BBX 6 12 0 -2
BITMAP
08
10
00
00
00
00
00
00
00
00
00
00
ENDCHAR
STARTCHAR MODIFIER LETTER GRAVE ACCENT
ENCODING 715
SWIDTH 1500 0
DWIDTH 6 0
BBX 6 12 0 -2
BITMAP
20
10
00
00
00
00
00
00
00
00
00
00
ENDCHAR
STARTCHAR MODIFIER LETTER LOW VERTICAL LINE
ENCODING 716
SWIDTH 1500 0
DWIDTH 6 0
BBX 6 12 0 -2
BITMAP
00
00
00
00
00
00
00
00
00
10
10
10
ENDCHAR
STARTCHAR MODIFIER LETTER LOW MACRON
ENCODING 717
SWIDTH 1500 0
DWIDTH 6 0
BBX 6 12 0 -2
BITMAP
00
00
00
00
00
00
00
00
00
00
00
38
ENDCHAR
STARTCHAR MODIFIER LETTER LOW GRAVE ACCENT
ENCODING 718
SWIDTH 1500 0
DWIDTH 6 0
BBX 6 12 0 -2
BITMAP
00
00
00
00
00
00
00
00
00
00
10
08
ENDCHAR
STARTCHAR MODIFIER LETTER LOW ACUTE ACCENT
ENCODING 719
SWIDTH 1500 0
DWIDTH 6 0
BBX 6 12 0 -2
BITMAP
00
00
00
00
00
00
00
00
00
00
10
20
ENDCHAR
STARTCHAR MODIFIER LETTER TRIANGULAR COLON
ENCODING 720
SWIDTH 1500 0
DWIDTH 6 0
BBX 6 12 0 -2
BITMAP
00
00
00
00
00
38
10
00
10
38
00
00
ENDCHAR
STARTCHAR MODIFIER LETTER HALF TRIANGULAR COLON
ENCODING 721
SWIDTH 1500 0
DWIDTH 6 0
BBX 6 12 0 -2
BITMAP
00
00
00
00
00
00
38
10
00
00
00
00
ENDCHAR
STARTCHAR MODIFIER LETTER CENTRED RIGHT HALF RING
ENCODING 722
SWIDTH 1500 0
DWIDTH 6 0
BBX 6 12 0 -2
BITMAP
00
00
00
00
00
00
10
08
10
00
00
00
ENDCHAR
STARTCHAR MODIFIER LETTER CENTRED LEFT HALF RING
ENCODING 723
SWIDTH 1500 0
DWIDTH 6 0
BBX 6 12 0 -2
BITMAP
00
00
00
00
00
00
10
20
10
00
00
00
ENDCHAR
STARTCHAR MODIFIER LETTER UP TACK
ENCODING 724
SWIDTH 1500 0
DWIDTH 6 0
BBX 6 12 0 -2
BITMAP
00
00
00
00
00
10
10
7C
00
00
00
00
ENDCHAR
STARTCHAR MODIFIER LETTER DOWN TACK
ENCODING 725
SWIDTH 1500 0
DWIDTH 6 0
BBX 6 12 0 -2
BITMAP
00
00
00
00
00
00
00
7C
10
10
00
00
ENDCHAR
STARTCHAR MODIFIER LETTER PLUS SIGN
ENCODING 726
SWIDTH 1500 0
DWIDTH 6 0
BBX 6 12 0 -2
BITMAP
00
00
00
00
00
10
10
7C
10
10
00
00
ENDCHAR
STARTCHAR MODIFIER LETTER MINUS SIGN
ENCODING 727
SWIDTH 1500 0
DWIDTH 6 0
BBX 6 12 0 -2
BITMAP
00
00
00
00
00
00
00
7C
00
00
00
00
ENDCHAR
STARTCHAR BREVE
ENCODING 728
SWIDTH 1500 0
DWIDTH 6 0
BBX 6 12 0 -2
BITMAP
44
38
00
00
00
00
00
00
00
00
00
00
ENDCHAR
STARTCHAR DOT ABOVE
ENCODING 729
SWIDTH 1500 0
DWIDTH 6 0
BBX 6 12 0 -2
BITMAP
00
10
00
00
00
00
00
00
00
00
00
00
ENDCHAR
STARTCHAR RING ABOVE
ENCODING 730
SWIDTH 1500 0
DWIDTH 6 0
BBX 6 12 0 -2
BITMAP
10
28
10
00
00
00
00
00
00
00
00
00
ENDCHAR
STARTCHAR OGONEK
ENCODING 731
SWIDTH 1500 0
DWIDTH 6 0
BBX 6 12 0 -2
BITMAP
00
00
00
00
00
00
00
00
00
00
08
04
ENDCHAR
STARTCHAR SMALL TILDE
ENCODING 732
SWIDTH 1500 0
DWIDTH 6 0
BBX 6 12 0 -2
BITMAP
28
50
00
00
00
00
00
00
00
00
00
00
ENDCHAR
STARTCHAR DOUBLE ACUTE ACCENT
ENCODING 733
SWIDTH 1500 0
DWIDTH 6 0
BBX 6 12 0 -2
BITMAP
24
48
00
00
00
00
00
00
00
00
00
00
ENDCHAR
STARTCHAR MODIFIER LETTER RHOTIC HOOK
ENCODING 734
SWIDTH 1500 0
DWIDTH 6 0
BBX 6 12 0 -2
BITMAP
00
00
00
00
00
40
A0
24
18
00
00
00
ENDCHAR
STARTCHAR MODIFIER LETTER CROSS ACCENT
ENCODING 735
SWIDTH 1500 0
DWIDTH 6 0
BBX 6 12 0 -2
BITMAP
28
10
28
00
00
00
00
00
00
00
00
00
ENDCHAR
STARTCHAR MODIFIER LETTER SMALL GAMMA
ENCODING 736
SWIDTH 1500 0
DWIDTH 6 0
BBX 6 12 0 -2
BITMAP
00
00
00
48
28
10
28
10
00
00
00
00
ENDCHAR
STARTCHAR MODIFIER LETTER SMALL L
ENCODING 737
SWIDTH 1500 0
DWIDTH 6 0
BBX 6 12 0 -2
BITMAP
00
20
20
20
20
20
10
00
00
00
00
00
ENDCHAR
STARTCHAR MODIFIER LETTER SMALL S
ENCODING 738
SWIDTH 1500 0
DWIDTH 6 0
BBX 6 12 0 -2
BITMAP
00
00
00
38
70
08
70
00
00
00
00
00
ENDCHAR
STARTCHAR MODIFIER LETTER SMALL X
ENCODING 739
SWIDTH 1500 0
DWIDTH 6 0
BBX 6 12 0 -2
BITMAP
00
00
00
48
30
48
00
00
00
00
00
00
ENDCHAR
STARTCHAR MODIFIER LETTER SMALL REVERSED GLOTTAL STOP
ENCODING 740
SWIDTH 1500 0
DWIDTH 6 0
BBX 6 12 0 -2
BITMAP
00
00
00
38
40
20
20
00
00
00
00
00
ENDCHAR
STARTCHAR MODIFIER LETTER EXTRA-HIGH TONE BAR
ENCODING 741
SWIDTH 1500 0
DWIDTH 6 0
BBX 6 12 0 -2
BITMAP
00
00
00
00
00
7C
04
04
04
04
00
00
ENDCHAR
STARTCHAR MODIFIER LETTER HIGH TONE BAR
ENCODING 742
SWIDTH 1500 0
DWIDTH 6 0
BBX 6 12 0 -2
BITMAP
00
00
00
00
00
04
7C
04
04
04
00
00
ENDCHAR
STARTCHAR MODIFIER LETTER MID TONE BAR
ENCODING 743
SWIDTH 1500 0
DWIDTH 6 0
BBX 6 12 0 -2
BITMAP
00
00
00
00
00
04
04
7C
04
04
00
00
ENDCHAR
STARTCHAR MODIFIER LETTER LOW TONE BAR
ENCODING 744
SWIDTH 1500 0
DWIDTH 6 0
BBX 6 12 0 -2
BITMAP
00
00
00
00
00
04
04
04
7C
04
00
00
ENDCHAR
STARTCHAR MODIFIER LETTER EXTRA-LOW TONE BAR
ENCODING 745
SWIDTH 1500 0
DWIDTH 6 0
BBX 6 12 0 -2
BITMAP
00
00
00
00
00
04
04
04
04
7C
00
00
ENDCHAR
STARTCHAR MODIFIER LETTER YIN DEPARTING TONE MARK
ENCODING 746
SWIDTH 1500 0
DWIDTH 6 0
BBX 6 12 0 -2
BITMAP
00
00
00
00
00
40
40
40
40
7C
00
00
ENDCHAR
STARTCHAR MODIFIER LETTER YANG DEPARTING TONE MARK
ENCODING 747
SWIDTH 1500 0
DWIDTH 6 0
BBX 6 12 0 -2
BITMAP
00
00
00
00
00
40
40
7C
40
40
00
00
ENDCHAR
STARTCHAR MODIFIER LETTER VOICING
ENCODING 748
SWIDTH 1500 0
DWIDTH 6 0
BBX 6 12 0 -2
BITMAP
00
00
00
00
00
00
00
00
00
00
28
10
ENDCHAR
STARTCHAR MODIFIER LETTER UNASPIRATED
ENCODING 749
SWIDTH 1500 0
DWIDTH 6 0
BBX 6 12 0 -2
BITMAP
7C
00
7C
00
00
00
00
00
00
00
00
00
ENDCHAR
STARTCHAR MODIFIER LETTER DOUBLE APOSTROPHE
ENCODING 750
SWIDTH 1500 0
DWIDTH 6 0
BBX 6 12 0 -2
BITMAP
28
28
50
00
00
00
00
00
00
00
00
00
ENDCHAR
STARTCHAR GREEK YPOGEGRAMMENI
ENCODING 890
SWIDTH 1500 0
DWIDTH 6 0
BBX 6 12 0 -2
BITMAP
00
00
00
00
00
00
00
00
00
00
10
10
ENDCHAR
STARTCHAR GREEK QUESTION MARK
ENCODING 894
SWIDTH 1500 0
DWIDTH 6 0
BBX 6 12 0 -2
BITMAP
00
00
00
00
00
10
00
00
00
10
20
00
ENDCHAR
STARTCHAR GREEK TONOS
ENCODING 900
SWIDTH 1500 0
DWIDTH 6 0
BBX 6 12 0 -2
BITMAP
08
10
00
00
00
00
00
00
00
00
00
00
ENDCHAR
STARTCHAR GREEK DIALYTIKA TONOS
ENCODING 901
SWIDTH 1500 0
DWIDTH 6 0
BBX 6 12 0 -2
BITMAP
08
10
44
00
00
00
00
00
00
00
00
00
ENDCHAR
STARTCHAR GREEK CAPITAL LETTER ALPHA WITH TONOS
ENCODING 902
SWIDTH 1500 0
DWIDTH 6 0
BBX 6 12 0 -2
BITMAP
00
00
40
B8
44
44
44
7C
44
44
00
00
ENDCHAR
STARTCHAR GREEK CAPITAL LETTER EPSILON WITH TONOS
ENCODING 904
SWIDTH 1500 0
DWIDTH 6 0
BBX 6 12 0 -2
BITMAP
00
00
40
BC
40
40
70
40
40
7C
00
00
ENDCHAR
STARTCHAR GREEK CAPITAL LETTER ETA WITH TONOS
ENCODING 905
SWIDTH 1500 0
DWIDTH 6 0
BBX 6 12 0 -2
BITMAP
00
00
40
84
44
44
7C
44
44
44
00
00
ENDCHAR
STARTCHAR GREEK CAPITAL LETTER IOTA WITH TONOS
ENCODING 906
SWIDTH 1500 0
DWIDTH 6 0
BBX 6 12 0 -2
BITMAP
00
00
20
5C
08
08
08
08
08
1C
00
00
ENDCHAR
STARTCHAR GREEK CAPITAL LETTER OMICRON WITH TONOS
ENCODING 908
SWIDTH 1500 0
DWIDTH 6 0
BBX 6 12 0 -2
BITMAP
00
00
40
B8
44
44
44
44
44
38
00
00
ENDCHAR
STARTCHAR GREEK CAPITAL LETTER UPSILON WITH TONOS
ENCODING 910
SWIDTH 1500 0
DWIDTH 6 0
BBX 6 12 0 -2
BITMAP
00
00
40
84
44
28
10
10
10
10
00
00
ENDCHAR
STARTCHAR GREEK CAPITAL LETTER OMEGA WITH TONOS
ENCODING 911
SWIDTH 1500 0
DWIDTH 6 0
BBX 6 12 0 -2
BITMAP
00
00
40
B8
44
44
44
44
28
6C
00
00
ENDCHAR
STARTCHAR GREEK SMALL LETTER IOTA WITH DIALYTIKA AND TONOS
ENCODING 912
SWIDTH 1500 0
DWIDTH 6 0
BBX 6 12 0 -2
BITMAP
08
10
00
28
00
10
10
10
10
08
00
00
ENDCHAR
STARTCHAR GREEK CAPITAL LETTER ALPHA
ENCODING 913
SWIDTH 1500 0
DWIDTH 6 0
BBX 6 12 0 -2
BITMAP
00
00
00
38
44
44
44
7C
44
44
00
00
ENDCHAR
STARTCHAR GREEK CAPITAL LETTER BETA
ENCODING 914
SWIDTH 1500 0
DWIDTH 6 0
BBX 6 12 0 -2
BITMAP
00
00
00
78
44
44
78
44
44
78
00
00
ENDCHAR
STARTCHAR GREEK CAPITAL LETTER GAMMA
ENCODING 915
SWIDTH 1500 0
DWIDTH 6 0
BBX 6 12 0 -2
BITMAP
00
00
00
7C
40
40
40
40
40
40
00
00
ENDCHAR
STARTCHAR GREEK CAPITAL LETTER DELTA
ENCODING 916
SWIDTH 1500 0
DWIDTH 6 0
BBX 6 12 0 -2
BITMAP
00
00
00
10
10
28
28
44
44
7C
00
00
ENDCHAR
STARTCHAR GREEK CAPITAL LETTER EPSILON
ENCODING 917
SWIDTH 1500 0
DWIDTH 6 0
BBX 6 12 0 -2
BITMAP
00
00
00
7C
40
40
70
40
40
7C
00
00
ENDCHAR
STARTCHAR GREEK CAPITAL LETTER ZETA
ENCODING 918
SWIDTH 1500 0
DWIDTH 6 0
BBX 6 12 0 -2
BITMAP
00
00
00
7C
04
08
10
20
40
7C
00
00
ENDCHAR
STARTCHAR GREEK CAPITAL LETTER ETA
ENCODING 919
SWIDTH 1500 0
DWIDTH 6 0
BBX 6 12 0 -2
BITMAP
00
00
00
44
44
44
7C
44
44
44
00
00
ENDCHAR
STARTCHAR GREEK CAPITAL LETTER THETA
ENCODING 920
SWIDTH 1500 0
DWIDTH 6 0
BBX 6 12 0 -2
BITMAP
00
00
00
38
44
44
7C
44
44
38
00
00
ENDCHAR
STARTCHAR GREEK CAPITAL LETTER IOTA
ENCODING 921
SWIDTH 1500 0
DWIDTH 6 0
BBX 6 12 0 -2
BITMAP
00
00
00
38
10
10
10
10
10
38
00
00
ENDCHAR
STARTCHAR GREEK CAPITAL LETTER KAPPA
ENCODING 922
SWIDTH 1500 0
DWIDTH 6 0
BBX 6 12 0 -2
BITMAP
00
00
00
44
48
50
60
50
48
44
00
00
ENDCHAR
STARTCHAR GREEK CAPITAL LETTER LAMDA
ENCODING 923
SWIDTH 1500 0
DWIDTH 6 0
BBX 6 12 0 -2
BITMAP
00
00
00
10
10
28
28
44
44
44
00
00
ENDCHAR
STARTCHAR GREEK CAPITAL LETTER MU
ENCODING 924
SWIDTH 1500 0
DWIDTH 6 0
BBX 6 12 0 -2
BITMAP
00
00
00
44
6C
54
44
44
44
44
00
00
ENDCHAR
STARTCHAR GREEK CAPITAL LETTER NU
ENCODING 925
SWIDTH 1500 0
DWIDTH 6 0
BBX 6 12 0 -2
BITMAP
00
00
00
44
44
64
54
4C
44
44
00
00
ENDCHAR
STARTCHAR GREEK CAPITAL LETTER XI
ENCODING 926
SWIDTH 1500 0
DWIDTH 6 0
BBX 6 12 0 -2
BITMAP
00
00
00
7C
00
00
38
00
00
7C
00
00
ENDCHAR
STARTCHAR GREEK CAPITAL LETTER OMICRON
ENCODING 927
SWIDTH 1500 0
DWIDTH 6 0
BBX 6 12 0 -2
BITMAP
00
00
00
38
44
44
44
44
44
38
00
00
ENDCHAR
STARTCHAR GREEK CAPITAL LETTER PI
ENCODING 928
SWIDTH 1500 0
DWIDTH 6 0
BBX 6 12 0 -2
BITMAP
00
00
00
7C
44
44
44
44
44
44
00
00
ENDCHAR
STARTCHAR GREEK CAPITAL LETTER RHO
ENCODING 929
SWIDTH 1500 0
DWIDTH 6 0
BBX 6 12 0 -2
BITMAP
00
00
00
78
44
44
44
78
40
40
00
00
ENDCHAR
STARTCHAR GREEK CAPITAL LETTER SIGMA
ENCODING 931
SWIDTH 1500 0
DWIDTH 6 0
BBX 6 12 0 -2
BITMAP
00
00
00
7C
40
20
10
20
40
7C
00
00
ENDCHAR
STARTCHAR GREEK CAPITAL LETTER TAU
ENCODING 932
SWIDTH 1500 0
DWIDTH 6 0
BBX 6 12 0 -2
BITMAP
00
00
00
7C
10
10
10
10
10
10
00
00
ENDCHAR
STARTCHAR GREEK CAPITAL LETTER UPSILON
ENCODING 933
SWIDTH 1500 0
DWIDTH 6 0
BBX 6 12 0 -2
BITMAP
00
00
00
44
44
28
10
10
10
10
00
00
ENDCHAR
STARTCHAR GREEK CAPITAL LETTER PHI
ENCODING 934
SWIDTH 1500 0
DWIDTH 6 0
BBX 6 12 0 -2
BITMAP
00
00
00
10
38
54
54
54
38
10
00
00
ENDCHAR
STARTCHAR GREEK CAPITAL LETTER CHI
ENCODING 935
SWIDTH 1500 0
DWIDTH 6 0
BBX 6 12 0 -2
BITMAP
00
00
00
44
44
28
10
28
44
44
00
00
ENDCHAR
STARTCHAR GREEK CAPITAL LETTER PSI
ENCODING 936
SWIDTH 1500 0
DWIDTH 6 0
BBX 6 12 0 -2
BITMAP
00
00
00
54
54
54
38
10
10
10
00
00
ENDCHAR
STARTCHAR GREEK CAPITAL LETTER OMEGA
ENCODING 937
SWIDTH 1500 0
DWIDTH 6 0
BBX 6 12 0 -2
BITMAP
00
00
00
38
44
44
44
44
28
6C
00
00
ENDCHAR
STARTCHAR GREEK CAPITAL LETTER IOTA WITH DIALYTIKA
ENCODING 938
SWIDTH 1500 0
DWIDTH 6 0
BBX 6 12 0 -2
BITMAP
00
28
00
38
10
10
10
10
10
38
00
00
ENDCHAR
STARTCHAR GREEK CAPITAL LETTER UPSILON WITH DIALYTIKA
ENCODING 939
SWIDTH 1500 0
DWIDTH 6 0
BBX 6 12 0 -2
BITMAP
00
28
00
44
44
28
10
10
10
10
00
00
ENDCHAR
STARTCHAR GREEK SMALL LETTER ALPHA WITH TONOS
ENCODING 940
SWIDTH 1500 0
DWIDTH 6 0
BBX 6 12 0 -2
BITMAP
00
00
08
10
00
34
48
48
48
34
00
00
ENDCHAR
STARTCHAR GREEK SMALL LETTER EPSILON WITH TONOS
ENCODING 941
SWIDTH 1500 0
DWIDTH 6 0
BBX 6 12 0 -2
BITMAP
00
00
08
10
00
3C
40
30
40
3C
00
00
ENDCHAR
STARTCHAR GREEK SMALL LETTER ETA WITH TONOS
ENCODING 942
SWIDTH 1500 0
DWIDTH 6 0
BBX 6 12 0 -2
BITMAP
00
00
08
10
00
58
64
44
44
44
04
04
ENDCHAR
STARTCHAR GREEK SMALL LETTER IOTA WITH TONOS
ENCODING 943
SWIDTH 1500 0
DWIDTH 6 0
BBX 6 12 0 -2
BITMAP
00
00
08
10
00
10
10
10
10
08
00
00
ENDCHAR
STARTCHAR GREEK SMALL LETTER UPSILON WITH DIALYTIKA AND TONOS
ENCODING 944
SWIDTH 1500 0
DWIDTH 6 0
BBX 6 12 0 -2
BITMAP
08
10
00
28
00
44
44
44
44
38
00
00
ENDCHAR
STARTCHAR GREEK SMALL LETTER ALPHA
ENCODING 945
SWIDTH 1500 0
DWIDTH 6 0
BBX 6 12 0 -2
BITMAP
00
00
00
00
00
34
48
48
48
34
00
00
ENDCHAR
STARTCHAR GREEK SMALL LETTER BETA
ENCODING 946
SWIDTH 1500 0
DWIDTH 6 0
BBX 6 12 0 -2
BITMAP
00
00
30
48
48
50
48
44
44
58
40
40
ENDCHAR
STARTCHAR GREEK SMALL LETTER GAMMA
ENCODING 947
SWIDTH 1500 0
DWIDTH 6 0
BBX 6 12 0 -2
BITMAP
00
00
00
00
00
44
44
28
28
10
10
10
ENDCHAR
STARTCHAR GREEK SMALL LETTER DELTA
ENCODING 948
SWIDTH 1500 0
DWIDTH 6 0
BBX 6 12 0 -2
BITMAP
00
00
38
40
20
38
44
44
44
38
00
00
ENDCHAR
STARTCHAR GREEK SMALL LETTER EPSILON
ENCODING 949
SWIDTH 1500 0
DWIDTH 6 0
BBX 6 12 0 -2
BITMAP
00
00
00
00
00
3C
40
30
40
3C
00
00
ENDCHAR
STARTCHAR GREEK SMALL LETTER ZETA
ENCODING 950
SWIDTH 1500 0
DWIDTH 6 0
BBX 6 12 0 -2
BITMAP
00
00
7C
04
08
10
20
40
40
38
04
00
ENDCHAR
STARTCHAR GREEK SMALL LETTER ETA
ENCODING 951
SWIDTH 1500 0
DWIDTH 6 0
BBX 6 12 0 -2
BITMAP
00
00
00
00
00
58
64
44
44
44
04
04
ENDCHAR
STARTCHAR GREEK SMALL LETTER THETA
ENCODING 952
SWIDTH 1500 0
DWIDTH 6 0
BBX 6 12 0 -2
BITMAP
00
00
38
44
44
7C
44
44
44
38
00
00
ENDCHAR
STARTCHAR GREEK SMALL LETTER IOTA
ENCODING 953
SWIDTH 1500 0
DWIDTH 6 0
BBX 6 12 0 -2
BITMAP
00
00
00
00
00
10
10
10
10
08
00
00
ENDCHAR
STARTCHAR GREEK SMALL LETTER KAPPA
ENCODING 954
SWIDTH 1500 0
DWIDTH 6 0
BBX 6 12 0 -2
BITMAP
00
00
00
00
00
24
28
30
28
24
00
00
ENDCHAR
STARTCHAR GREEK SMALL LETTER LAMDA
ENCODING 955
SWIDTH 1500 0
DWIDTH 6 0
BBX 6 12 0 -2
BITMAP
00
00
20
10
10
10
28
28
44
44
00
00
ENDCHAR
STARTCHAR GREEK SMALL LETTER MU
ENCODING 956
SWIDTH 1500 0
DWIDTH 6 0
BBX 6 12 0 -2
BITMAP
00
00
00
00
00
44
44
44
44
78
40
40
ENDCHAR
STARTCHAR GREEK SMALL LETTER NU
ENCODING 957
SWIDTH 1500 0
DWIDTH 6 0
BBX 6 12 0 -2
BITMAP
00
00
00
00
00
44
44
24
28
10
00
00
ENDCHAR
STARTCHAR GREEK SMALL LETTER XI
ENCODING 958
SWIDTH 1500 0
DWIDTH 6 0
BBX 6 12 0 -2
BITMAP
00
00
3C
10
20
18
20
40
40
38
04
00
ENDCHAR
STARTCHAR GREEK SMALL LETTER OMICRON
ENCODING 959
SWIDTH 1500 0
DWIDTH 6 0
BBX 6 12 0 -2
BITMAP
00
00
00
00
00
38
44
44
44
38
00
00
ENDCHAR
STARTCHAR GREEK SMALL LETTER PI
ENCODING 960
SWIDTH 1500 0
DWIDTH 6 0
BBX 6 12 0 -2
BITMAP
00
00
00
00
00
7C
28
28
28
4C
00
00
ENDCHAR
STARTCHAR GREEK SMALL LETTER RHO
ENCODING 961
SWIDTH 1500 0
DWIDTH 6 0
BBX 6 12 0 -2
BITMAP
00
00
00
00
00
38
44
44
44
78
40
40
ENDCHAR
STARTCHAR GREEK SMALL LETTER FINAL SIGMA
ENCODING 962
SWIDTH 1500 0
DWIDTH 6 0
BBX 6 12 0 -2
BITMAP
00
00
00
00
00
3C
40
40
40
38
04
00
ENDCHAR
STARTCHAR GREEK SMALL LETTER SIGMA
ENCODING 963
SWIDTH 1500 0
DWIDTH 6 0
BBX 6 12 0 -2
BITMAP
00
00
00
00
00
3C
48
44
44
38
00
00
ENDCHAR
STARTCHAR GREEK SMALL LETTER TAU
ENCODING 964
SWIDTH 1500 0
DWIDTH 6 0
BBX 6 12 0 -2
BITMAP
00
00
00
00
00
7C
10
10
10
08
00
00
ENDCHAR
STARTCHAR GREEK SMALL LETTER UPSILON
ENCODING 965
SWIDTH 1500 0
DWIDTH 6 0
BBX 6 12 0 -2
BITMAP
00
00
00
00
00
44
44
44
44
38
00
00
ENDCHAR
STARTCHAR GREEK SMALL LETTER PHI
ENCODING 966
SWIDTH 1500 0
DWIDTH 6 0
BBX 6 12 0 -2
BITMAP
00
00
00
00
00
08
54
54
54
38
10
10
ENDCHAR
STARTCHAR GREEK SMALL LETTER CHI
ENCODING 967
SWIDTH 1500 0
DWIDTH 6 0
BBX 6 12 0 -2
BITMAP
00
00
00
00
00
64
14
18
10
30
50
4C
ENDCHAR
STARTCHAR GREEK SMALL LETTER PSI
ENCODING 968
SWIDTH 1500 0
DWIDTH 6 0
BBX 6 12 0 -2
BITMAP
00
00
00
10
10
54
54
54
54
38
10
10
ENDCHAR
STARTCHAR GREEK SMALL LETTER OMEGA
ENCODING 969
SWIDTH 1500 0
DWIDTH 6 0
BBX 6 12 0 -2
BITMAP
00
00
00
00
00
28
44
54
54
28
00
00
ENDCHAR
STARTCHAR GREEK SMALL LETTER IOTA WITH DIALYTIKA
ENCODING 970
SWIDTH 1500 0
DWIDTH 6 0
BBX 6 12 0 -2
BITMAP
00
00
00
28
00
10
10
10
10
08
00
00
ENDCHAR
STARTCHAR GREEK SMALL LETTER UPSILON WITH DIALYTIKA
ENCODING 971
SWIDTH 1500 0
DWIDTH 6 0
BBX 6 12 0 -2
BITMAP
00
00
00
28
00
44
44
44
44
38
00
00
ENDCHAR
STARTCHAR GREEK SMALL LETTER OMICRON WITH TONOS
ENCODING 972
SWIDTH 1500 0
DWIDTH 6 0
BBX 6 12 0 -2
BITMAP
00
00
08
10
00
38
44
44
44
38
00
00
ENDCHAR
STARTCHAR GREEK SMALL LETTER UPSILON WITH TONOS
ENCODING 973
SWIDTH 1500 0
DWIDTH 6 0
BBX 6 12 0 -2
BITMAP
00
00
08
10
00
44
44
44
44
38
00
00
ENDCHAR
STARTCHAR GREEK SMALL LETTER OMEGA WITH TONOS
ENCODING 974
SWIDTH 1500 0
DWIDTH 6 0
BBX 6 12 0 -2
BITMAP
00
00
08
10
00
28
44
54
54
28
00
00
ENDCHAR
STARTCHAR CYRILLIC CAPITAL LETTER IE WITH GRAVE
ENCODING 1024
SWIDTH 1500 0
DWIDTH 6 0
BBX 6 12 0 -2
BITMAP
20
10
00
7C
40
40
70
40
40
7C
00
00
ENDCHAR
STARTCHAR CYRILLIC CAPITAL LETTER IO
ENCODING 1025
SWIDTH 1500 0
DWIDTH 6 0
BBX 6 12 0 -2
BITMAP
00
28
00
7C
40
40
70
40
40
7C
00
00
ENDCHAR
STARTCHAR CYRILLIC CAPITAL LETTER DJE
ENCODING 1026
SWIDTH 1500 0
DWIDTH 6 0
BBX 6 12 0 -2
BITMAP
00
00
00
F0
40
40
78
44
44
44
08
00
ENDCHAR
STARTCHAR CYRILLIC CAPITAL LETTER GJE
ENCODING 1027
SWIDTH 1500 0
DWIDTH 6 0
BBX 6 12 0 -2
BITMAP
08
10
00
7C
40
40
40
40
40
40
00
00
ENDCHAR
STARTCHAR CYRILLIC CAPITAL LETTER UKRAINIAN IE
ENCODING 1028
SWIDTH 1500 0
DWIDTH 6 0
BBX 6 12 0 -2
BITMAP
00
00
00
3C
40
40
70
40
40
3C
00
00
ENDCHAR
STARTCHAR CYRILLIC CAPITAL LETTER DZE
ENCODING 1029
SWIDTH 1500 0
DWIDTH 6 0
BBX 6 12 0 -2
BITMAP
00
00
00
3C
40
40
38
04
04
78
00
00
ENDCHAR
STARTCHAR CYRILLIC CAPITAL LETTER BYELORUSSIAN-UKRAINIAN I
ENCODING 1030
SWIDTH 1500 0
DWIDTH 6 0
BBX 6 12 0 -2
BITMAP
00
00
00
38
10
10
10
10
10
38
00
00
ENDCHAR
STARTCHAR CYRILLIC CAPITAL LETTER YI
ENCODING 1031
SWIDTH 1500 0
DWIDTH 6 0
BBX 6 12 0 -2
BITMAP
00
28
00
38
10
10
10
10
10
38
00
00
ENDCHAR
STARTCHAR CYRILLIC CAPITAL LETTER JE
ENCODING 1032
SWIDTH 1500 0
DWIDTH 6 0
BBX 6 12 0 -2
BITMAP
00
00
00
04
04
04
04
04
44
38
00
00
ENDCHAR
STARTCHAR CYRILLIC CAPITAL LETTER LJE
ENCODING 1033
SWIDTH 1500 0
DWIDTH 6 0
BBX 6 12 0 -2
BITMAP
00
00
00
30
50
50
58
54
54
98
00
00
ENDCHAR
STARTCHAR CYRILLIC CAPITAL LETTER NJE
ENCODING 1034
SWIDTH 1500 0
DWIDTH 6 0
BBX 6 12 0 -2
BITMAP
00
00
00
50
50
50
78
54
54
58
00
00
ENDCHAR
STARTCHAR CYRILLIC CAPITAL LETTER TSHE
ENCODING 1035
SWIDTH 1500 0
DWIDTH 6 0
BBX 6 12 0 -2
BITMAP
00
00
00
F0
40
40
78
44
44
44
00
00
ENDCHAR
STARTCHAR CYRILLIC CAPITAL LETTER KJE
ENCODING 1036
SWIDTH 1500 0
DWIDTH 6 0
BBX 6 12 0 -2
BITMAP
08
10
00
44
48
50
60
50
48
44
00
00
ENDCHAR
STARTCHAR CYRILLIC CAPITAL LETTER I WITH GRAVE
ENCODING 1037
SWIDTH 1500 0
DWIDTH 6 0
BBX 6 12 0 -2
BITMAP
20
10
00
44
44
4C
54
64
44
44
00
00
ENDCHAR
STARTCHAR CYRILLIC CAPITAL LETTER SHORT U
ENCODING 1038
SWIDTH 1500 0
DWIDTH 6 0
BBX 6 12 0 -2
BITMAP
44
38
00
44
44
44
3C
04
04
18
00
00
ENDCHAR
STARTCHAR CYRILLIC CAPITAL LETTER DZHE
ENCODING 1039
SWIDTH 1500 0
DWIDTH 6 0
BBX 6 12 0 -2
BITMAP
00
00
00
44
44
44
44
44
44
7C
10
00
ENDCHAR
STARTCHAR CYRILLIC CAPITAL LETTER A
ENCODING 1040
SWIDTH 1500 0
DWIDTH 6 0
BBX 6 12 0 -2
BITMAP
00
00
00
38
44
44
44
7C
44
44
00
00
ENDCHAR
STARTCHAR CYRILLIC CAPITAL LETTER BE
ENCODING 1041
SWIDTH 1500 0
DWIDTH 6 0
BBX 6 12 0 -2
BITMAP
00
00
00
78
40
40
78
44
44
78
00
00
ENDCHAR
STARTCHAR CYRILLIC CAPITAL LETTER VE
ENCODING 1042
SWIDTH 1500 0
DWIDTH 6 0
BBX 6 12 0 -2
BITMAP
00
00
00
78
44
44
78
44
44
78
00
00
ENDCHAR
STARTCHAR CYRILLIC CAPITAL LETTER GHE
ENCODING 1043
SWIDTH 1500 0
DWIDTH 6 0
BBX 6 12 0 -2
BITMAP
00
00
00
7C
40
40
40
40
40
40
00
00
ENDCHAR
STARTCHAR CYRILLIC CAPITAL LETTER DE
ENCODING 1044
SWIDTH 1500 0
DWIDTH 6 0
BBX 6 12 0 -2
BITMAP
00
00
00
38
48
48
48
48
48
FC
84
00
ENDCHAR
STARTCHAR CYRILLIC CAPITAL LETTER IE
ENCODING 1045
SWIDTH 1500 0
DWIDTH 6 0
BBX 6 12 0 -2
BITMAP
00
00
00
7C
40
40
70
40
40
7C
00
00
ENDCHAR
STARTCHAR CYRILLIC CAPITAL LETTER ZHE
ENCODING 1046
SWIDTH 1500 0
DWIDTH 6 0
BBX 6 12 0 -2
BITMAP
00
00
00
54
54
54
38
54
54
54
00
00
ENDCHAR
STARTCHAR CYRILLIC CAPITAL LETTER ZE
ENCODING 1047
SWIDTH 1500 0
DWIDTH 6 0
BBX 6 12 0 -2
BITMAP
00
00
00
78
04
04
18
04
04
78
00
00
ENDCHAR
STARTCHAR CYRILLIC CAPITAL LETTER I
ENCODING 1048
SWIDTH 1500 0
DWIDTH 6 0
BBX 6 12 0 -2
BITMAP
00
00
00
44
44
4C
54
64
44
44
00
00
ENDCHAR
STARTCHAR CYRILLIC CAPITAL LETTER SHORT I
ENCODING 1049
SWIDTH 1500 0
DWIDTH 6 0
BBX 6 12 0 -2
BITMAP
44
38
00
44
44
4C
54
64
44
44
00
00
ENDCHAR
STARTCHAR CYRILLIC CAPITAL LETTER KA
ENCODING 1050
SWIDTH 1500 0
DWIDTH 6 0
BBX 6 12 0 -2
BITMAP
00
00
00
44
48
50
60
50
48
44
00
00
ENDCHAR
STARTCHAR CYRILLIC CAPITAL LETTER EL
ENCODING 1051
SWIDTH 1500 0
DWIDTH 6 0
BBX 6 12 0 -2
BITMAP
00
00
00
1C
24
24
24
24
24
44
00
00
ENDCHAR
STARTCHAR CYRILLIC CAPITAL LETTER EM
ENCODING 1052
SWIDTH 1500 0
DWIDTH 6 0
BBX 6 12 0 -2
BITMAP
00
00
00
44
6C
54
44
44
44
44
00
00
ENDCHAR
STARTCHAR CYRILLIC CAPITAL LETTER EN
ENCODING 1053
SWIDTH 1500 0
DWIDTH 6 0
BBX 6 12 0 -2
BITMAP
00
00
00
44
44
44
7C
44
44
44
00
00
ENDCHAR
STARTCHAR CYRILLIC CAPITAL LETTER O
ENCODING 1054
SWIDTH 1500 0
DWIDTH 6 0
BBX 6 12 0 -2
BITMAP
00
00
00
38
44
44
44
44
44
38
00
00
ENDCHAR
STARTCHAR CYRILLIC CAPITAL LETTER PE
ENCODING 1055
SWIDTH 1500 0
DWIDTH 6 0
BBX 6 12 0 -2
BITMAP
00
00
00
7C
44
44
44
44
44
44
00
00
ENDCHAR
STARTCHAR CYRILLIC CAPITAL LETTER ER
ENCODING 1056
SWIDTH 1500 0
DWIDTH 6 0
BBX 6 12 0 -2
BITMAP
00
00
00
78
44
44
44
78
40
40
00
00
ENDCHAR
STARTCHAR CYRILLIC CAPITAL LETTER ES
ENCODING 1057
SWIDTH 1500 0
DWIDTH 6 0
BBX 6 12 0 -2
BITMAP
00
00
00
3C
40
40
40
40
40
3C
00
00
ENDCHAR
STARTCHAR CYRILLIC CAPITAL LETTER TE
ENCODING 1058
SWIDTH 1500 0
DWIDTH 6 0
BBX 6 12 0 -2
BITMAP
00
00
00
7C
10
10
10
10
10
10
00
00
ENDCHAR
STARTCHAR CYRILLIC CAPITAL LETTER U
ENCODING 1059
SWIDTH 1500 0
DWIDTH 6 0
BBX 6 12 0 -2
BITMAP
00
00
00
44
44
44
3C
04
04
18
00
00
ENDCHAR
STARTCHAR CYRILLIC CAPITAL LETTER EF
ENCODING 1060
SWIDTH 1500 0
DWIDTH 6 0
BBX 6 12 0 -2
BITMAP
00
00
00
10
38
54
54
54
38
10
00
00
ENDCHAR
STARTCHAR CYRILLIC CAPITAL LETTER HA
ENCODING 1061
SWIDTH 1500 0
DWIDTH 6 0
BBX 6 12 0 -2
BITMAP
00
00
00
44
44
28
10
28
44
44
00
00
ENDCHAR
STARTCHAR CYRILLIC CAPITAL LETTER TSE
ENCODING 1062
SWIDTH 1500 0
DWIDTH 6 0
BBX 6 12 0 -2
BITMAP
00
00
00
44
44
44
44
44
44
7C
04
00
ENDCHAR
STARTCHAR CYRILLIC CAPITAL LETTER CHE
ENCODING 1063
SWIDTH 1500 0
DWIDTH 6 0
BBX 6 12 0 -2
BITMAP
00
00
00
44
44
44
3C
04
04
04
00
00
ENDCHAR
STARTCHAR CYRILLIC CAPITAL LETTER SHA
ENCODING 1064
SWIDTH 1500 0
DWIDTH 6 0
BBX 6 12 0 -2
BITMAP
00
00
00
54
54
54
54
54
54
7C
00
00
ENDCHAR
STARTCHAR CYRILLIC CAPITAL LETTER SHCHA
ENCODING 1065
SWIDTH 1500 0
DWIDTH 6 0
BBX 6 12 0 -2
BITMAP
00
00
00
54
54
54
54
54
54
7C
04
00
ENDCHAR
STARTCHAR CYRILLIC CAPITAL LETTER HARD SIGN
ENCODING 1066
SWIDTH 1500 0
DWIDTH 6 0
BBX 6 12 0 -2
BITMAP
00
00
00
C0
40
40
78
44
44
78
00
00
ENDCHAR
STARTCHAR CYRILLIC CAPITAL LETTER YERU
ENCODING 1067
SWIDTH 1500 0
DWIDTH 6 0
BBX 6 12 0 -2
BITMAP
00
00
00
44
44
44
74
4C
4C
74
00
00
ENDCHAR
STARTCHAR CYRILLIC CAPITAL LETTER SOFT SIGN
ENCODING 1068
SWIDTH 1500 0
DWIDTH 6 0
BBX 6 12 0 -2
BITMAP
00
00
00
40
40
40
78
44
44
78
00
00
ENDCHAR
STARTCHAR CYRILLIC CAPITAL LETTER E
ENCODING 1069
SWIDTH 1500 0
DWIDTH 6 0
BBX 6 12 0 -2
BITMAP
00
00
00
78
04
04
1C
04
04
78
00
00
ENDCHAR
STARTCHAR CYRILLIC CAPITAL LETTER YU
ENCODING 1070
SWIDTH 1500 0
DWIDTH 6 0
BBX 6 12 0 -2
BITMAP
00
00
00
48
54
54
74
54
54
48
00
00
ENDCHAR
STARTCHAR CYRILLIC CAPITAL LETTER YA
ENCODING 1071
SWIDTH 1500 0
DWIDTH 6 0
BBX 6 12 0 -2
BITMAP
00
00
00
3C
44
44
44
3C
24
44
00
00
ENDCHAR
STARTCHAR CYRILLIC SMALL LETTER A
ENCODING 1072
SWIDTH 1500 0
DWIDTH 6 0
BBX 6 12 0 -2
BITMAP
00
00
00
00
00
00
3C
44
44
4C
34
00
ENDCHAR
STARTCHAR CYRILLIC SMALL LETTER BE
ENCODING 1073
SWIDTH 1500 0
DWIDTH 6 0
BBX 6 12 0 -2
BITMAP
00
04
18
20
40
78
44
44
44
38
00
00
ENDCHAR
STARTCHAR CYRILLIC SMALL LETTER VE
ENCODING 1074
SWIDTH 1500 0
DWIDTH 6 0
BBX 6 12 0 -2
BITMAP
00
00
00
00
00
78
44
78
44
78
00
00
ENDCHAR
STARTCHAR CYRILLIC SMALL LETTER GHE
ENCODING 1075
SWIDTH 1500 0
DWIDTH 6 0
BBX 6 12 0 -2
BITMAP
00
00
00
00
00
7C
40
40
40
40
00
00
ENDCHAR
STARTCHAR CYRILLIC SMALL LETTER DE
ENCODING 1076
SWIDTH 1500 0
DWIDTH 6 0
BBX 6 12 0 -2
BITMAP
00
00
00
00
00
18
28
28
28
7C
44
00
ENDCHAR
STARTCHAR CYRILLIC SMALL LETTER IE
ENCODING 1077
SWIDTH 1500 0
DWIDTH 6 0
BBX 6 12 0 -2
BITMAP
00
00
00
00
00
38
44
7C
40
38
00
00
ENDCHAR
STARTCHAR CYRILLIC SMALL LETTER ZHE
ENCODING 1078
SWIDTH 1500 0
DWIDTH 6 0
BBX 6 12 0 -2
BITMAP
00
00
00
00
00
54
54
38
54
54
00
00
ENDCHAR
STARTCHAR CYRILLIC SMALL LETTER ZE
ENCODING 1079
SWIDTH 1500 0
DWIDTH 6 0
BBX 6 12 0 -2
BITMAP
00
00
00
00
00
78
04
18
04
78
00
00
ENDCHAR
STARTCHAR CYRILLIC SMALL LETTER I
ENCODING 1080
SWIDTH 1500 0
DWIDTH 6 0
BBX 6 12 0 -2
BITMAP
00
00
00
00
00
44
4C
54
64
44
00
00
ENDCHAR
STARTCHAR CYRILLIC SMALL LETTER SHORT I
ENCODING 1081
SWIDTH 1500 0
DWIDTH 6 0
BBX 6 12 0 -2
BITMAP
00
00
44
38
00
44
4C
54
64
44
00
00
ENDCHAR
STARTCHAR CYRILLIC SMALL LETTER KA
ENCODING 1082
SWIDTH 1500 0
DWIDTH 6 0
BBX 6 12 0 -2
BITMAP
00
00
00
00
00
24
28
30
28
24
00
00
ENDCHAR
STARTCHAR CYRILLIC SMALL LETTER EL
ENCODING 1083
SWIDTH 1500 0
DWIDTH 6 0
BBX 6 12 0 -2
BITMAP
00
00
00
00
00
1C
24
24
24
44
00
00
ENDCHAR
STARTCHAR CYRILLIC SMALL LETTER EM
ENCODING 1084
SWIDTH 1500 0
DWIDTH 6 0
BBX 6 12 0 -2
BITMAP
00
00
00
00
00
44
6C
54
44
44
00
00
ENDCHAR
STARTCHAR CYRILLIC SMALL LETTER EN
ENCODING 1085
SWIDTH 1500 0
DWIDTH 6 0
BBX 6 12 0 -2
BITMAP
00
00
00
00
00
44
44
7C
44
44
00
00
ENDCHAR
STARTCHAR CYRILLIC SMALL LETTER O
ENCODING 1086
SWIDTH 1500 0
DWIDTH 6 0
BBX 6 12 0 -2
BITMAP
00
00
00
00
00
38
44
44
44
38
00
00
ENDCHAR
STARTCHAR CYRILLIC SMALL LETTER PE
ENCODING 1087
SWIDTH 1500 0
DWIDTH 6 0
BBX 6 12 0 -2
BITMAP
00
00
00
00
00
7C
44
44
44
44
00
00
ENDCHAR
STARTCHAR CYRILLIC SMALL LETTER ER
ENCODING 1088
SWIDTH 1500 0
DWIDTH 6 0
BBX 6 12 0 -2
BITMAP
00
00
00
00
00
78
44
44
44
78
40
40
ENDCHAR
STARTCHAR CYRILLIC SMALL LETTER ES
ENCODING 1089
SWIDTH 1500 0
DWIDTH 6 0
BBX 6 12 0 -2
BITMAP
00
00
00
00
00
3C
40
40
40
3C
00
00
ENDCHAR
STARTCHAR CYRILLIC SMALL LETTER TE
ENCODING 1090
SWIDTH 1500 0
DWIDTH 6 0
BBX 6 12 0 -2
BITMAP
00
00
00
00
00
7C
10
10
10
10
00
00
ENDCHAR
STARTCHAR CYRILLIC SMALL LETTER U
ENCODING 1091
SWIDTH 1500 0
DWIDTH 6 0
BBX 6 12 0 -2
BITMAP
00
00
00
00
00
44
44
44
4C
34
04
18
ENDCHAR
STARTCHAR CYRILLIC SMALL LETTER EF
ENCODING 1092
SWIDTH 1500 0
DWIDTH 6 0
BBX 6 12 0 -2
BITMAP
00
00
00
10
10
38
54
54
54
38
10
10
ENDCHAR
STARTCHAR CYRILLIC SMALL LETTER HA
ENCODING 1093
SWIDTH 1500 0
DWIDTH 6 0
BBX 6 12 0 -2
BITMAP
00
00
00
00
00
44
28
10
28
44
00
00
ENDCHAR
STARTCHAR CYRILLIC SMALL LETTER TSE
ENCODING 1094
SWIDTH 1500 0
DWIDTH 6 0
BBX 6 12 0 -2
BITMAP
00
00
00
00
00
48
48
48
48
7C
04
00
ENDCHAR
STARTCHAR CYRILLIC SMALL LETTER CHE
ENCODING 1095
SWIDTH 1500 0
DWIDTH 6 0
BBX 6 12 0 -2
BITMAP
00
00
00
00
00
44
44
3C
04
04
00
00
ENDCHAR
STARTCHAR CYRILLIC SMALL LETTER SHA
ENCODING 1096
SWIDTH 1500 0
DWIDTH 6 0
BBX 6 12 0 -2
BITMAP
00
00
00
00
00
54
54
54
54
7C
00
00
ENDCHAR
STARTCHAR CYRILLIC SMALL LETTER SHCHA
ENCODING 1097
SWIDTH 1500 0
DWIDTH 6 0
BBX 6 12 0 -2
BITMAP
00
00
00
00
00
54
54
54
54
7C
04
00
ENDCHAR
STARTCHAR CYRILLIC SMALL LETTER HARD SIGN
ENCODING 1098
SWIDTH 1500 0
DWIDTH 6 0
BBX 6 12 0 -2
BITMAP
00
00
00
00
00
C0
40
78
44
78
00
00
ENDCHAR
STARTCHAR CYRILLIC SMALL LETTER YERU
ENCODING 1099
SWIDTH 1500 0
DWIDTH 6 0
BBX 6 12 0 -2
BITMAP
00
00
00
00
00
44
44
74
4C
74
00
00
ENDCHAR
STARTCHAR CYRILLIC SMALL LETTER SOFT SIGN
ENCODING 1100
SWIDTH 1500 0
DWIDTH 6 0
BBX 6 12 0 -2
BITMAP
00
00
00
00
00
40
40
78
44
78
00
00
ENDCHAR
STARTCHAR CYRILLIC SMALL LETTER E
ENCODING 1101
SWIDTH 1500 0
DWIDTH 6 0
BBX 6 12 0 -2
BITMAP
00
00
00
00
00
78
04
1C
04
78
00
00
ENDCHAR
STARTCHAR CYRILLIC SMALL LETTER YU
ENCODING 1102
SWIDTH 1500 0
DWIDTH 6 0
BBX 6 12 0 -2
BITMAP
00
00
00
00
00
48
54
74
54
48
00
00
ENDCHAR
STARTCHAR CYRILLIC SMALL LETTER YA
ENCODING 1103
SWIDTH 1500 0
DWIDTH 6 0
BBX 6 12 0 -2
BITMAP
00
00
00
00
00
3C
44
3C
24
44
00
00
ENDCHAR
STARTCHAR CYRILLIC SMALL LETTER IE WITH GRAVE
ENCODING 1104
SWIDTH 1500 0
DWIDTH 6 0
BBX 6 12 0 -2
BITMAP
00
00
20
10
00
38
44
7C
40
38
00
00
ENDCHAR
STARTCHAR CYRILLIC SMALL LETTER IO
ENCODING 1105
SWIDTH 1500 0
DWIDTH 6 0
BBX 6 12 0 -2
BITMAP
00
00
00
28
00
38
44
7C
40
38
00
00
ENDCHAR
STARTCHAR CYRILLIC SMALL LETTER DJE
ENCODING 1106
SWIDTH 1500 0
DWIDTH 6 0
BBX 6 12 0 -2
BITMAP
00
00
40
F0
40
58
64
44
44
44
04
08
ENDCHAR
STARTCHAR CYRILLIC SMALL LETTER GJE
ENCODING 1107
SWIDTH 1500 0
DWIDTH 6 0
BBX 6 12 0 -2
BITMAP
00
00
08
10
00
7C
40
40
40
40
00
00
ENDCHAR
STARTCHAR CYRILLIC SMALL LETTER UKRAINIAN IE
ENCODING 1108
SWIDTH 1500 0
DWIDTH 6 0
BBX 6 12 0 -2
BITMAP
00
00
00
00
00
3C
40
70
40
3C
00
00
ENDCHAR
STARTCHAR CYRILLIC SMALL LETTER DZE
ENCODING 1109
SWIDTH 1500 0
DWIDTH 6 0
BBX 6 12 0 -2
BITMAP
00
00
00
00
00
1C
20
18
04
38
00
00
ENDCHAR
STARTCHAR CYRILLIC SMALL LETTER BYELORUSSIAN-UKRAINIAN I
ENCODING 1110
SWIDTH 1500 0
DWIDTH 6 0
BBX 6 12 0 -2
BITMAP
00
00
00
10
00
30
10
10
10
10
00
00
ENDCHAR
STARTCHAR CYRILLIC SMALL LETTER YI
ENCODING 1111
SWIDTH 1500 0
DWIDTH 6 0
BBX 6 12 0 -2
BITMAP
00
00
00
28
00
30
10
10
10
10
00
00
ENDCHAR
STARTCHAR CYRILLIC SMALL LETTER JE
ENCODING 1112
SWIDTH 1500 0
DWIDTH 6 0
BBX 6 12 0 -2
BITMAP
00
00
00
10
00
30
10
10
10
10
10
20
ENDCHAR
STARTCHAR CYRILLIC SMALL LETTER LJE
ENCODING 1113
SWIDTH 1500 0
DWIDTH 6 0
BBX 6 12 0 -2
BITMAP
00
00
00
00
00
30
50
58
54
98
00
00
ENDCHAR
STARTCHAR CYRILLIC SMALL LETTER NJE
ENCODING 1114
SWIDTH 1500 0
DWIDTH 6 0
BBX 6 12 0 -2
BITMAP
00
00
00
00
00
50
50
78
54
58
00
00
ENDCHAR
STARTCHAR CYRILLIC SMALL LETTER TSHE
ENCODING 1115
SWIDTH 1500 0
DWIDTH 6 0
BBX 6 12 0 -2
BITMAP
00
00
40
F0
40
58
64
44
44
44
00
00
ENDCHAR
STARTCHAR CYRILLIC SMALL LETTER KJE
ENCODING 1116
SWIDTH 1500 0
DWIDTH 6 0
BBX 6 12 0 -2
BITMAP
00
00
08
10
00
24
28
30
28
24
00
00
ENDCHAR
STARTCHAR CYRILLIC SMALL LETTER I WITH GRAVE
ENCODING 1117
SWIDTH 1500 0
DWIDTH 6 0
BBX 6 12 0 -2
BITMAP
00
00
20
10
00
44
4C
54
64
44
00
00
ENDCHAR
STARTCHAR CYRILLIC SMALL LETTER SHORT U
ENCODING 1118
SWIDTH 1500 0
DWIDTH 6 0
BBX 6 12 0 -2
BITMAP
00
00
44
38
00
44
44
44
4C
34
04
18
ENDCHAR
STARTCHAR CYRILLIC SMALL LETTER DZHE
ENCODING 1119
SWIDTH 1500 0
DWIDTH 6 0
BBX 6 12 0 -2
BITMAP
00
00
00
00
00
44
44
44
44
7C
10
10
ENDCHAR
STARTCHAR CYRILLIC CAPITAL LETTER GHE WITH UPTURN
ENCODING 1168
SWIDTH 1500 0
DWIDTH 6 0
BBX 6 12 0 -2
BITMAP
00
00
04
7C
40
40
40
40
40
40
00
00
ENDCHAR
STARTCHAR CYRILLIC SMALL LETTER GHE WITH UPTURN
ENCODING 1169
SWIDTH 1500 0
DWIDTH 6 0
BBX 6 12 0 -2
BITMAP
00
00
00
00
04
7C
40
40
40
40
00
00
ENDCHAR
STARTCHAR CYRILLIC CAPITAL LETTER GHE WITH STROKE
ENCODING 1170
SWIDTH 1500 0
DWIDTH 6 0
BBX 6 12 0 -2
BITMAP
00
00
00
7C
40
40
F0
40
40
40
00
00
ENDCHAR
STARTCHAR CYRILLIC SMALL LETTER GHE WITH STROKE
ENCODING 1171
SWIDTH 1500 0
DWIDTH 6 0
BBX 6 12 0 -2
BITMAP
00
00
00
00
00
7C
40
F0
40
40
00
00
ENDCHAR
STARTCHAR CYRILLIC CAPITAL LETTER KA WITH DESCENDER
ENCODING 1178
SWIDTH 1500 0
DWIDTH 6 0
BBX 6 12 0 -2
BITMAP
00
00
00
44
48
50
60
50
48
44
04
00
ENDCHAR
STARTCHAR CYRILLIC SMALL LETTER KA WITH DESCENDER
ENCODING 1179
SWIDTH 1500 0
DWIDTH 6 0
BBX 6 12 0 -2
BITMAP
00
00
00
00
00
24
28
30
28
24
04
00
ENDCHAR
STARTCHAR CYRILLIC CAPITAL LETTER EN WITH DESCENDER
ENCODING 1186
SWIDTH 1500 0
DWIDTH 6 0
BBX 6 12 0 -2
BITMAP
00
00
00
48
48
48
78
48
48
4C
04
00
ENDCHAR
STARTCHAR CYRILLIC SMALL LETTER EN WITH DESCENDER
ENCODING 1187
SWIDTH 1500 0
DWIDTH 6 0
BBX 6 12 0 -2
BITMAP
00
00
00
00
00
48
48
78
48
4C
04
00
ENDCHAR
STARTCHAR CYRILLIC CAPITAL LETTER STRAIGHT U WITH STROKE
ENCODING 1200
SWIDTH 1500 0
DWIDTH 6 0
BBX 6 12 0 -2
BITMAP
00
00
00
44
44
28
10
38
10
10
00
00
ENDCHAR
STARTCHAR CYRILLIC SMALL LETTER STRAIGHT U WITH STROKE
ENCODING 1201
SWIDTH 1500 0
DWIDTH 6 0
BBX 6 12 0 -2
BITMAP
00
00
00
00
00
44
44
28
28
10
38
10
ENDCHAR
STARTCHAR CYRILLIC CAPITAL LETTER SHHA
ENCODING 1210
SWIDTH 1500 0
DWIDTH 6 0
BBX 6 12 0 -2
BITMAP
00
00
00
40
40
40
78
44
44
44
00
00
ENDCHAR
STARTCHAR CYRILLIC SMALL LETTER SHHA
ENCODING 1211
SWIDTH 1500 0
DWIDTH 6 0
BBX 6 12 0 -2
BITMAP
00
00
00
00
00
40
40
78
44
44
00
00
ENDCHAR
STARTCHAR CYRILLIC CAPITAL LETTER SCHWA
ENCODING 1240
SWIDTH 1500 0
DWIDTH 6 0
BBX 6 12 0 -2
BITMAP
00
00
00
38
04
04
7C
44
44
38
00
00
ENDCHAR
STARTCHAR CYRILLIC SMALL LETTER SCHWA
ENCODING 1241
SWIDTH 1500 0
DWIDTH 6 0
BBX 6 12 0 -2
BITMAP
00
00
00
00
00
38
04
7C
44
38
00
00
ENDCHAR
STARTCHAR CYRILLIC CAPITAL LETTER BARRED O
ENCODING 1256
SWIDTH 1500 0
DWIDTH 6 0
BBX 6 12 0 -2
BITMAP
00
00
00
38
44
44
7C
44
44
38
00
00
ENDCHAR
STARTCHAR CYRILLIC SMALL LETTER BARRED O
ENCODING 1257
SWIDTH 1500 0
DWIDTH 6 0
BBX 6 12 0 -2
BITMAP
00
00
00
00
00
38
44
7C
44
38
00
00
ENDCHAR
STARTCHAR ARMENIAN CAPITAL LETTER AYB
ENCODING 1329
SWIDTH 1500 0
DWIDTH 6 0
BBX 6 12 0 -2
BITMAP
00
00
00
44
44
44
44
54
48
34
00
00
ENDCHAR
STARTCHAR ARMENIAN CAPITAL LETTER BEN
ENCODING 1330
SWIDTH 1500 0
DWIDTH 6 0
BBX 6 12 0 -2
BITMAP
00
00
00
3C
40
40
40
7C
40
40
00
00
ENDCHAR
STARTCHAR ARMENIAN CAPITAL LETTER GIM
ENCODING 1331
SWIDTH 1500 0
DWIDTH 6 0
BBX 6 12 0 -2
BITMAP
00
00
00
30
48
48
48
3C
08
08
00
00
ENDCHAR
STARTCHAR ARMENIAN CAPITAL LETTER DA
ENCODING 1332
SWIDTH 1500 0
DWIDTH 6 0
BBX 6 12 0 -2
BITMAP
00
00
00
70
08
08
08
0C
08
08
00
00
ENDCHAR
STARTCHAR ARMENIAN CAPITAL LETTER ECH
ENCODING 1333
SWIDTH 1500 0
DWIDTH 6 0
BBX 6 12 0 -2
BITMAP
00
00
00
40
40
7C
40
40
40
3C
00
00
ENDCHAR
STARTCHAR ARMENIAN CAPITAL LETTER ZA
ENCODING 1334
SWIDTH 1500 0
DWIDTH 6 0
BBX 6 12 0 -2
BITMAP
00
00
00
38
44
44
04
04
48
7C
00
00
ENDCHAR
STARTCHAR ARMENIAN CAPITAL LETTER EH
ENCODING 1335
SWIDTH 1500 0
DWIDTH 6 0
BBX 6 12 0 -2
BITMAP
00
00
00
40
40
7C
40
40
40
78
00
00
ENDCHAR
STARTCHAR ARMENIAN CAPITAL LETTER ET
ENCODING 1336
SWIDTH 1500 0
DWIDTH 6 0
BBX 6 12 0 -2
BITMAP
00
00
00
3C
40
40
40
40
40
7C
00
00
ENDCHAR
STARTCHAR ARMENIAN CAPITAL LETTER TO
ENCODING 1337
SWIDTH 1500 0
DWIDTH 6 0
BBX 6 12 0 -2
BITMAP
00
00
00
38
44
44
4C
54
54
48
00
00
ENDCHAR
STARTCHAR ARMENIAN CAPITAL LETTER ZHE
ENCODING 1338
SWIDTH 1500 0
DWIDTH 6 0
BBX 6 12 0 -2
BITMAP
00
00
00
08
08
3C
48
48
48
30
00
00
ENDCHAR
STARTCHAR ARMENIAN CAPITAL LETTER INI
ENCODING 1339
SWIDTH 1500 0
DWIDTH 6 0
BBX 6 12 0 -2
BITMAP
00
00
00
40
40
78
44
44
40
40
00
00
ENDCHAR
STARTCHAR ARMENIAN CAPITAL LETTER LIWN
ENCODING 1340
SWIDTH 1500 0
DWIDTH 6 0
BBX 6 12 0 -2
BITMAP
00
00
00
40
40
40
40
40
40
7C
00
00
ENDCHAR
STARTCHAR ARMENIAN CAPITAL LETTER XEH
ENCODING 1341
SWIDTH 1500 0
DWIDTH 6 0
BBX 6 12 0 -2
BITMAP
00
00
00
40
40
74
54
54
54
48
00
00
ENDCHAR
STARTCHAR ARMENIAN CAPITAL LETTER CA
ENCODING 1342
SWIDTH 1500 0
DWIDTH 6 0
BBX 6 12 0 -2
BITMAP
00
00
00
4C
50
78
24
44
44
38
00
00
ENDCHAR
STARTCHAR ARMENIAN CAPITAL LETTER KEN
ENCODING 1343
SWIDTH 1500 0
DWIDTH 6 0
BBX 6 12 0 -2
BITMAP
00
00
00
40
40
44
44
3C
04
04
00
00
ENDCHAR
STARTCHAR ARMENIAN CAPITAL LETTER HO
ENCODING 1344
SWIDTH 1500 0
DWIDTH 6 0
BBX 6 12 0 -2
BITMAP
00
00
00
08
04
0C
30
40
30
0C
00
00
ENDCHAR
STARTCHAR ARMENIAN CAPITAL LETTER JA
ENCODING 1345
SWIDTH 1500 0
DWIDTH 6 0
BBX 6 12 0 -2
BITMAP
00
00
00
38
44
04
04
34
48
34
00
00
ENDCHAR
STARTCHAR ARMENIAN CAPITAL LETTER GHAD
ENCODING 1346
SWIDTH 1500 0
DWIDTH 6 0
BBX 6 12 0 -2
BITMAP
00
00
00
70
08
08
08
08
08
0C
00
00
ENDCHAR
STARTCHAR ARMENIAN CAPITAL LETTER CHEH
ENCODING 1347
SWIDTH 1500 0
DWIDTH 6 0
BBX 6 12 0 -2
BITMAP
00
00
00
4C
30
30
28
48
44
7C
00
00
ENDCHAR
STARTCHAR ARMENIAN CAPITAL LETTER MEN
ENCODING 1348
SWIDTH 1500 0
DWIDTH 6 0
BBX 6 12 0 -2
BITMAP
00
00
00
4C
48
48
48
48
48
30
00
00
ENDCHAR
STARTCHAR ARMENIAN CAPITAL LETTER YI
ENCODING 1349
SWIDTH 1500 0
DWIDTH 6 0
BBX 6 12 0 -2
BITMAP
00
00
00
78
04
04
78
04
04
78
00
00
ENDCHAR
STARTCHAR ARMENIAN CAPITAL LETTER NOW
ENCODING 1350
SWIDTH 1500 0
DWIDTH 6 0
BBX 6 12 0 -2
BITMAP
00
00
00
60
20
20
20
20
20
1C
00
00
ENDCHAR
STARTCHAR ARMENIAN CAPITAL LETTER SHA
ENCODING 1351
SWIDTH 1500 0
DWIDTH 6 0
BBX 6 12 0 -2
BITMAP
00
00
00
60
18
3C
40
40
44
38
00
00
ENDCHAR
STARTCHAR ARMENIAN CAPITAL LETTER VO
ENCODING 1352
SWIDTH 1500 0
DWIDTH 6 0
BBX 6 12 0 -2
BITMAP
00
00
00
38
44
44
44
44
44
44
00
00
ENDCHAR
STARTCHAR ARMENIAN CAPITAL LETTER CHA
ENCODING 1353
SWIDTH 1500 0
DWIDTH 6 0
BBX 6 12 0 -2
BITMAP
00
00
00
38
44
04
04
38
60
18
00
00
ENDCHAR
STARTCHAR ARMENIAN CAPITAL LETTER PEH
ENCODING 1354
SWIDTH 1500 0
DWIDTH 6 0
BBX 6 12 0 -2
BITMAP
00
00
00
78
14
14
14
04
04
04
00
00
ENDCHAR
STARTCHAR ARMENIAN CAPITAL LETTER JHEH
ENCODING 1355
SWIDTH 1500 0
DWIDTH 6 0
BBX 6 12 0 -2
BITMAP
00
00
00
38
44
44
24
14
58
7C
00
00
ENDCHAR
STARTCHAR ARMENIAN CAPITAL LETTER RA
ENCODING 1356
SWIDTH 1500 0
DWIDTH 6 0
BBX 6 12 0 -2
BITMAP
00
00
00
30
48
48
48
4C
48
48
00
00
ENDCHAR
STARTCHAR ARMENIAN CAPITAL LETTER SEH
ENCODING 1357
SWIDTH 1500 0
DWIDTH 6 0
BBX 6 12 0 -2
BITMAP
00
00
00
44
44
44
44
44
44
38
00
00
ENDCHAR
STARTCHAR ARMENIAN CAPITAL LETTER VEW
ENCODING 1358
SWIDTH 1500 0
DWIDTH 6 0
BBX 6 12 0 -2
BITMAP
00
00
00
08
08
48
48
38
08
0C
00
00
ENDCHAR
STARTCHAR ARMENIAN CAPITAL LETTER TIWN
ENCODING 1359
SWIDTH 1500 0
DWIDTH 6 0
BBX 6 12 0 -2
BITMAP
00
00
00
3C
40
40
38
04
04
78
00
00
ENDCHAR
STARTCHAR ARMENIAN CAPITAL LETTER REH
ENCODING 1360
SWIDTH 1500 0
DWIDTH 6 0
BBX 6 12 0 -2
BITMAP
00
00
00
3C
40
40
40
40
40
40
00
00
ENDCHAR
STARTCHAR ARMENIAN CAPITAL LETTER CO
ENCODING 1361
SWIDTH 1500 0
DWIDTH 6 0
BBX 6 12 0 -2
BITMAP
00
00
00
38
44
44
78
04
04
78
00
00
ENDCHAR
STARTCHAR ARMENIAN CAPITAL LETTER YIWN
ENCODING 1362
SWIDTH 1500 0
DWIDTH 6 0
BBX 6 12 0 -2
BITMAP
00
00
00
40
40
7C
40
40
40
40
00
00
ENDCHAR
STARTCHAR ARMENIAN CAPITAL LETTER PIWR
ENCODING 1363
SWIDTH 1500 0
DWIDTH 6 0
BBX 6 12 0 -2
BITMAP
00
00
00
10
38
54
54
54
38
10
00
00
ENDCHAR
STARTCHAR ARMENIAN CAPITAL LETTER KEH
ENCODING 1364
SWIDTH 1500 0
DWIDTH 6 0
BBX 6 12 0 -2
BITMAP
00
00
00
18
24
24
38
20
7C
20
00
00
ENDCHAR
STARTCHAR ARMENIAN CAPITAL LETTER OH
ENCODING 1365
SWIDTH 1500 0
DWIDTH 6 0
BBX 6 12 0 -2
BITMAP
00
00
00
38
44
44
44
44
44
38
00
00
ENDCHAR
STARTCHAR ARMENIAN CAPITAL LETTER FEH
ENCODING 1366
SWIDTH 1500 0
DWIDTH 6 0
BBX 6 12 0 -2
BITMAP
00
00
00
30
50
50
38
14
14
78
00
00
ENDCHAR
STARTCHAR ARMENIAN MODIFIER LETTER LEFT HALF RING
ENCODING 1369
SWIDTH 1500 0
DWIDTH 6 0
BBX 6 12 0 -2
BITMAP
00
00
10
20
10
00
00
00
00
00
00
00
ENDCHAR
STARTCHAR ARMENIAN APOSTROPHE
ENCODING 1370
SWIDTH 1500 0
DWIDTH 6 0
BBX 6 12 0 -2
BITMAP
00
00
10
10
20
00
00
00
00
00
00
00
ENDCHAR
STARTCHAR ARMENIAN EMPHASIS MARK
ENCODING 1371
SWIDTH 1500 0
DWIDTH 6 0
BBX 6 12 0 -2
BITMAP
00
08
10
20
00
00
00
00
00
00
00
00
ENDCHAR
STARTCHAR ARMENIAN EXCLAMATION MARK
ENCODING 1372
SWIDTH 1500 0
DWIDTH 6 0
BBX 6 12 0 -2
BITMAP
00
04
38
40
00
00
00
00
00
00
00
00
ENDCHAR
STARTCHAR ARMENIAN COMMA
ENCODING 1373
SWIDTH 1500 0
DWIDTH 6 0
BBX 6 12 0 -2
BITMAP
00
20
10
08
00
00
00
00
00
00
00
00
ENDCHAR
STARTCHAR ARMENIAN QUESTION MARK
ENCODING 1374
SWIDTH 1500 0
DWIDTH 6 0
BBX 6 12 0 -2
BITMAP
00
38
44
58
00
00
00
00
00
00
00
00
ENDCHAR
STARTCHAR ARMENIAN ABBREVIATION MARK
ENCODING 1375
SWIDTH 1500 0
DWIDTH 6 0
BBX 6 12 0 -2
BITMAP
00
00
40
7C
00
00
00
00
00
00
00
00
ENDCHAR
STARTCHAR ARMENIAN SMALL LETTER AYB
ENCODING 1377
SWIDTH 1500 0
DWIDTH 6 0
BBX 6 12 0 -2
BITMAP
00
00
00
00
00
54
54
54
54
2C
00
00
ENDCHAR
STARTCHAR ARMENIAN SMALL LETTER BEN
ENCODING 1378
SWIDTH 1500 0
DWIDTH 6 0
BBX 6 12 0 -2
BITMAP
00
00
00
00
00
78
44
40
40
7C
40
40
ENDCHAR
STARTCHAR ARMENIAN SMALL LETTER GIM
ENCODING 1379
SWIDTH 1500 0
DWIDTH 6 0
BBX 6 12 0 -2
BITMAP
00
00
00
00
00
38
48
48
48
3C
08
08
ENDCHAR
STARTCHAR ARMENIAN SMALL LETTER DA
ENCODING 1380
SWIDTH 1500 0
DWIDTH 6 0
BBX 6 12 0 -2
BITMAP
00
00
00
00
00
70
48
48
48
4C
08
08
ENDCHAR
STARTCHAR ARMENIAN SMALL LETTER ECH
ENCODING 1381
SWIDTH 1500 0
DWIDTH 6 0
BBX 6 12 0 -2
BITMAP
00
00
40
40
40
7C
40
44
44
3C
00
00
ENDCHAR
STARTCHAR ARMENIAN SMALL LETTER ZA
ENCODING 1382
SWIDTH 1500 0
DWIDTH 6 0
BBX 6 12 0 -2
BITMAP
00
00
00
00
00
38
48
48
48
38
08
0C
ENDCHAR
STARTCHAR ARMENIAN SMALL LETTER EH
ENCODING 1383
SWIDTH 1500 0
DWIDTH 6 0
BBX 6 12 0 -2
BITMAP
00
00
40
40
40
7C
40
40
40
78
00
00
ENDCHAR
STARTCHAR ARMENIAN SMALL LETTER ET
ENCODING 1384
SWIDTH 1500 0
DWIDTH 6 0
BBX 6 12 0 -2
BITMAP
00
00
00
00
00
58
64
44
44
44
40
7C
ENDCHAR
STARTCHAR ARMENIAN SMALL LETTER TO
ENCODING 1385
SWIDTH 1500 0
DWIDTH 6 0
BBX 6 12 0 -2
BITMAP
00
00
00
00
00
78
44
4C
54
48
40
40
ENDCHAR
STARTCHAR ARMENIAN SMALL LETTER ZHE
ENCODING 1386
SWIDTH 1500 0
DWIDTH 6 0
BBX 6 12 0 -2
BITMAP
00
00
08
08
08
3C
48
48
48
30
00
00
ENDCHAR
STARTCHAR ARMENIAN SMALL LETTER INI
ENCODING 1387
SWIDTH 1500 0
DWIDTH 6 0
BBX 6 12 0 -2
BITMAP
00
00
40
40
40
58
64
44
44
44
40
40
ENDCHAR
STARTCHAR ARMENIAN SMALL LETTER LIWN
ENCODING 1388
SWIDTH 1500 0
DWIDTH 6 0
BBX 6 12 0 -2
BITMAP
00
00
00
20
20
20
20
20
20
20
20
30
ENDCHAR
STARTCHAR ARMENIAN SMALL LETTER XEH
ENCODING 1389
SWIDTH 1500 0
DWIDTH 6 0
BBX 6 12 0 -2
BITMAP
00
00
40
40
40
64
54
54
54
48
40
40
ENDCHAR
STARTCHAR ARMENIAN SMALL LETTER CA
ENCODING 1390
SWIDTH 1500 0
DWIDTH 6 0
BBX 6 12 0 -2
BITMAP
00
00
20
40
20
3C
48
44
44
38
00
00
ENDCHAR
STARTCHAR ARMENIAN SMALL LETTER KEN
ENCODING 1391
SWIDTH 1500 0
DWIDTH 6 0
BBX 6 12 0 -2
BITMAP
00
00
40
40
40
44
44
44
4C
34
04
04
ENDCHAR
STARTCHAR ARMENIAN SMALL LETTER HO
ENCODING 1392
SWIDTH 1500 0
DWIDTH 6 0
BBX 6 12 0 -2
BITMAP
00
00
40
40
40
58
64
44
44
44
00
00
ENDCHAR
STARTCHAR ARMENIAN SMALL LETTER JA
ENCODING 1393
SWIDTH 1500 0
DWIDTH 6 0
BBX 6 12 0 -2
BITMAP
00
00
20
40
2C
30
48
44
44
38
00
00
ENDCHAR
STARTCHAR ARMENIAN SMALL LETTER GHAD
ENCODING 1394
SWIDTH 1500 0
DWIDTH 6 0
BBX 6 12 0 -2
BITMAP
00
00
00
00
00
70
48
48
48
48
08
0C
ENDCHAR
STARTCHAR ARMENIAN SMALL LETTER CHEH
ENCODING 1395
SWIDTH 1500 0
DWIDTH 6 0
BBX 6 12 0 -2
BITMAP
00
00
0C
10
20
78
24
44
4C
34
00
00
ENDCHAR
STARTCHAR ARMENIAN SMALL LETTER MEN
ENCODING 1396
SWIDTH 1500 0
DWIDTH 6 0
BBX 6 12 0 -2
BITMAP
00
00
0C
08
08
48
48
48
48
38
00
00
ENDCHAR
STARTCHAR ARMENIAN SMALL LETTER YI
ENCODING 1397
SWIDTH 1500 0
DWIDTH 6 0
BBX 6 12 0 -2
BITMAP
00
00
00
00
00
10
10
10
10
10
10
20
ENDCHAR
STARTCHAR ARMENIAN SMALL LETTER NOW
ENCODING 1398
SWIDTH 1500 0
DWIDTH 6 0
BBX 6 12 0 -2
BITMAP
00
00
60
20
20
24
24
24
24
1C
00
00
ENDCHAR
STARTCHAR ARMENIAN SMALL LETTER SHA
ENCODING 1399
SWIDTH 1500 0
DWIDTH 6 0
BBX 6 12 0 -2
BITMAP
00
00
00
00
00
78
04
04
08
10
20
7C
ENDCHAR
STARTCHAR ARMENIAN SMALL LETTER VO
ENCODING 1400
SWIDTH 1500 0
DWIDTH 6 0
BBX 6 12 0 -2
BITMAP
00
00
00
00
00
58
64
44
44
44
00
00
ENDCHAR
STARTCHAR ARMENIAN SMALL LETTER CHA
ENCODING 1401
SWIDTH 1500 0
DWIDTH 6 0
BBX 6 12 0 -2
BITMAP
00
00
00
20
40
38
08
10
20
40
40
7C
ENDCHAR
STARTCHAR ARMENIAN SMALL LETTER PEH
ENCODING 1402
SWIDTH 1500 0
DWIDTH 6 0
BBX 6 12 0 -2
BITMAP
00
00
00
00
00
54
54
54
54
2C
04
04
ENDCHAR
STARTCHAR ARMENIAN SMALL LETTER JHEH
ENCODING 1403
SWIDTH 1500 0
DWIDTH 6 0
BBX 6 12 0 -2
BITMAP
00
00
00
00
00
38
44
44
28
10
20
7C
ENDCHAR
STARTCHAR ARMENIAN SMALL LETTER RA
ENCODING 1404
SWIDTH 1500 0
DWIDTH 6 0
BBX 6 12 0 -2
BITMAP
00
00
00
00
00
78
44
44
48
5C
00
00
ENDCHAR
STARTCHAR ARMENIAN SMALL LETTER SEH
ENCODING 1405
SWIDTH 1500 0
DWIDTH 6 0
BBX 6 12 0 -2
BITMAP
00
00
00
00
00
44
44
44
4C
34
00
00
ENDCHAR
STARTCHAR ARMENIAN SMALL LETTER VEW
ENCODING 1406
SWIDTH 1500 0
DWIDTH 6 0
BBX 6 12 0 -2
BITMAP
00
00
08
08
08
48
48
48
48
38
08
0C
ENDCHAR
STARTCHAR ARMENIAN SMALL LETTER TIWN
ENCODING 1407
SWIDTH 1500 0
DWIDTH 6 0
BBX 6 12 0 -2
BITMAP
00
00
00
00
00
58
54
54
54
34
00
00
ENDCHAR
STARTCHAR ARMENIAN SMALL LETTER REH
ENCODING 1408
SWIDTH 1500 0
DWIDTH 6 0
BBX 6 12 0 -2
BITMAP
00
00
00
00
00
58
64
44
44
44
40
40
ENDCHAR
STARTCHAR ARMENIAN SMALL LETTER CO
ENCODING 1409
SWIDTH 1500 0
DWIDTH 6 0
BBX 6 12 0 -2
BITMAP
00
00
00
00
00
3C
44
44
44
3C
04
38
ENDCHAR
STARTCHAR ARMENIAN SMALL LETTER YIWN
ENCODING 1410
SWIDTH 1500 0
DWIDTH 6 0
BBX 6 12 0 -2
BITMAP
00
00
00
00
00
20
20
20
20
38
00
00
ENDCHAR
STARTCHAR ARMENIAN SMALL LETTER PIWR
ENCODING 1411
SWIDTH 1500 0
DWIDTH 6 0
BBX 6 12 0 -2
BITMAP
00
00
10
10
10
58
54
54
54
34
10
10
ENDCHAR
STARTCHAR ARMENIAN SMALL LETTER KEH
ENCODING 1412
SWIDTH 1500 0
DWIDTH 6 0
BBX 6 12 0 -2
BITMAP
00
00
00
00
00
38
24
24
24
38
20
7C
ENDCHAR
STARTCHAR ARMENIAN SMALL LETTER OH
ENCODING 1413
SWIDTH 1500 0
DWIDTH 6 0
BBX 6 12 0 -2
BITMAP
00
00
00
00
00
38
44
44
44
38
00
00
ENDCHAR
STARTCHAR ARMENIAN SMALL LETTER FEH
ENCODING 1414
SWIDTH 1500 0
DWIDTH 6 0
BBX 6 12 0 -2
BITMAP
00
00
30
50
50
38
14
14
14
78
10
10
ENDCHAR
STARTCHAR ARMENIAN SMALL LIGATURE ECH YIWN
ENCODING 1415
SWIDTH 1500 0
DWIDTH 6 0
BBX 6 12 0 -2
BITMAP
00
00
40
40
40
50
50
50
50
3C
00
00
ENDCHAR
STARTCHAR ARMENIAN FULL STOP
ENCODING 1417
SWIDTH 1500 0
DWIDTH 6 0
BBX 6 12 0 -2
BITMAP
00
00
00
00
00
10
00
00
00
10
00
00
ENDCHAR
STARTCHAR ARMENIAN HYPHEN
ENCODING 1418
SWIDTH 1500 0
DWIDTH 6 0
BBX 6 12 0 -2
BITMAP
00
00
00
00
00
00
44
38
00
00
00
00
ENDCHAR
STARTCHAR RIGHT-FACING ARMENIAN ETERNITY SIGN
ENCODING 1421
SWIDTH 1500 0
DWIDTH 6 0
BBX 6 12 0 -2
BITMAP
00
00
00
00
78
A4
BC
F4
94
78
00
00
ENDCHAR
STARTCHAR LEFT-FACING ARMENIAN ETERNITY SIGN
ENCODING 1422
SWIDTH 1500 0
DWIDTH 6 0
BBX 6 12 0 -2
BITMAP
00
00
00
00
78
94
F4
BC
A4
78
00
00
ENDCHAR
STARTCHAR ARMENIAN DRAM SIGN
ENCODING 1423
SWIDTH 1500 0
DWIDTH 6 0
BBX 6 12 0 -2
BITMAP
00
00
00
70
08
08
1C
08
1C
08
00
00
ENDCHAR
STARTCHAR HEBREW LETTER ALEF
ENCODING 1488
SWIDTH 1500 0
DWIDTH 6 0
BBX 6 12 0 -2
BITMAP
00
00
00
00
00
44
24
54
48
44
00
00
ENDCHAR
STARTCHAR HEBREW LETTER BET
ENCODING 1489
SWIDTH 1500 0
DWIDTH 6 0
BBX 6 12 0 -2
BITMAP
00
00
00
00
00
70
08
08
08
7C
00
00
ENDCHAR
STARTCHAR HEBREW LETTER GIMEL
ENCODING 1490
SWIDTH 1500 0
DWIDTH 6 0
BBX 6 12 0 -2
BITMAP
00
00
00
00
00
70
08
08
08
74
00
00
ENDCHAR
STARTCHAR HEBREW LETTER DALET
ENCODING 1491
SWIDTH 1500 0
DWIDTH 6 0
BBX 6 12 0 -2
BITMAP
00
00
00
00
00
7C
08
08
08
08
00
00
ENDCHAR
STARTCHAR HEBREW LETTER HE
ENCODING 1492
SWIDTH 1500 0
DWIDTH 6 0
BBX 6 12 0 -2
BITMAP
00
00
00
00
00
78
04
44
44
44
00
00
ENDCHAR
STARTCHAR HEBREW LETTER VAV
ENCODING 1493
SWIDTH 1500 0
DWIDTH 6 0
BBX 6 12 0 -2
BITMAP
00
00
00
00
00
10
10
10
10
10
00
00
ENDCHAR
STARTCHAR HEBREW LETTER ZAYIN
ENCODING 1494
SWIDTH 1500 0
DWIDTH 6 0
BBX 6 12 0 -2
BITMAP
00
00
00
00
00
7C
04
08
10
10
00
00
ENDCHAR
STARTCHAR HEBREW LETTER HET
ENCODING 1495
SWIDTH 1500 0
DWIDTH 6 0
BBX 6 12 0 -2
BITMAP
00
00
00
00
00
58
64
44
44
44
00
00
ENDCHAR
STARTCHAR HEBREW LETTER TET
ENCODING 1496
SWIDTH 1500 0
DWIDTH 6 0
BBX 6 12 0 -2
BITMAP
00
00
00
00
00
58
44
44
44
38
00
00
ENDCHAR
STARTCHAR HEBREW LETTER YOD
ENCODING 1497
SWIDTH 1500 0
DWIDTH 6 0
BBX 6 12 0 -2
BITMAP
00
00
00
00
00
10
10
10
00
00
00
00
ENDCHAR
STARTCHAR HEBREW LETTER FINAL KAF
ENCODING 1498
SWIDTH 1500 0
DWIDTH 6 0
BBX 6 12 0 -2
BITMAP
00
00
00
00
00
78
04
04
04
04
04
04
ENDCHAR
STARTCHAR HEBREW LETTER KAF
ENCODING 1499
SWIDTH 1500 0
DWIDTH 6 0
BBX 6 12 0 -2
BITMAP
00
00
00
00
00
78
04
04
04
78
00
00
ENDCHAR
STARTCHAR HEBREW LETTER LAMED
ENCODING 1500
SWIDTH 1500 0
DWIDTH 6 0
BBX 6 12 0 -2
BITMAP
00
00
00
00
40
7C
04
08
10
20
00
00
ENDCHAR
STARTCHAR HEBREW LETTER FINAL MEM
ENCODING 1501
SWIDTH 1500 0
DWIDTH 6 0
BBX 6 12 0 -2
BITMAP
00
00
00
00
00
78
44
44
44
7C
00
00
ENDCHAR
STARTCHAR HEBREW LETTER MEM
ENCODING 1502
SWIDTH 1500 0
DWIDTH 6 0
BBX 6 12 0 -2
BITMAP
00
00
00
00
00
58
24
24
44
5C
00
00
ENDCHAR
STARTCHAR HEBREW LETTER FINAL NUN
ENCODING 1503
SWIDTH 1500 0
DWIDTH 6 0
BBX 6 12 0 -2
BITMAP
00
00
00
00
00
10
10
10
10
10
10
10
ENDCHAR
STARTCHAR HEBREW LETTER NUN
ENCODING 1504
SWIDTH 1500 0
DWIDTH 6 0
BBX 6 12 0 -2
BITMAP
00
00
00
00
00
78
04
04
04
7C
00
00
ENDCHAR
STARTCHAR HEBREW LETTER SAMEKH
ENCODING 1505
SWIDTH 1500 0
DWIDTH 6 0
BBX 6 12 0 -2
BITMAP
00
00
00
00
00
78
44
44
44
38
00
00
ENDCHAR
STARTCHAR HEBREW LETTER AYIN
ENCODING 1506
SWIDTH 1500 0
DWIDTH 6 0
BBX 6 12 0 -2
BITMAP
00
00
00
00
00
44
44
24
24
78
00
00
ENDCHAR
STARTCHAR HEBREW LETTER FINAL PE
ENCODING 1507
SWIDTH 1500 0
DWIDTH 6 0
BBX 6 12 0 -2
BITMAP
00
00
00
00
00
78
44
34
04
04
04
04
ENDCHAR
STARTCHAR HEBREW LETTER PE
ENCODING 1508
SWIDTH 1500 0
DWIDTH 6 0
BBX 6 12 0 -2
BITMAP
00
00
00
00
00
78
44
34
04
78
00
00
ENDCHAR
STARTCHAR HEBREW LETTER FINAL TSADI
ENCODING 1509
SWIDTH 1500 0
DWIDTH 6 0
BBX 6 12 0 -2
BITMAP
00
00
00
00
00
44
24
18
10
10
10
10
ENDCHAR
STARTCHAR HEBREW LETTER TSADI
ENCODING 1510
SWIDTH 1500 0
DWIDTH 6 0
BBX 6 12 0 -2
BITMAP
00
00
00
00
00
44
24
18
08
7C
00
00
ENDCHAR
STARTCHAR HEBREW LETTER QOF
ENCODING 1511
SWIDTH 1500 0
DWIDTH 6 0
BBX 6 12 0 -2
BITMAP
00
00
00
00
00
7C
04
44
48
50
40
40
ENDCHAR
STARTCHAR HEBREW LETTER RESH
ENCODING 1512
SWIDTH 1500 0
DWIDTH 6 0
BBX 6 12 0 -2
BITMAP
00
00
00
00
00
78
04
04
04
04
00
00
ENDCHAR
STARTCHAR HEBREW LETTER SHIN
ENCODING 1513
SWIDTH 1500 0
DWIDTH 6 0
BBX 6 12 0 -2
BITMAP
00
00
00
00
00
54
54
64
44
78
00
00
ENDCHAR
STARTCHAR HEBREW LETTER TAV
ENCODING 1514
SWIDTH 1500 0
DWIDTH 6 0
BBX 6 12 0 -2
BITMAP
00
00
00
00
00
78
24
24
24
44
00
00
ENDCHAR
STARTCHAR KANNADA LETTER TTHA
ENCODING 3232
SWIDTH 1500 0
DWIDTH 6 0
BBX 6 12 0 -2
BITMAP
00
00
00
04
04
78
44
54
44
38
00
00
ENDCHAR
STARTCHAR LATIN CAPITAL LETTER B WITH DOT ABOVE
ENCODING 7682
SWIDTH 1500 0
DWIDTH 6 0
BBX 6 12 0 -2
BITMAP
00
10
00
78
44
44
78
44
44
78
00
00
ENDCHAR
STARTCHAR LATIN SMALL LETTER B WITH DOT ABOVE
ENCODING 7683
SWIDTH 1500 0
DWIDTH 6 0
BBX 6 12 0 -2
BITMAP
40
00
40
40
40
78
44
44
44
78
00
00
ENDCHAR
STARTCHAR LATIN CAPITAL LETTER D WITH DOT ABOVE
ENCODING 7690
SWIDTH 1500 0
DWIDTH 6 0
BBX 6 12 0 -2
BITMAP
00
10
00
78
44
44
44
44
44
78
00
00
ENDCHAR
STARTCHAR LATIN SMALL LETTER D WITH DOT ABOVE
ENCODING 7691
SWIDTH 1500 0
DWIDTH 6 0
BBX 6 12 0 -2
BITMAP
04
00
04
04
04
3C
44
44
44
3C
00
00
ENDCHAR
STARTCHAR LATIN CAPITAL LETTER F WITH DOT ABOVE
ENCODING 7710
SWIDTH 1500 0
DWIDTH 6 0
BBX 6 12 0 -2
BITMAP
00
10
00
7C
40
40
70
40
40
40
00
00
ENDCHAR
STARTCHAR LATIN SMALL LETTER F WITH DOT ABOVE
ENCODING 7711
SWIDTH 1500 0
DWIDTH 6 0
BBX 6 12 0 -2
BITMAP
10
00
18
20
20
70
20
20
20
20
00
00
ENDCHAR
STARTCHAR LATIN CAPITAL LETTER M WITH DOT ABOVE
ENCODING 7744
SWIDTH 1500 0
DWIDTH 6 0
BBX 6 12 0 -2
BITMAP
00
10
00
44
6C
54
44
44
44
44
00
00
ENDCHAR
STARTCHAR LATIN SMALL LETTER M WITH DOT ABOVE
ENCODING 7745
SWIDTH 1500 0
DWIDTH 6 0
BBX 6 12 0 -2
BITMAP
00
00
00
10
00
78
54
54
54
44
00
00
ENDCHAR
STARTCHAR LATIN CAPITAL LETTER P WITH DOT ABOVE
ENCODING 7766
SWIDTH 1500 0
DWIDTH 6 0
BBX 6 12 0 -2
BITMAP
00
10
00
78
44
44
44
78
40
40
00
00
ENDCHAR
STARTCHAR LATIN SMALL LETTER P WITH DOT ABOVE
ENCODING 7767
SWIDTH 1500 0
DWIDTH 6 0
BBX 6 12 0 -2
BITMAP
00
00
00
10
00
78
44
44
44
78
40
40
ENDCHAR
STARTCHAR LATIN CAPITAL LETTER S WITH DOT ABOVE
ENCODING 7776
SWIDTH 1500 0
DWIDTH 6 0
BBX 6 12 0 -2
BITMAP
00
10
00
3C
40
40
38
04
04
78
00
00
ENDCHAR
STARTCHAR LATIN SMALL LETTER S WITH DOT ABOVE
ENCODING 7777
SWIDTH 1500 0
DWIDTH 6 0
BBX 6 12 0 -2
BITMAP
00
00
00
10
00
1C
20
18
04
38
00
00
ENDCHAR
STARTCHAR LATIN CAPITAL LETTER T WITH DOT ABOVE
ENCODING 7786
SWIDTH 1500 0
DWIDTH 6 0
BBX 6 12 0 -2
BITMAP
00
10
00
7C
10
10
10
10
10
10
00
00
ENDCHAR
STARTCHAR LATIN SMALL LETTER T WITH DOT ABOVE
ENCODING 7787
SWIDTH 1500 0
DWIDTH 6 0
BBX 6 12 0 -2
BITMAP
20
00
20
20
20
70
20
20
20
18
00
00
ENDCHAR
STARTCHAR LATIN CAPITAL LETTER W WITH GRAVE
ENCODING 7808
SWIDTH 1500 0
DWIDTH 6 0
BBX 6 12 0 -2
BITMAP
20
10
00
44
44
44
44
54
6C
44
00
00
ENDCHAR
STARTCHAR LATIN SMALL LETTER W WITH GRAVE
ENCODING 7809
SWIDTH 1500 0
DWIDTH 6 0
BBX 6 12 0 -2
BITMAP
00
00
20
10
00
44
44
54
6C
44
00
00
ENDCHAR
STARTCHAR LATIN CAPITAL LETTER W WITH ACUTE
ENCODING 7810
SWIDTH 1500 0
DWIDTH 6 0
BBX 6 12 0 -2
BITMAP
08
10
00
44
44
44
44
54
6C
44
00
00
ENDCHAR
STARTCHAR LATIN SMALL LETTER W WITH ACUTE
ENCODING 7811
SWIDTH 1500 0
DWIDTH 6 0
BBX 6 12 0 -2
BITMAP
00
00
08
10
00
44
44
54
6C
44
00
00
ENDCHAR
STARTCHAR LATIN CAPITAL LETTER W WITH DIAERESIS
ENCODING 7812
SWIDTH 1500 0
DWIDTH 6 0
BBX 6 12 0 -2
BITMAP
00
28
00
44
44
44
44
54
6C
44
00
00
ENDCHAR
STARTCHAR LATIN SMALL LETTER W WITH DIAERESIS
ENCODING 7813
SWIDTH 1500 0
DWIDTH 6 0
BBX 6 12 0 -2
BITMAP
00
00
00
28
00
44
44
54
6C
44
00
00
ENDCHAR
STARTCHAR LATIN CAPITAL LETTER A WITH DOT BELOW
ENCODING 7840
SWIDTH 1500 0
DWIDTH 6 0
BBX 6 12 0 -2
BITMAP
00
00
00
38
44
44
44
7C
44
44
00
10
ENDCHAR
STARTCHAR LATIN SMALL LETTER A WITH DOT BELOW
ENCODING 7841
SWIDTH 1500 0
DWIDTH 6 0
BBX 6 12 0 -2
BITMAP
00
00
00
00
00
00
3C
44
44
4C
34
00
ENDCHAR
STARTCHAR LATIN CAPITAL LETTER A WITH HOOK ABOVE
ENCODING 7842
SWIDTH 1500 0
DWIDTH 6 0
BBX 6 12 0 -2
BITMAP
30
08
10
38
44
44
44
7C
44
44
00
00
ENDCHAR
STARTCHAR LATIN SMALL LETTER A WITH HOOK ABOVE
ENCODING 7843
SWIDTH 1500 0
DWIDTH 6 0
BBX 6 12 0 -2
BITMAP
00
30
08
10
00
00
3C
44
44
4C
34
00
ENDCHAR
STARTCHAR LATIN CAPITAL LETTER A WITH CIRCUMFLEX AND ACUTE
ENCODING 7844
SWIDTH 1500 0
DWIDTH 6 0
BBX 6 12 0 -2
BITMAP
44
A8
00
38
44
44
44
7C
44
44
00
00
ENDCHAR
STARTCHAR LATIN SMALL LETTER A WITH CIRCUMFLEX AND ACUTE
ENCODING 7845
SWIDTH 1500 0
DWIDTH 6 0
BBX 6 12 0 -2
BITMAP
04
08
20
50
00
00
3C
44
44
4C
34
00
ENDCHAR
STARTCHAR LATIN CAPITAL LETTER A WITH CIRCUMFLEX AND GRAVE
ENCODING 7846
SWIDTH 1500 0
DWIDTH 6 0
BBX 6 12 0 -2
BITMAP
88
54
00
38
44
44
44
7C
44
44
00
00
ENDCHAR
STARTCHAR LATIN SMALL LETTER A WITH CIRCUMFLEX AND GRAVE
ENCODING 7847
SWIDTH 1500 0
DWIDTH 6 0
BBX 6 12 0 -2
BITMAP
40
20
08
14
00
00
3C
44
44
4C
34
00
ENDCHAR
STARTCHAR LATIN CAPITAL LETTER A WITH CIRCUMFLEX AND HOOK ABOVE
ENCODING 7848
SWIDTH 1500 0
DWIDTH 6 0
BBX 6 12 0 -2
BITMAP
58
A4
08
38
44
44
44
7C
44
44
00
00
ENDCHAR
STARTCHAR LATIN SMALL LETTER A WITH CIRCUMFLEX AND HOOK ABOVE
ENCODING 7849
SWIDTH 1500 0
DWIDTH 6 0
BBX 6 12 0 -2
BITMAP
18
04
28
50
00
00
3C
44
44
4C
34
00
ENDCHAR
STARTCHAR LATIN CAPITAL LETTER A WITH CIRCUMFLEX AND TILDE
ENCODING 7850
SWIDTH 1500 0
DWIDTH 6 0
BBX 6 12 0 -2
BITMAP
28
50
28
38
44
44
44
7C
44
44
00
00
ENDCHAR
STARTCHAR LATIN SMALL LETTER A WITH CIRCUMFLEX AND TILDE
ENCODING 7851
SWIDTH 1500 0
DWIDTH 6 0
BBX 6 12 0 -2
BITMAP
14
28
10
28
00
00
3C
44
44
4C
34
00
ENDCHAR
STARTCHAR LATIN CAPITAL LETTER A WITH CIRCUMFLEX AND DOT BELOW
ENCODING 7852
SWIDTH 1500 0
DWIDTH 6 0
BBX 6 12 0 -2
BITMAP
10
28
00
38
44
44
44
7C
44
44
00
10
ENDCHAR
STARTCHAR LATIN SMALL LETTER A WITH CIRCUMFLEX AND DOT BELOW
ENCODING 7853
SWIDTH 1500 0
DWIDTH 6 0
BBX 6 12 0 -2
BITMAP
00
00
10
28
00
00
3C
44
44
4C
34
00
ENDCHAR
STARTCHAR LATIN CAPITAL LETTER A WITH BREVE AND ACUTE
ENCODING 7854
SWIDTH 1500 0
DWIDTH 6 0
BBX 6 12 0 -2
BITMAP
08
10
44
38
44
44
44
7C
44
44
00
00
ENDCHAR
STARTCHAR LATIN SMALL LETTER A WITH BREVE AND ACUTE
ENCODING 7855
SWIDTH 1500 0
DWIDTH 6 0
BBX 6 12 0 -2
BITMAP
08
10
44
38
00
00
3C
44
44
4C
34
00
ENDCHAR
STARTCHAR LATIN CAPITAL LETTER A WITH BREVE AND GRAVE
ENCODING 7856
SWIDTH 1500 0
DWIDTH 6 0
BBX 6 12 0 -2
BITMAP
20
10
44
38
44
44
44
7C
44
44
00
00
ENDCHAR
STARTCHAR LATIN SMALL LETTER A WITH BREVE AND GRAVE
ENCODING 7857
SWIDTH 1500 0
DWIDTH 6 0
BBX 6 12 0 -2
BITMAP
20
10
44
38
00
00
3C
44
44
4C
34
00
ENDCHAR
STARTCHAR LATIN CAPITAL LETTER A WITH BREVE AND HOOK ABOVE
ENCODING 7858
SWIDTH 1500 0
DWIDTH 6 0
BBX 6 12 0 -2
BITMAP
30
08
54
38
44
44
44
7C
44
44
00
00
ENDCHAR
STARTCHAR LATIN SMALL LETTER A WITH BREVE AND HOOK ABOVE
ENCODING 7859
SWIDTH 1500 0
DWIDTH 6 0
BBX 6 12 0 -2
BITMAP
30
08
54
38
00
00
3C
44
44
4C
34
00
ENDCHAR
STARTCHAR LATIN CAPITAL LETTER A WITH BREVE AND TILDE
ENCODING 7860
SWIDTH 1500 0
DWIDTH 6 0
BBX 6 12 0 -2
BITMAP
14
28
44
38
44
44
44
7C
44
44
00
00
ENDCHAR
STARTCHAR LATIN SMALL LETTER A WITH BREVE AND TILDE
ENCODING 7861
SWIDTH 1500 0
DWIDTH 6 0
BBX 6 12 0 -2
BITMAP
14
28
44
38
00
00
3C
44
44
4C
34
00
ENDCHAR
STARTCHAR LATIN CAPITAL LETTER A WITH BREVE AND DOT BELOW
ENCODING 7862
SWIDTH 1500 0
DWIDTH 6 0
BBX 6 12 0 -2
BITMAP
44
38
00
38
44
44
44
7C
44
44
00
10
ENDCHAR
STARTCHAR LATIN SMALL LETTER A WITH BREVE AND DOT BELOW
ENCODING 7863
SWIDTH 1500 0
DWIDTH 6 0
BBX 6 12 0 -2
BITMAP
00
00
24
18
00
00
3C
44
44
4C
34
00
ENDCHAR
STARTCHAR LATIN CAPITAL LETTER E WITH DOT BELOW
ENCODING 7864
SWIDTH 1500 0
DWIDTH 6 0
BBX 6 12 0 -2
BITMAP
00
00
00
7C
40
40
70
40
40
7C
00
10
ENDCHAR
STARTCHAR LATIN SMALL LETTER E WITH DOT BELOW
ENCODING 7865
SWIDTH 1500 0
DWIDTH 6 0
BBX 6 12 0 -2
BITMAP
00
00
00
00
00
38
44
7C
40
38
00
10
ENDCHAR
STARTCHAR LATIN CAPITAL LETTER E WITH HOOK ABOVE
ENCODING 7866
SWIDTH 1500 0
DWIDTH 6 0
BBX 6 12 0 -2
BITMAP
30
08
10
7C
40
40
70
40
40
7C
00
00
ENDCHAR
STARTCHAR LATIN SMALL LETTER E WITH HOOK ABOVE
ENCODING 7867
SWIDTH 1500 0
DWIDTH 6 0
BBX 6 12 0 -2
BITMAP
00
30
08
10
00
38
44
7C
40
38
00
00
ENDCHAR
STARTCHAR LATIN CAPITAL LETTER E WITH TILDE
ENCODING 7868
SWIDTH 1500 0
DWIDTH 6 0
BBX 6 12 0 -2
BITMAP
14
28
00
7C
40
40
70
40
40
7C
00
00
ENDCHAR
STARTCHAR LATIN SMALL LETTER E WITH TILDE
ENCODING 7869
SWIDTH 1500 0
DWIDTH 6 0
BBX 6 12 0 -2
BITMAP
00
00
14
28
00
38
44
7C
40
38
00
00
ENDCHAR
STARTCHAR LATIN CAPITAL LETTER E WITH CIRCUMFLEX AND ACUTE
ENCODING 7870
SWIDTH 1500 0
DWIDTH 6 0
BBX 6 12 0 -2
BITMAP
44
A8
00
7C
40
40
70
40
40
7C
00
00
ENDCHAR
STARTCHAR LATIN SMALL LETTER E WITH CIRCUMFLEX AND ACUTE
ENCODING 7871
SWIDTH 1500 0
DWIDTH 6 0
BBX 6 12 0 -2
BITMAP
04
08
20
50
00
38
44
7C
40
38
00
00
ENDCHAR
STARTCHAR LATIN CAPITAL LETTER E WITH CIRCUMFLEX AND GRAVE
ENCODING 7872
SWIDTH 1500 0
DWIDTH 6 0
BBX 6 12 0 -2
BITMAP
88
54
00
7C
40
40
70
40
40
7C
00
00
ENDCHAR
STARTCHAR LATIN SMALL LETTER E WITH CIRCUMFLEX AND GRAVE
ENCODING 7873
SWIDTH 1500 0
DWIDTH 6 0
BBX 6 12 0 -2
BITMAP
40
20
08
14
00
38
44
7C
40
38
00
00
ENDCHAR
STARTCHAR LATIN CAPITAL LETTER E WITH CIRCUMFLEX AND HOOK ABOVE
ENCODING 7874
SWIDTH 1500 0
DWIDTH 6 0
BBX 6 12 0 -2
BITMAP
58
A4
08
7C
40
40
70
40
40
7C
00
00
ENDCHAR
STARTCHAR LATIN SMALL LETTER E WITH CIRCUMFLEX AND HOOK ABOVE
ENCODING 7875
SWIDTH 1500 0
DWIDTH 6 0
BBX 6 12 0 -2
BITMAP
18
04
28
50
00
38
44
7C
40
38
00
00
ENDCHAR
STARTCHAR LATIN CAPITAL LETTER E WITH CIRCUMFLEX AND TILDE
ENCODING 7876
SWIDTH 1500 0
DWIDTH 6 0
BBX 6 12 0 -2
BITMAP
28
50
28
7C
40
40
70
40
40
7C
00
00
ENDCHAR
STARTCHAR LATIN SMALL LETTER E WITH CIRCUMFLEX AND TILDE
ENCODING 7877
SWIDTH 1500 0
DWIDTH 6 0
BBX 6 12 0 -2
BITMAP
14
28
10
28
00
38
44
7C
40
38
00
00
ENDCHAR
STARTCHAR LATIN CAPITAL LETTER E WITH CIRCUMFLEX AND DOT BELOW
ENCODING 7878
SWIDTH 1500 0
DWIDTH 6 0
BBX 6 12 0 -2
BITMAP
10
28
00
7C
40
40
70
40
40
7C
00
10
ENDCHAR
STARTCHAR LATIN SMALL LETTER E WITH CIRCUMFLEX AND DOT BELOW
ENCODING 7879
SWIDTH 1500 0
DWIDTH 6 0
BBX 6 12 0 -2
BITMAP
00
00
10
28
00
38
44
7C
40
38
00
10
ENDCHAR
STARTCHAR LATIN CAPITAL LETTER I WITH HOOK ABOVE
ENCODING 7880
SWIDTH 1500 0
DWIDTH 6 0
BBX 6 12 0 -2
BITMAP
30
08
10
38
10
10
10
10
10
38
00
00
ENDCHAR
STARTCHAR LATIN SMALL LETTER I WITH HOOK ABOVE
ENCODING 7881
SWIDTH 1500 0
DWIDTH 6 0
BBX 6 12 0 -2
BITMAP
00
30
08
10
00
30
10
10
10
10
00
00
ENDCHAR
STARTCHAR LATIN CAPITAL LETTER I WITH DOT BELOW
ENCODING 7882
SWIDTH 1500 0
DWIDTH 6 0
BBX 6 12 0 -2
BITMAP
00
00
00
38
10
10
10
10
10
38
00
10
ENDCHAR
STARTCHAR LATIN SMALL LETTER I WITH DOT BELOW
ENCODING 7883
SWIDTH 1500 0
DWIDTH 6 0
BBX 6 12 0 -2
BITMAP
00
00
00
10
00
30
10
10
10
10
00
10
ENDCHAR
STARTCHAR LATIN CAPITAL LETTER O WITH DOT BELOW
ENCODING 7884
SWIDTH 1500 0
DWIDTH 6 0
BBX 6 12 0 -2
BITMAP
00
00
00
38
44
44
44
44
44
38
00
10
ENDCHAR
STARTCHAR LATIN SMALL LETTER O WITH DOT BELOW
ENCODING 7885
SWIDTH 1500 0
DWIDTH 6 0
BBX 6 12 0 -2
BITMAP
00
00
00
00
00
38
44
44
44
38
00
10
ENDCHAR
STARTCHAR LATIN CAPITAL LETTER O WITH HOOK ABOVE
ENCODING 7886
SWIDTH 1500 0
DWIDTH 6 0
BBX 6 12 0 -2
BITMAP
30
08
10
38
44
44
44
44
44
38
00
00
ENDCHAR
STARTCHAR LATIN SMALL LETTER O WITH HOOK ABOVE
ENCODING 7887
SWIDTH 1500 0
DWIDTH 6 0
BBX 6 12 0 -2
BITMAP
00
30
08
10
00
38
44
44
44
38
00
00
ENDCHAR
STARTCHAR LATIN CAPITAL LETTER O WITH CIRCUMFLEX AND ACUTE
ENCODING 7888
SWIDTH 1500 0
DWIDTH 6 0
BBX 6 12 0 -2
BITMAP
44
A8
00
38
44
44
44
44
44
38
00
00
ENDCHAR
STARTCHAR LATIN SMALL LETTER O WITH CIRCUMFLEX AND ACUTE
ENCODING 7889
SWIDTH 1500 0
DWIDTH 6 0
BBX 6 12 0 -2
BITMAP
04
08
20
50
00
38
44
44
44
38
00
00
ENDCHAR
STARTCHAR LATIN CAPITAL LETTER O WITH CIRCUMFLEX AND GRAVE
ENCODING 7890
SWIDTH 1500 0
DWIDTH 6 0
BBX 6 12 0 -2
BITMAP
88
54
00
38
44
44
44
44
44
38
00
00
ENDCHAR
STARTCHAR LATIN SMALL LETTER O WITH CIRCUMFLEX AND GRAVE
ENCODING 7891
SWIDTH 1500 0
DWIDTH 6 0
BBX 6 12 0 -2
BITMAP
40
20
08
14
00
38
44
44
44
38
00
00
ENDCHAR
STARTCHAR LATIN CAPITAL LETTER O WITH CIRCUMFLEX AND HOOK ABOVE
ENCODING 7892
SWIDTH 1500 0
DWIDTH 6 0
BBX 6 12 0 -2
BITMAP
58
A4
08
38
44
44
44
44
44
38
00
00
ENDCHAR
STARTCHAR LATIN SMALL LETTER O WITH CIRCUMFLEX AND HOOK ABOVE
ENCODING 7893
SWIDTH 1500 0
DWIDTH 6 0
BBX 6 12 0 -2
BITMAP
18
04
28
50
00
38
44
44
44
38
00
00
ENDCHAR
STARTCHAR LATIN CAPITAL LETTER O WITH CIRCUMFLEX AND TILDE
ENCODING 7894
SWIDTH 1500 0
DWIDTH 6 0
BBX 6 12 0 -2
BITMAP
28
50
28
38
44
44
44
44
44
38
00
00
ENDCHAR
STARTCHAR LATIN SMALL LETTER O WITH CIRCUMFLEX AND TILDE
ENCODING 7895
SWIDTH 1500 0
DWIDTH 6 0
BBX 6 12 0 -2
BITMAP
14
28
10
28
00
38
44
44
44
38
00
00
ENDCHAR
STARTCHAR LATIN CAPITAL LETTER O WITH CIRCUMFLEX AND DOT BELOW
ENCODING 7896
SWIDTH 1500 0
DWIDTH 6 0
BBX 6 12 0 -2
BITMAP
10
28
00
38
44
44
44
44
44
38
00
10
ENDCHAR
STARTCHAR LATIN SMALL LETTER O WITH CIRCUMFLEX AND DOT BELOW
ENCODING 7897
SWIDTH 1500 0
DWIDTH 6 0
BBX 6 12 0 -2
BITMAP
00
00
10
28
00
38
44
44
44
38
00
10
ENDCHAR
STARTCHAR LATIN CAPITAL LETTER O WITH HORN AND ACUTE
ENCODING 7898
SWIDTH 1500 0
DWIDTH 6 0
BBX 6 12 0 -2
BITMAP
10
20
04
34
4C
48
48
48
48
30
00
00
ENDCHAR
STARTCHAR LATIN SMALL LETTER O WITH HORN AND ACUTE
ENCODING 7899
SWIDTH 1500 0
DWIDTH 6 0
BBX 6 12 0 -2
BITMAP
00
00
10
20
04
34
4C
48
48
30
00
00
ENDCHAR
STARTCHAR LATIN CAPITAL LETTER O WITH HORN AND GRAVE
ENCODING 7900
SWIDTH 1500 0
DWIDTH 6 0
BBX 6 12 0 -2
BITMAP
20
10
04
34
4C
48
48
48
48
30
00
00
ENDCHAR
STARTCHAR LATIN SMALL LETTER O WITH HORN AND GRAVE
ENCODING 7901
SWIDTH 1500 0
DWIDTH 6 0
BBX 6 12 0 -2
BITMAP
00
00
20
10
04
34
4C
48
48
30
00
00
ENDCHAR
STARTCHAR LATIN CAPITAL LETTER O WITH HORN AND HOOK ABOVE
ENCODING 7902
SWIDTH 1500 0
DWIDTH 6 0
BBX 6 12 0 -2
BITMAP
60
10
24
34
4C
48
48
48
48
30
00
00
ENDCHAR
STARTCHAR LATIN SMALL LETTER O WITH HORN AND HOOK ABOVE
ENCODING 7903
SWIDTH 1500 0
DWIDTH 6 0
BBX 6 12 0 -2
BITMAP
00
60
10
20
04
34
4C
48
48
30
00
00
ENDCHAR
STARTCHAR LATIN CAPITAL LETTER O WITH HORN AND TILDE
ENCODING 7904
SWIDTH 1500 0
DWIDTH 6 0
BBX 6 12 0 -2
BITMAP
28
50
04
34
4C
48
48
48
48
30
00
00
ENDCHAR
STARTCHAR LATIN SMALL LETTER O WITH HORN AND TILDE
ENCODING 7905
SWIDTH 1500 0
DWIDTH 6 0
BBX 6 12 0 -2
BITMAP
00
00
28
50
04
34
4C
48
48
30
00
00
ENDCHAR
STARTCHAR LATIN CAPITAL LETTER O WITH HORN AND DOT BELOW
ENCODING 7906
SWIDTH 1500 0
DWIDTH 6 0
BBX 6 12 0 -2
BITMAP
00
00
04
34
4C
48
48
48
48
30
00
10
ENDCHAR
STARTCHAR LATIN SMALL LETTER O WITH HORN AND DOT BELOW
ENCODING 7907
SWIDTH 1500 0
DWIDTH 6 0
BBX 6 12 0 -2
BITMAP
00
00
00
00
04
34
4C
48
48
30
00
10
ENDCHAR
STARTCHAR LATIN CAPITAL LETTER U WITH DOT BELOW
ENCODING 7908
SWIDTH 1500 0
DWIDTH 6 0
BBX 6 12 0 -2
BITMAP
00
00
00
44
44
44
44
44
44
38
00
10
ENDCHAR
STARTCHAR LATIN SMALL LETTER U WITH DOT BELOW
ENCODING 7909
SWIDTH 1500 0
DWIDTH 6 0
BBX 6 12 0 -2
BITMAP
00
00
00
00
00
44
44
44
4C
34
00
10
ENDCHAR
STARTCHAR LATIN CAPITAL LETTER U WITH HOOK ABOVE
ENCODING 7910
SWIDTH 1500 0
DWIDTH 6 0
BBX 6 12 0 -2
BITMAP
30
08
10
44
44
44
44
44
44
38
00
00
ENDCHAR
STARTCHAR LATIN SMALL LETTER U WITH HOOK ABOVE
ENCODING 7911
SWIDTH 1500 0
DWIDTH 6 0
BBX 6 12 0 -2
BITMAP
00
30
08
10
00
44
44
44
4C
34
00
00
ENDCHAR
STARTCHAR LATIN CAPITAL LETTER U WITH HORN AND ACUTE
ENCODING 7912
SWIDTH 1500 0
DWIDTH 6 0
BBX 6 12 0 -2
BITMAP
10
20
04
4C
4C
48
48
48
48
30
00
00
ENDCHAR
STARTCHAR LATIN SMALL LETTER U WITH HORN AND ACUTE
ENCODING 7913
SWIDTH 1500 0
DWIDTH 6 0
BBX 6 12 0 -2
BITMAP
00
00
10
20
04
4C
4C
48
48
38
00
00
ENDCHAR
STARTCHAR LATIN CAPITAL LETTER U WITH HORN AND GRAVE
ENCODING 7914
SWIDTH 1500 0
DWIDTH 6 0
BBX 6 12 0 -2
BITMAP
20
10
04
4C
4C
48
48
48
48
30
00
00
ENDCHAR
STARTCHAR LATIN SMALL LETTER U WITH HORN AND GRAVE
ENCODING 7915
SWIDTH 1500 0
DWIDTH 6 0
BBX 6 12 0 -2
BITMAP
00
00
20
10
04
4C
4C
48
48
38
00
00
ENDCHAR
STARTCHAR LATIN CAPITAL LETTER U WITH HORN AND HOOK ABOVE
ENCODING 7916
SWIDTH 1500 0
DWIDTH 6 0
BBX 6 12 0 -2
BITMAP
60
10
24
4C
4C
48
48
48
48
30
00
00
ENDCHAR
STARTCHAR LATIN SMALL LETTER U WITH HORN AND HOOK ABOVE
ENCODING 7917
SWIDTH 1500 0
DWIDTH 6 0
BBX 6 12 0 -2
BITMAP
00
60
10
20
04
4C
4C
48
48
38
00
00
ENDCHAR
STARTCHAR LATIN CAPITAL LETTER U WITH HORN AND TILDE
ENCODING 7918
SWIDTH 1500 0
DWIDTH 6 0
BBX 6 12 0 -2
BITMAP
28
50
04
4C
4C
48
48
48
48
30
00
00
ENDCHAR
STARTCHAR LATIN SMALL LETTER U WITH HORN AND TILDE
ENCODING 7919
SWIDTH 1500 0
DWIDTH 6 0
BBX 6 12 0 -2
BITMAP
00
00
28
50
04
4C
4C
48
48
38
00
00
ENDCHAR
STARTCHAR LATIN CAPITAL LETTER U WITH HORN AND DOT BELOW
ENCODING 7920
SWIDTH 1500 0
DWIDTH 6 0
BBX 6 12 0 -2
BITMAP
00
00
04
4C
4C
48
48
48
48
30
00
10
ENDCHAR
STARTCHAR LATIN SMALL LETTER U WITH HORN AND DOT BELOW
ENCODING 7921
SWIDTH 1500 0
DWIDTH 6 0
BBX 6 12 0 -2
BITMAP
00
00
00
00
04
4C
4C
48
48
38
00
10
ENDCHAR
STARTCHAR LATIN CAPITAL LETTER Y WITH GRAVE
ENCODING 7922
SWIDTH 1500 0
DWIDTH 6 0
BBX 6 12 0 -2
BITMAP
20
10
00
44
44
28
10
10
10
10
00
00
ENDCHAR
STARTCHAR LATIN SMALL LETTER Y WITH GRAVE
ENCODING 7923
SWIDTH 1500 0
DWIDTH 6 0
BBX 6 12 0 -2
BITMAP
00
00
20
10
00
44
44
44
4C
34
04
18
ENDCHAR
STARTCHAR LATIN CAPITAL LETTER Y WITH DOT BELOW
ENCODING 7924
SWIDTH 1500 0
DWIDTH 6 0
BBX 6 12 0 -2
BITMAP
00
00
00
44
44
28
10
10
10
10
00
10
ENDCHAR
STARTCHAR LATIN SMALL LETTER Y WITH DOT BELOW
ENCODING 7925
SWIDTH 1500 0
DWIDTH 6 0
BBX 6 12 0 -2
BITMAP
00
00
00
00
00
44
44
44
4C
34
08
34
ENDCHAR
STARTCHAR LATIN CAPITAL LETTER Y WITH HOOK ABOVE
ENCODING 7926
SWIDTH 1500 0
DWIDTH 6 0
BBX 6 12 0 -2
BITMAP
30
08
10
44
44
28
10
10
10
10
00
00
ENDCHAR
STARTCHAR LATIN SMALL LETTER Y WITH HOOK ABOVE
ENCODING 7927
SWIDTH 1500 0
DWIDTH 6 0
BBX 6 12 0 -2
BITMAP
00
30
08
10
00
44
44
44
4C
34
04
38
ENDCHAR
STARTCHAR LATIN CAPITAL LETTER Y WITH TILDE
ENCODING 7928
SWIDTH 1500 0
DWIDTH 6 0
BBX 6 12 0 -2
BITMAP
14
28
00
44
44
28
10
10
10
10
00
00
ENDCHAR
STARTCHAR LATIN SMALL LETTER Y WITH TILDE
ENCODING 7929
SWIDTH 1500 0
DWIDTH 6 0
BBX 6 12 0 -2
BITMAP
00
00
14
28
00
44
44
44
4C
34
04
38
ENDCHAR
STARTCHAR EN QUAD
ENCODING 8192
SWIDTH 1500 0
DWIDTH 6 0
BBX 6 12 0 -2
BITMAP
00
00
00
00
00
00
00
00
00
00
00
00
ENDCHAR
STARTCHAR EM QUAD
ENCODING 8193
SWIDTH 1500 0
DWIDTH 6 0
BBX 6 12 0 -2
BITMAP
00
00
00
00
00
00
00
00
00
00
00
00
ENDCHAR
STARTCHAR EN SPACE
ENCODING 8194
SWIDTH 1500 0
DWIDTH 6 0
BBX 6 12 0 -2
BITMAP
00
00
00
00
00
00
00
00
00
00
00
00
ENDCHAR
STARTCHAR EM SPACE
ENCODING 8195
SWIDTH 1500 0
DWIDTH 6 0
BBX 6 12 0 -2
BITMAP
00
00
00
00
00
00
00
00
00
00
00
00
ENDCHAR
STARTCHAR THREE-PER-EM SPACE
ENCODING 8196
SWIDTH 1500 0
DWIDTH 6 0
BBX 6 12 0 -2
BITMAP
00
00
00
00
00
00
00
00
00
00
00
00
ENDCHAR
STARTCHAR FOUR-PER-EM SPACE
ENCODING 8197
SWIDTH 1500 0
DWIDTH 6 0
BBX 6 12 0 -2
BITMAP
00
00
00
00
00
00
00
00
00
00
00
00
ENDCHAR
STARTCHAR SIX-PER-EM SPACE
ENCODING 8198
SWIDTH 1500 0
DWIDTH 6 0
BBX 6 12 0 -2
BITMAP
00
00
00
00
00
00
00
00
00
00
00
00
ENDCHAR
STARTCHAR FIGURE SPACE
ENCODING 8199
SWIDTH 1500 0
DWIDTH 6 0
BBX 6 12 0 -2
BITMAP
00
00
00
00
00
00
00
00
00
00
00
00
ENDCHAR
STARTCHAR PUNCTUATION SPACE
ENCODING 8200
SWIDTH 1500 0
DWIDTH 6 0
BBX 6 12 0 -2
BITMAP
00
00
00
00
00
00
00
00
00
00
00
00
ENDCHAR
STARTCHAR THIN SPACE
ENCODING 8201
SWIDTH 1500 0
DWIDTH 6 0
BBX 6 12 0 -2
BITMAP
00
00
00
00
00
00
00
00
00
00
00
00
ENDCHAR
STARTCHAR HAIR SPACE
ENCODING 8202
SWIDTH 1500 0
DWIDTH 6 0
BBX 6 12 0 -2
BITMAP
00
00
00
00
00
00
00
00
00
00
00
00
ENDCHAR
STARTCHAR ZERO WIDTH SPACE
ENCODING 8203
SWIDTH 1500 0
DWIDTH 6 0
BBX 6 12 0 -2
BITMAP
00
00
00
00
00
00
00
00
00
00
00
00
ENDCHAR
STARTCHAR ZERO WIDTH NON-JOINER
ENCODING 8204
SWIDTH 1500 0
DWIDTH 6 0
BBX 6 12 0 -2
BITMAP
00
00
00
00
00
00
00
00
00
00
00
00
ENDCHAR
STARTCHAR ZERO WIDTH JOINER
ENCODING 8205
SWIDTH 1500 0
DWIDTH 6 0
BBX 6 12 0 -2
BITMAP
00
00
00
00
00
00
00
00
00
00
00
00
ENDCHAR
STARTCHAR LEFT-TO-RIGHT MARK
ENCODING 8206
SWIDTH 1500 0
DWIDTH 6 0
BBX 6 12 0 -2
BITMAP
00
00
00
00
00
00
00
00
00
00
00
00
ENDCHAR
STARTCHAR RIGHT-TO-LEFT MARK
ENCODING 8207
SWIDTH 1500 0
DWIDTH 6 0
BBX 6 12 0 -2
BITMAP
00
00
00
00
00
00
00
00
00
00
00
00
ENDCHAR
STARTCHAR HYPHEN
ENCODING 8208
SWIDTH 1500 0
DWIDTH 6 0
BBX 6 12 0 -2
BITMAP
00
00
00
00
00
00
38
00
00
00
00
00
ENDCHAR
STARTCHAR NON-BREAKING HYPHEN
ENCODING 8209
SWIDTH 1500 0
DWIDTH 6 0
BBX 6 12 0 -2
BITMAP
00
00
00
00
00
00
38
00
00
00
00
00
ENDCHAR
STARTCHAR FIGURE DASH
ENCODING 8210
SWIDTH 1500 0
DWIDTH 6 0
BBX 6 12 0 -2
BITMAP
00
00
00
00
00
00
7C
00
00
00
00
00
ENDCHAR
STARTCHAR EN DASH
ENCODING 8211
SWIDTH 1500 0
DWIDTH 6 0
BBX 6 12 0 -2
BITMAP
00
00
00
00
00
00
78
00
00
00
00
00
ENDCHAR
STARTCHAR EM DASH
ENCODING 8212
SWIDTH 1500 0
DWIDTH 6 0
BBX 6 12 0 -2
BITMAP
00
00
00
00
00
00
FC
00
00
00
00
00
ENDCHAR
STARTCHAR HORIZONTAL BAR
ENCODING 8213
SWIDTH 1500 0
DWIDTH 6 0
BBX 6 12 0 -2
BITMAP
00
00
00
00
00
00
FC
00
00
00
00
00
ENDCHAR
STARTCHAR DOUBLE VERTICAL LINE
ENCODING 8214
SWIDTH 1500 0
DWIDTH 6 0
BBX 6 12 0 -2
BITMAP
00
28
28
28
28
28
28
28
28
28
28
28
ENDCHAR
STARTCHAR DOUBLE LOW LINE
ENCODING 8215
SWIDTH 1500 0
DWIDTH 6 0
BBX 6 12 0 -2
BITMAP
00
00
00
00
00
00
00
00
00
7C
00
7C
ENDCHAR
STARTCHAR LEFT SINGLE QUOTATION MARK
ENCODING 8216
SWIDTH 1500 0
DWIDTH 6 0
BBX 6 12 0 -2
BITMAP
08
10
10
00
00
00
00
00
00
00
00
00
ENDCHAR
STARTCHAR RIGHT SINGLE QUOTATION MARK
ENCODING 8217
SWIDTH 1500 0
DWIDTH 6 0
BBX 6 12 0 -2
BITMAP
10
10
20
00
00
00
00
00
00
00
00
00
ENDCHAR
STARTCHAR SINGLE LOW-9 QUOTATION MARK
ENCODING 8218
SWIDTH 1500 0
DWIDTH 6 0
BBX 6 12 0 -2
BITMAP
00
00
00
00
00
00
00
00
00
10
10
20
ENDCHAR
STARTCHAR SINGLE HIGH-REVERSED-9 QUOTATION MARK
ENCODING 8219
SWIDTH 1500 0
DWIDTH 6 0
BBX 6 12 0 -2
BITMAP
10
10
08
00
00
00
00
00
00
00
00
00
ENDCHAR
STARTCHAR LEFT DOUBLE QUOTATION MARK
ENCODING 8220
SWIDTH 1500 0
DWIDTH 6 0
BBX 6 12 0 -2
BITMAP
14
28
28
00
00
00
00
00
00
00
00
00
ENDCHAR
STARTCHAR RIGHT DOUBLE QUOTATION MARK
ENCODING 8221
SWIDTH 1500 0
DWIDTH 6 0
BBX 6 12 0 -2
BITMAP
28
28
50
00
00
00
00
00
00
00
00
00
ENDCHAR
STARTCHAR DOUBLE LOW-9 QUOTATION MARK
ENCODING 8222
SWIDTH 1500 0
DWIDTH 6 0
BBX 6 12 0 -2
BITMAP
00
00
00
00
00
00
00
00
00
28
28
50
ENDCHAR
STARTCHAR DOUBLE HIGH-REVERSED-9 QUOTATION MARK
ENCODING 8223
SWIDTH 1500 0
DWIDTH 6 0
BBX 6 12 0 -2
BITMAP
28
28
14
00
00
00
00
00
00
00
00
00
ENDCHAR
STARTCHAR DAGGER
ENCODING 8224
SWIDTH 1500 0
DWIDTH 6 0
BBX 6 12 0 -2
BITMAP
00
00
10
10
7C
10
10
10
10
10
00
00
ENDCHAR
STARTCHAR DOUBLE DAGGER
ENCODING 8225
SWIDTH 1500 0
DWIDTH 6 0
BBX 6 12 0 -2
BITMAP
00
00
10
10
7C
10
10
7C
10
10
00
00
ENDCHAR
STARTCHAR BULLET
ENCODING 8226
SWIDTH 1500 0
DWIDTH 6 0
BBX 6 12 0 -2
BITMAP
00
00
00
00
30
78
78
30
00
00
00
00
ENDCHAR
STARTCHAR TRIANGULAR BULLET
ENCODING 8227
SWIDTH 1500 0
DWIDTH 6 0
BBX 6 12 0 -2
BITMAP
00
00
00
00
00
30
38
30
00
00
00
00
ENDCHAR
STARTCHAR ONE DOT LEADER
ENCODING 8228
SWIDTH 1500 0
DWIDTH 6 0
BBX 6 12 0 -2
BITMAP
00
00
00
00
00
00
00
00
00
10
00
00
ENDCHAR
STARTCHAR TWO DOT LEADER
ENCODING 8229
SWIDTH 1500 0
DWIDTH 6 0
BBX 6 12 0 -2
BITMAP
00
00
00
00
00
00
00
00
00
24
00
00
ENDCHAR
STARTCHAR HORIZONTAL ELLIPSIS
ENCODING 8230
SWIDTH 1500 0
DWIDTH 6 0
BBX 6 12 0 -2
BITMAP
00
00
00
00
00
00
00
00
00
54
00
00
ENDCHAR
STARTCHAR HYPHENATION POINT
ENCODING 8231
SWIDTH 1500 0
DWIDTH 6 0
BBX 6 12 0 -2
BITMAP
00
00
00
00
00
00
10
00
00
00
00
00
ENDCHAR
STARTCHAR LINE SEPARATOR
ENCODING 8232
SWIDTH 1500 0
DWIDTH 6 0
BBX 6 12 0 -2
BITMAP
00
00
00
00
00
00
00
00
00
00
00
00
ENDCHAR
STARTCHAR PARAGRAPH SEPARATOR
ENCODING 8233
SWIDTH 1500 0
DWIDTH 6 0
BBX 6 12 0 -2
BITMAP
00
00
00
00
00
00
00
00
00
00
00
00
ENDCHAR
STARTCHAR LEFT-TO-RIGHT EMBEDDING
ENCODING 8234
SWIDTH 1500 0
DWIDTH 6 0
BBX 6 12 0 -2
BITMAP
00
00
00
00
00
00
00
00
00
00
00
00
ENDCHAR
STARTCHAR RIGHT-TO-LEFT EMBEDDING
ENCODING 8235
SWIDTH 1500 0
DWIDTH 6 0
BBX 6 12 0 -2
BITMAP
00
00
00
00
00
00
00
00
00
00
00
00
ENDCHAR
STARTCHAR POP DIRECTIONAL FORMATTING
ENCODING 8236
SWIDTH 1500 0
DWIDTH 6 0
BBX 6 12 0 -2
BITMAP
00
00
00
00
00
00
00
00
00
00
00
00
ENDCHAR
STARTCHAR LEFT-TO-RIGHT OVERRIDE
ENCODING 8237
SWIDTH 1500 0
DWIDTH 6 0
BBX 6 12 0 -2
BITMAP
00
00
00
00
00
00
00
00
00
00
00
00
ENDCHAR
STARTCHAR RIGHT-TO-LEFT OVERRIDE
ENCODING 8238
SWIDTH 1500 0
DWIDTH 6 0
BBX 6 12 0 -2
BITMAP
00
00
00
00
00
00
00
00
00
00
00
00
ENDCHAR
STARTCHAR NARROW NO-BREAK SPACE
ENCODING 8239
SWIDTH 1500 0
DWIDTH 6 0
BBX 6 12 0 -2
BITMAP
00
00
00
00
00
00
00
00
00
00
00
00
ENDCHAR
STARTCHAR PER MILLE SIGN
ENCODING 8240
SWIDTH 1500 0
DWIDTH 6 0
BBX 6 12 0 -2
BITMAP
00
00
00
40
A8
50
20
68
D4
28
00
00
ENDCHAR
STARTCHAR PER TEN THOUSAND SIGN
ENCODING 8241
SWIDTH 1500 0
DWIDTH 6 0
BBX 6 12 0 -2
BITMAP
00
00
00
C8
D0
20
40
D4
7C
54
00
00
ENDCHAR
STARTCHAR PRIME
ENCODING 8242
SWIDTH 1500 0
DWIDTH 6 0
BBX 6 12 0 -2
BITMAP
00
00
10
20
40
00
00
00
00
00
00
00
ENDCHAR
STARTCHAR DOUBLE PRIME
ENCODING 8243
SWIDTH 1500 0
DWIDTH 6 0
BBX 6 12 0 -2
BITMAP
00
00
14
28
50
00
00
00
00
00
00
00
ENDCHAR
STARTCHAR TRIPLE PRIME
ENCODING 8244
SWIDTH 1500 0
DWIDTH 6 0
BBX 6 12 0 -2
BITMAP
00
00
54
A8
50
00
00
00
00
00
00
00
ENDCHAR
STARTCHAR REVERSED PRIME
ENCODING 8245
SWIDTH 1500 0
DWIDTH 6 0
BBX 6 12 0 -2
BITMAP
00
00
10
08
04
00
00
00
00
00
00
00
ENDCHAR
STARTCHAR REVERSED DOUBLE PRIME
ENCODING 8246
SWIDTH 1500 0
DWIDTH 6 0
BBX 6 12 0 -2
BITMAP
00
00
50
28
14
00
00
00
00
00
00
00
ENDCHAR
STARTCHAR REVERSED TRIPLE PRIME
ENCODING 8247
SWIDTH 1500 0
DWIDTH 6 0
BBX 6 12 0 -2
BITMAP
00
00
A8
54
28
00
00
00
00
00
00
00
ENDCHAR
STARTCHAR CARET
ENCODING 8248
SWIDTH 1500 0
DWIDTH 6 0
BBX 6 12 0 -2
BITMAP
00
00
00
00
00
00
00
00
00
10
28
44
ENDCHAR
STARTCHAR SINGLE LEFT-POINTING ANGLE QUOTATION MARK
ENCODING 8249
SWIDTH 1500 0
DWIDTH 6 0
BBX 6 12 0 -2
BITMAP
00
00
00
00
00
08
10
20
10
08
00
00
ENDCHAR
STARTCHAR SINGLE RIGHT-POINTING ANGLE QUOTATION MARK
ENCODING 8250
SWIDTH 1500 0
DWIDTH 6 0
BBX 6 12 0 -2
BITMAP
00
00
00
00
00
20
10
08
10
20
00
00
ENDCHAR
STARTCHAR DOUBLE EXCLAMATION MARK
ENCODING 8252
SWIDTH 1500 0
DWIDTH 6 0
BBX 6 12 0 -2
BITMAP
00
00
00
28
28
28
28
28
00
28
00
00
ENDCHAR
STARTCHAR INTERROBANG
ENCODING 8253
SWIDTH 1500 0
DWIDTH 6 0
BBX 6 12 0 -2
BITMAP
00
00
00
78
14
14
18
10
00
10
00
00
ENDCHAR
STARTCHAR OVERLINE
ENCODING 8254
SWIDTH 1500 0
DWIDTH 6 0
BBX 6 12 0 -2
BITMAP
00
7C
00
00
00
00
00
00
00
00
00
00
ENDCHAR
STARTCHAR UNDERTIE
ENCODING 8255
SWIDTH 1500 0
DWIDTH 6 0
BBX 6 12 0 -2
BITMAP
00
00
00
00
00
00
00
00
00
00
44
38
ENDCHAR
STARTCHAR CHARACTER TIE
ENCODING 8256
SWIDTH 1500 0
DWIDTH 6 0
BBX 6 12 0 -2
BITMAP
38
44
00
00
00
00
00
00
00
00
00
00
ENDCHAR
STARTCHAR CARET INSERTION POINT
ENCODING 8257
SWIDTH 1500 0
DWIDTH 6 0
BBX 6 12 0 -2
BITMAP
00
00
00
00
00
00
00
04
08
10
28
44
ENDCHAR
STARTCHAR ASTERISM
ENCODING 8258
SWIDTH 1500 0
DWIDTH 6 0
BBX 6 12 0 -2
BITMAP
00
00
00
28
10
28
00
54
28
54
00
00
ENDCHAR
STARTCHAR HYPHEN BULLET
ENCODING 8259
SWIDTH 1500 0
DWIDTH 6 0
BBX 6 12 0 -2
BITMAP
00
00
00
00
00
00
38
38
00
00
00
00
ENDCHAR
STARTCHAR FRACTION SLASH
ENCODING 8260
SWIDTH 1500 0
DWIDTH 6 0
BBX 6 12 0 -2
BITMAP
00
00
00
00
00
04
08
10
20
40
00
00
ENDCHAR
STARTCHAR LEFT SQUARE BRACKET WITH QUILL
ENCODING 8261
SWIDTH 1500 0
DWIDTH 6 0
BBX 6 12 0 -2
BITMAP
00
18
10
10
10
10
18
10
10
10
10
18
ENDCHAR
STARTCHAR RIGHT SQUARE BRACKET WITH QUILL
ENCODING 8262
SWIDTH 1500 0
DWIDTH 6 0
BBX 6 12 0 -2
BITMAP
00
30
10
10
10
10
30
10
10
10
10
30
ENDCHAR
STARTCHAR DOUBLE QUESTION MARK
ENCODING 8263
SWIDTH 1500 0
DWIDTH 6 0
BBX 6 12 0 -2
BITMAP
00
00
00
78
14
14
28
28
00
28
00
00
ENDCHAR
STARTCHAR QUESTION EXCLAMATION MARK
ENCODING 8264
SWIDTH 1500 0
DWIDTH 6 0
BBX 6 12 0 -2
BITMAP
00
00
00
74
0C
0C
14
24
00
24
00
00
ENDCHAR
STARTCHAR EXCLAMATION QUESTION MARK
ENCODING 8265
SWIDTH 1500 0
DWIDTH 6 0
BBX 6 12 0 -2
BITMAP
00
00
00
78
44
44
48
50
00
50
00
00
ENDCHAR
STARTCHAR TIRONIAN SIGN ET
ENCODING 8266
SWIDTH 1500 0
DWIDTH 6 0
BBX 6 12 0 -2
BITMAP
00
00
00
00
00
00
00
7C
04
08
10
20
ENDCHAR
STARTCHAR REVERSED PILCROW SIGN
ENCODING 8267
SWIDTH 1500 0
DWIDTH 6 0
BBX 6 12 0 -2
BITMAP
00
00
78
5C
5C
5C
58
50
50
50
00
00
ENDCHAR
STARTCHAR BLACK LEFTWARDS BULLET
ENCODING 8268
SWIDTH 1500 0
DWIDTH 6 0
BBX 6 12 0 -2
BITMAP
00
00
00
00
00
34
74
34
00
00
00
00
ENDCHAR
STARTCHAR BLACK RIGHTWARDS BULLET
ENCODING 8269
SWIDTH 1500 0
DWIDTH 6 0
BBX 6 12 0 -2
BITMAP
00
00
00
00
00
58
5C
58
00
00
00
00
ENDCHAR
STARTCHAR LOW ASTERISK
ENCODING 8270
SWIDTH 1500 0
DWIDTH 6 0
BBX 6 12 0 -2
BITMAP
00
00
00
00
00
00
00
28
10
7C
10
28
ENDCHAR
STARTCHAR REVERSED SEMICOLON
ENCODING 8271
SWIDTH 1500 0
DWIDTH 6 0
BBX 6 12 0 -2
BITMAP
00
00
00
00
00
10
00
00
00
10
08
00
ENDCHAR
STARTCHAR CLOSE UP
ENCODING 8272
SWIDTH 1500 0
DWIDTH 6 0
BBX 6 12 0 -2
BITMAP
38
44
00
00
00
00
00
00
00
00
44
38
ENDCHAR
STARTCHAR TWO ASTERISKS ALIGNED VERTICALLY
ENCODING 8273
SWIDTH 1500 0
DWIDTH 6 0
BBX 6 12 0 -2
BITMAP
00
28
10
7C
10
28
00
28
10
7C
10
28
ENDCHAR
STARTCHAR COMMERCIAL MINUS SIGN
ENCODING 8274
SWIDTH 1500 0
DWIDTH 6 0
BBX 6 12 0 -2
BITMAP
00
00
00
60
64
08
10
20
4C
0C
00
00
ENDCHAR
STARTCHAR SWUNG DASH
ENCODING 8275
SWIDTH 1500 0
DWIDTH 6 0
BBX 6 12 0 -2
BITMAP
00
00
00
00
00
64
98
00
00
00
00
00
ENDCHAR
STARTCHAR INVERTED UNDERTIE
ENCODING 8276
SWIDTH 1500 0
DWIDTH 6 0
BBX 6 12 0 -2
BITMAP
00
00
00
00
00
00
00
00
00
00
38
44
ENDCHAR
STARTCHAR FLOWER PUNCTUATION MARK
ENCODING 8277
SWIDTH 1500 0
DWIDTH 6 0
BBX 6 12 0 -2
BITMAP
00
00
00
10
54
38
7C
38
54
10
00
00
ENDCHAR
STARTCHAR THREE DOT PUNCTUATION
ENCODING 8278
SWIDTH 1500 0
DWIDTH 6 0
BBX 6 12 0 -2
BITMAP
00
00
00
00
00
04
00
40
00
04
00
00
ENDCHAR
STARTCHAR QUADRUPLE PRIME
ENCODING 8279
SWIDTH 1500 0
DWIDTH 6 0
BBX 6 12 0 -2
BITMAP
00
00
3C
78
F0
00
00
00
00
00
00
00
ENDCHAR
STARTCHAR FOUR DOT PUNCTUATION
ENCODING 8280
SWIDTH 1500 0
DWIDTH 6 0
BBX 6 12 0 -2
BITMAP
00
00
00
00
00
10
00
44
00
10
00
00
ENDCHAR
STARTCHAR FIVE DOT PUNCTUATION
ENCODING 8281
SWIDTH 1500 0
DWIDTH 6 0
BBX 6 12 0 -2
BITMAP
00
00
00
00
00
44
00
10
00
44
00
00
ENDCHAR
STARTCHAR TWO DOT PUNCTUATION
ENCODING 8282
SWIDTH 1500 0
DWIDTH 6 0
BBX 6 12 0 -2
BITMAP
00
00
00
00
00
10
00
00
00
10
00
00
ENDCHAR
STARTCHAR FOUR DOT MARK
ENCODING 8283
SWIDTH 1500 0
DWIDTH 6 0
BBX 6 12 0 -2
BITMAP
00
00
00
00
10
00
00
44
00
00
10
00
ENDCHAR
STARTCHAR DOTTED CROSS
ENCODING 8284
SWIDTH 1500 0
DWIDTH 6 0
BBX 6 12 0 -2
BITMAP
00
00
00
00
00
54
10
7C
10
54
00
00
ENDCHAR
STARTCHAR TRICOLON
ENCODING 8285
SWIDTH 1500 0
DWIDTH 6 0
BBX 6 12 0 -2
BITMAP
00
00
00
00
00
10
00
10
00
10
00
00
ENDCHAR
STARTCHAR VERTICAL FOUR DOTS
ENCODING 8286
SWIDTH 1500 0
DWIDTH 6 0
BBX 6 12 0 -2
BITMAP
00
00
00
10
00
10
00
10
00
10
00
00
ENDCHAR
STARTCHAR MEDIUM MATHEMATICAL SPACE
ENCODING 8287
SWIDTH 1500 0
DWIDTH 6 0
BBX 6 12 0 -2
BITMAP
00
00
00
00
00
00
00
00
00
00
00
00
ENDCHAR
STARTCHAR WORD JOINER
ENCODING 8288
SWIDTH 1500 0
DWIDTH 6 0
BBX 6 12 0 -2
BITMAP
00
00
00
00
00
00
00
00
00
00
00
00
ENDCHAR
STARTCHAR FUNCTION APPLICATION
ENCODING 8289
SWIDTH 1500 0
DWIDTH 6 0
BBX 6 12 0 -2
BITMAP
00
00
40
80
98
E4
A4
A4
A4
A4
18
00
ENDCHAR
STARTCHAR INVISIBLE TIMES
ENCODING 8290
SWIDTH 1500 0
DWIDTH 6 0
BBX 6 12 0 -2
BITMAP
00
00
00
00
44
28
10
28
44
00
00
00
ENDCHAR
STARTCHAR INVISIBLE SEPARATOR
ENCODING 8291
SWIDTH 1500 0
DWIDTH 6 0
BBX 6 12 0 -2
BITMAP
00
00
00
00
00
00
00
00
00
00
10
20
ENDCHAR
STARTCHAR INVISIBLE PLUS
ENCODING 8292
SWIDTH 1500 0
DWIDTH 6 0
BBX 6 12 0 -2
BITMAP
00
00
00
00
10
10
7C
10
10
00
00
00
ENDCHAR
STARTCHAR char8294
ENCODING 8294
SWIDTH 1500 0
DWIDTH 6 0
BBX 6 12 0 -2
BITMAP
00
00
00
00
00
00
00
00
00
00
00
00
ENDCHAR
STARTCHAR char8295
ENCODING 8295
SWIDTH 1500 0
DWIDTH 6 0
BBX 6 12 0 -2
BITMAP
00
00
00
00
00
00
00
00
00
00
00
00
ENDCHAR
STARTCHAR char8296
ENCODING 8296
SWIDTH 1500 0
DWIDTH 6 0
BBX 6 12 0 -2
BITMAP
00
00
00
00
00
00
00
00
00
00
00
00
ENDCHAR
STARTCHAR char8297
ENCODING 8297
SWIDTH 1500 0
DWIDTH 6 0
BBX 6 12 0 -2
BITMAP
00
00
00
00
00
00
00
00
00
00
00
00
ENDCHAR
STARTCHAR INHIBIT SYMMETRIC SWAPPING
ENCODING 8298
SWIDTH 1500 0
DWIDTH 6 0
BBX 6 12 0 -2
BITMAP
00
00
00
00
00
00
00
00
00
00
00
00
ENDCHAR
STARTCHAR ACTIVATE SYMMETRIC SWAPPING
ENCODING 8299
SWIDTH 1500 0
DWIDTH 6 0
BBX 6 12 0 -2
BITMAP
00
00
00
00
00
00
00
00
00
00
00
00
ENDCHAR
STARTCHAR INHIBIT ARABIC FORM SHAPING
ENCODING 8300
SWIDTH 1500 0
DWIDTH 6 0
BBX 6 12 0 -2
BITMAP
00
00
00
00
00
00
00
00
00
00
00
00
ENDCHAR
STARTCHAR ACTIVATE ARABIC FORM SHAPING
ENCODING 8301
SWIDTH 1500 0
DWIDTH 6 0
BBX 6 12 0 -2
BITMAP
00
00
00
00
00
00
00
00
00
00
00
00
ENDCHAR
STARTCHAR NATIONAL DIGIT SHAPES
ENCODING 8302
SWIDTH 1500 0
DWIDTH 6 0
BBX 6 12 0 -2
BITMAP
00
00
00
00
00
00
00
00
00
00
00
00
ENDCHAR
STARTCHAR NOMINAL DIGIT SHAPES
ENCODING 8303
SWIDTH 1500 0
DWIDTH 6 0
BBX 6 12 0 -2
BITMAP
00
00
00
00
00
00
00
00
00
00
00
00
ENDCHAR
STARTCHAR SUPERSCRIPT LATIN SMALL LETTER N
ENCODING 8319
SWIDTH 1500 0
DWIDTH 6 0
BBX 6 12 0 -2
BITMAP
00
00
00
70
48
48
48
00
00
00
00
00
ENDCHAR
STARTCHAR COLON SIGN
ENCODING 8353
SWIDTH 1500 0
DWIDTH 6 0
BBX 6 12 0 -2
BITMAP
00
00
14
3C
54
54
58
68
68
3C
28
00
ENDCHAR
STARTCHAR MILL SIGN
ENCODING 8357
SWIDTH 1500 0
DWIDTH 6 0
BBX 6 12 0 -2
BITMAP
00
00
00
08
08
68
54
54
54
54
20
20
ENDCHAR
STARTCHAR NAIRA SIGN
ENCODING 8358
SWIDTH 1500 0
DWIDTH 6 0
BBX 6 12 0 -2
BITMAP
00
00
00
44
64
7C
54
7C
4C
44
00
00
ENDCHAR
STARTCHAR PESETA SIGN
ENCODING 8359
SWIDTH 1500 0
DWIDTH 6 0
BBX 6 12 0 -2
BITMAP
00
00
08
68
58
5C
58
68
48
44
00
00
ENDCHAR
STARTCHAR RUPEE SIGN
ENCODING 8360
SWIDTH 1500 0
DWIDTH 6 0
BBX 6 12 0 -2
BITMAP
00
00
00
7C
08
7C
10
20
10
08
00
00
ENDCHAR
STARTCHAR WON SIGN
ENCODING 8361
SWIDTH 1500 0
DWIDTH 6 0
BBX 6 12 0 -2
BITMAP
00
00
00
44
44
7C
44
54
6C
44
00
00
ENDCHAR
STARTCHAR NEW SHEQEL SIGN
ENCODING 8362
SWIDTH 1500 0
DWIDTH 6 0
BBX 6 12 0 -2
BITMAP
00
00
00
00
00
64
54
54
54
4C
00
00
ENDCHAR
STARTCHAR DONG SIGN
ENCODING 8363
SWIDTH 1500 0
DWIDTH 6 0
BBX 6 12 0 -2
BITMAP
00
00
04
3C
04
3C
44
44
44
3C
00
3C
ENDCHAR
STARTCHAR EURO SIGN
ENCODING 8364
SWIDTH 1500 0
DWIDTH 6 0
BBX 6 12 0 -2
BITMAP
00
00
00
1C
20
78
20
78
20
1C
00
00
ENDCHAR
STARTCHAR KIP SIGN
ENCODING 8365
SWIDTH 1500 0
DWIDTH 6 0
BBX 6 12 0 -2
BITMAP
00
00
00
44
48
50
78
50
48
44
00
00
ENDCHAR
STARTCHAR TUGRIK SIGN
ENCODING 8366
SWIDTH 1500 0
DWIDTH 6 0
BBX 6 12 0 -2
BITMAP
00
00
00
7C
10
18
30
18
30
10
00
00
ENDCHAR
STARTCHAR DRACHMA SIGN
ENCODING 8367
SWIDTH 1500 0
DWIDTH 6 0
BBX 6 12 0 -2
BITMAP
00
00
00
60
50
58
54
54
54
78
10
10
ENDCHAR
STARTCHAR PESO SIGN
ENCODING 8369
SWIDTH 1500 0
DWIDTH 6 0
BBX 6 12 0 -2
BITMAP
00
00
00
78
44
7C
44
78
40
40
00
00
ENDCHAR
STARTCHAR GUARANI SIGN
ENCODING 8370
SWIDTH 1500 0
DWIDTH 6 0
BBX 6 12 0 -2
BITMAP
00
00
10
3C
50
50
5C
54
54
3C
10
00
ENDCHAR
STARTCHAR HRYVNIA SIGN
ENCODING 8372
SWIDTH 1500 0
DWIDTH 6 0
BBX 6 12 0 -2
BITMAP
00
00
00
78
04
7C
38
7C
40
3C
00
00
ENDCHAR
STARTCHAR CEDI SIGN
ENCODING 8373
SWIDTH 1500 0
DWIDTH 6 0
BBX 6 12 0 -2
BITMAP
00
00
10
3C
50
50
50
50
50
3C
10
00
ENDCHAR
STARTCHAR TENGE SIGN
ENCODING 8376
SWIDTH 1500 0
DWIDTH 6 0
BBX 6 12 0 -2
BITMAP
00
00
00
7C
00
7C
10
10
10
10
00
00
ENDCHAR
STARTCHAR INDIAN RUPEE SIGN
ENCODING 8377
SWIDTH 1500 0
DWIDTH 6 0
BBX 6 12 0 -2
BITMAP
00
00
00
7C
08
7C
10
20
10
08
00
00
ENDCHAR
STARTCHAR TURKISH LIRA SIGN
ENCODING 8378
SWIDTH 1500 0
DWIDTH 6 0
BBX 6 12 0 -2
BITMAP
00
00
00
20
38
60
38
60
24
38
00
00
ENDCHAR
STARTCHAR MANAT SIGN
ENCODING 8379
SWIDTH 1500 0
DWIDTH 6 0
BBX 6 12 0 -2
BITMAP
00
00
00
10
38
54
54
54
54
44
00
00
ENDCHAR
STARTCHAR RUBLE SIGN
ENCODING 8380
SWIDTH 1500 0
DWIDTH 6 0
BBX 6 12 0 -2
BITMAP
00
00
00
78
44
44
78
40
78
40
00
00
ENDCHAR
STARTCHAR NUMERO SIGN
ENCODING 8470
SWIDTH 1500 0
DWIDTH 6 0
BBX 6 12 0 -2
BITMAP
00
00
00
50
50
78
74
78
50
5C
00
00
ENDCHAR
STARTCHAR TRADE MARK SIGN
ENCODING 8482
SWIDTH 1500 0
DWIDTH 6 0
BBX 6 12 0 -2
BITMAP
F4
5C
54
54
00
00
00
00
00
00
00
00
ENDCHAR
STARTCHAR ANGSTROM SIGN
ENCODING 8491
SWIDTH 1500 0
DWIDTH 6 0
BBX 6 12 0 -2
BITMAP
10
28
10
38
44
44
44
7C
44
44
00
00
ENDCHAR
STARTCHAR LEFTWARDS ARROW
ENCODING 8592
SWIDTH 1500 0
DWIDTH 6 0
BBX 6 12 0 -2
BITMAP
00
00
00
00
20
40
FC
40
20
00
00
00
ENDCHAR
STARTCHAR UPWARDS ARROW
ENCODING 8593
SWIDTH 1500 0
DWIDTH 6 0
BBX 6 12 0 -2
BITMAP
00
00
10
38
54
10
10
10
10
10
00
00
ENDCHAR
STARTCHAR RIGHTWARDS ARROW
ENCODING 8594
SWIDTH 1500 0
DWIDTH 6 0
BBX 6 12 0 -2
BITMAP
00
00
00
00
10
08
FC
08
10
00
00
00
ENDCHAR
STARTCHAR DOWNWARDS ARROW
ENCODING 8595
SWIDTH 1500 0
DWIDTH 6 0
BBX 6 12 0 -2
BITMAP
00
00
10
10
10
10
10
54
38
10
00
00
ENDCHAR
STARTCHAR LEFT RIGHT ARROW
ENCODING 8596
SWIDTH 1500 0
DWIDTH 6 0
BBX 6 12 0 -2
BITMAP
00
00
00
00
20
48
FC
48
10
00
00
00
ENDCHAR
STARTCHAR UP DOWN ARROW
ENCODING 8597
SWIDTH 1500 0
DWIDTH 6 0
BBX 6 12 0 -2
BITMAP
00
00
10
38
54
10
10
54
38
10
00
00
ENDCHAR
STARTCHAR NORTH WEST ARROW
ENCODING 8598
SWIDTH 1500 0
DWIDTH 6 0
BBX 6 12 0 -2
BITMAP
00
00
00
00
F0
C0
A0
90
08
04
00
00
ENDCHAR
STARTCHAR SOUTH EAST ARROW
ENCODING 8600
SWIDTH 1500 0
DWIDTH 6 0
BBX 6 12 0 -2
BITMAP
00
00
00
00
80
40
24
14
0C
3C
00
00
ENDCHAR
STARTCHAR LEFTWARDS ARROW FROM BAR
ENCODING 8612
SWIDTH 1500 0
DWIDTH 6 0
BBX 6 12 0 -2
BITMAP
00
00
00
00
24
44
FC
44
24
00
00
00
ENDCHAR
STARTCHAR RIGHTWARDS ARROW FROM BAR
ENCODING 8614
SWIDTH 1500 0
DWIDTH 6 0
BBX 6 12 0 -2
BITMAP
00
00
00
00
90
88
FC
88
90
00
00
00
ENDCHAR
STARTCHAR UP DOWN ARROW WITH BASE
ENCODING 8616
SWIDTH 1500 0
DWIDTH 6 0
BBX 6 12 0 -2
BITMAP
00
00
10
38
54
10
10
54
38
10
7C
00
ENDCHAR
STARTCHAR LEFTWARDS ARROW WITH HOOK
ENCODING 8617
SWIDTH 1500 0
DWIDTH 6 0
BBX 6 12 0 -2
BITMAP
00
00
00
00
00
28
44
F8
40
20
00
00
ENDCHAR
STARTCHAR DOWNWARDS ARROW WITH CORNER LEFTWARDS
ENCODING 8629
SWIDTH 1500 0
DWIDTH 6 0
BBX 6 12 0 -2
BITMAP
00
00
00
04
04
24
44
F8
40
20
00
00
ENDCHAR
STARTCHAR NORTH WEST ARROW TO LONG BAR
ENCODING 8632
SWIDTH 1500 0
DWIDTH 6 0
BBX 6 12 0 -2
BITMAP
00
00
00
FC
00
F0
C0
A0
90
08
04
00
ENDCHAR
STARTCHAR LEFTWARDS ARROW TO BAR OVER RIGHTWARDS ARROW TO BAR
ENCODING 8633
SWIDTH 1500 0
DWIDTH 6 0
BBX 6 12 0 -2
BITMAP
00
00
00
90
A0
FC
A4
94
FC
14
24
00
ENDCHAR
STARTCHAR LEFTWARDS ARROW OVER RIGHTWARDS ARROW
ENCODING 8646
SWIDTH 1500 0
DWIDTH 6 0
BBX 6 12 0 -2
BITMAP
00
00
00
20
40
FC
50
28
FC
08
10
00
ENDCHAR
STARTCHAR UPWARDS ARROW WITH DOUBLE STROKE
ENCODING 8670
SWIDTH 1500 0
DWIDTH 6 0
BBX 6 12 0 -2
BITMAP
00
00
10
38
54
10
38
10
38
10
00
00
ENDCHAR
STARTCHAR DOWNWARDS ARROW WITH DOUBLE STROKE
ENCODING 8671
SWIDTH 1500 0
DWIDTH 6 0
BBX 6 12 0 -2
BITMAP
00
00
10
38
10
38
10
54
38
10
00
00
ENDCHAR
STARTCHAR LEFTWARDS ARROW TO BAR
ENCODING 8676
SWIDTH 1500 0
DWIDTH 6 0
BBX 6 12 0 -2
BITMAP
00
00
00
00
90
A0
FC
A0
90
00
00
00
ENDCHAR
STARTCHAR RIGHTWARDS ARROW TO BAR
ENCODING 8677
SWIDTH 1500 0
DWIDTH 6 0
BBX 6 12 0 -2
BITMAP
00
00
00
00
24
14
FC
14
24
00
00
00
ENDCHAR
STARTCHAR UPWARDS WHITE ARROW
ENCODING 8679
SWIDTH 1500 0
DWIDTH 6 0
BBX 6 12 0 -2
BITMAP
00
00
00
10
28
44
6C
28
28
38
00
00
ENDCHAR
STARTCHAR UPWARDS WHITE ARROW FROM BAR
ENCODING 8682
SWIDTH 1500 0
DWIDTH 6 0
BBX 6 12 0 -2
BITMAP
00
00
00
10
28
44
6C
28
38
28
38
00
ENDCHAR
STARTCHAR NORTH WEST ARROW TO CORNER
ENCODING 8689
SWIDTH 1500 0
DWIDTH 6 0
BBX 6 12 0 -2
BITMAP
00
00
00
00
F8
80
B8
B0
A8
04
00
00
ENDCHAR
STARTCHAR SOUTH EAST ARROW TO CORNER
ENCODING 8690
SWIDTH 1500 0
DWIDTH 6 0
BBX 6 12 0 -2
BITMAP
00
00
00
00
80
54
34
74
04
7C
00
00
ENDCHAR
STARTCHAR THERE EXISTS
ENCODING 8707
SWIDTH 1500 0
DWIDTH 6 0
BBX 6 12 0 -2
BITMAP
00
00
00
7C
04
04
1C
04
04
7C
00
00
ENDCHAR
STARTCHAR BULLET OPERATOR
ENCODING 8729
SWIDTH 1500 0
DWIDTH 6 0
BBX 6 12 0 -2
BITMAP
00
00
00
00
00
10
38
10
00
00
00
00
ENDCHAR
STARTCHAR SQUARE ROOT
ENCODING 8730
SWIDTH 1500 0
DWIDTH 6 0
BBX 6 12 0 -2
BITMAP
00
00
00
04
04
08
08
90
50
20
00
00
ENDCHAR
STARTCHAR INFINITY
ENCODING 8734
SWIDTH 1500 0
DWIDTH 6 0
BBX 6 12 0 -2
BITMAP
00
00
00
00
28
54
54
54
28
00
00
00
ENDCHAR
STARTCHAR RIGHT ANGLE
ENCODING 8735
SWIDTH 1500 0
DWIDTH 6 0
BBX 6 12 0 -2
BITMAP
00
00
00
00
00
40
40
40
40
7C
00
00
ENDCHAR
STARTCHAR INTERSECTION
ENCODING 8745
SWIDTH 1500 0
DWIDTH 6 0
BBX 6 12 0 -2
BITMAP
00
00
00
00
38
44
44
44
44
44
00
00
ENDCHAR
STARTCHAR ALMOST EQUAL TO
ENCODING 8776
SWIDTH 1500 0
DWIDTH 6 0
BBX 6 12 0 -2
BITMAP
00
00
00
00
00
34
48
34
48
00
00
00
ENDCHAR
STARTCHAR NOT EQUAL TO
ENCODING 8800
SWIDTH 1500 0
DWIDTH 6 0
BBX 6 12 0 -2
BITMAP
00
00
00
00
08
7C
10
7C
20
00
00
00
ENDCHAR
STARTCHAR IDENTICAL TO
ENCODING 8801
SWIDTH 1500 0
DWIDTH 6 0
BBX 6 12 0 -2
BITMAP
00
00
00
00
7C
00
7C
00
7C
00
00
00
ENDCHAR
STARTCHAR LESS-THAN OR EQUAL TO
ENCODING 8804
SWIDTH 1500 0
DWIDTH 6 0
BBX 6 12 0 -2
BITMAP
00
00
00
04
18
60
18
04
00
7C
00
00
ENDCHAR
STARTCHAR GREATER-THAN OR EQUAL TO
ENCODING 8805
SWIDTH 1500 0
DWIDTH 6 0
BBX 6 12 0 -2
BITMAP
00
00
00
40
30
0C
30
40
00
7C
00
00
ENDCHAR
STARTCHAR CIRCLED MINUS
ENCODING 8854
SWIDTH 1500 0
DWIDTH 6 0
BBX 6 12 0 -2
BITMAP
00
00
00
38
44
44
7C
44
44
38
00
00
ENDCHAR
STARTCHAR CIRCLED TIMES
ENCODING 8855
SWIDTH 1500 0
DWIDTH 6 0
BBX 6 12 0 -2
BITMAP
00
00
00
38
44
6C
54
6C
44
38
00
00
ENDCHAR
STARTCHAR CIRCLED DASH
ENCODING 8861
SWIDTH 1500 0
DWIDTH 6 0
BBX 6 12 0 -2
BITMAP
00
00
00
38
44
44
7C
44
44
38
00
00
ENDCHAR
STARTCHAR HOUSE
ENCODING 8962
SWIDTH 1500 0
DWIDTH 6 0
BBX 6 12 0 -2
BITMAP
00
00
00
10
28
44
44
44
44
7C
00
00
ENDCHAR
STARTCHAR UP ARROWHEAD
ENCODING 8963
SWIDTH 1500 0
DWIDTH 6 0
BBX 6 12 0 -2
BITMAP
00
00
00
10
28
44
00
00
00
00
00
00
ENDCHAR
STARTCHAR PROJECTIVE
ENCODING 8965
SWIDTH 1500 0
DWIDTH 6 0
BBX 6 12 0 -2
BITMAP
00
00
00
7C
00
10
28
44
00
00
00
00
ENDCHAR
STARTCHAR REVERSED NOT SIGN
ENCODING 8976
SWIDTH 1500 0
DWIDTH 6 0
BBX 6 12 0 -2
BITMAP
00
00
00
00
00
00
7C
40
00
00
00
00
ENDCHAR
STARTCHAR PLACE OF INTEREST SIGN
ENCODING 8984
SWIDTH 1500 0
DWIDTH 6 0
BBX 6 12 0 -2
BITMAP
00
00
00
00
CC
FC
48
48
FC
CC
00
00
ENDCHAR
STARTCHAR TOP HALF INTEGRAL
ENCODING 8992
SWIDTH 1500 0
DWIDTH 6 0
BBX 6 12 0 -2
BITMAP
00
0C
10
10
10
10
10
10
10
10
10
10
ENDCHAR
STARTCHAR BOTTOM HALF INTEGRAL
ENCODING 8993
SWIDTH 1500 0
DWIDTH 6 0
BBX 6 12 0 -2
BITMAP
10
10
10
10
10
10
10
10
10
10
60
00
ENDCHAR
STARTCHAR UP ARROWHEAD BETWEEN TWO HORIZONTAL BARS
ENCODING 8996
SWIDTH 1500 0
DWIDTH 6 0
BBX 6 12 0 -2
BITMAP
00
00
00
6C
10
28
44
00
00
00
00
00
ENDCHAR
STARTCHAR OPTION KEY
ENCODING 8997
SWIDTH 1500 0
DWIDTH 6 0
BBX 6 12 0 -2
BITMAP
00
00
00
00
00
CC
20
10
0C
00
00
00
ENDCHAR
STARTCHAR ERASE TO THE RIGHT
ENCODING 8998
SWIDTH 1500 0
DWIDTH 6 0
BBX 6 12 0 -2
BITMAP
00
00
00
00
00
F0
A8
DC
A8
F0
00
00
ENDCHAR
STARTCHAR X IN A RECTANGLE BOX
ENCODING 8999
SWIDTH 1500 0
DWIDTH 6 0
BBX 6 12 0 -2
BITMAP
00
00
00
00
00
7C
54
6C
54
7C
00
00
ENDCHAR
STARTCHAR KEYBOARD
ENCODING 9000
SWIDTH 1500 0
DWIDTH 6 0
BBX 6 12 0 -2
BITMAP
00
00
00
00
00
54
00
54
00
38
00
00
ENDCHAR
STARTCHAR ERASE TO THE LEFT
ENCODING 9003
SWIDTH 1500 0
DWIDTH 6 0
BBX 6 12 0 -2
BITMAP
00
00
00
00
00
3C
54
EC
54
3C
00
00
ENDCHAR
STARTCHAR APL FUNCTIONAL SYMBOL CIRCLE STILE
ENCODING 9021
SWIDTH 1500 0
DWIDTH 6 0
BBX 6 12 0 -2
BITMAP
00
00
00
10
10
38
54
54
54
38
10
10
ENDCHAR
STARTCHAR INSERTION SYMBOL
ENCODING 9088
SWIDTH 1500 0
DWIDTH 6 0
BBX 6 12 0 -2
BITMAP
00
00
30
08
38
48
38
00
44
28
10
00
ENDCHAR
STARTCHAR COMPOSITION SYMBOL
ENCODING 9092
SWIDTH 1500 0
DWIDTH 6 0
BBX 6 12 0 -2
BITMAP
00
00
00
00
00
F8
D4
D4
D4
F8
00
00
ENDCHAR
STARTCHAR ENTER SYMBOL
ENCODING 9094
SWIDTH 1500 0
DWIDTH 6 0
BBX 6 12 0 -2
BITMAP
00
00
00
00
00
24
44
FC
40
20
00
00
ENDCHAR
STARTCHAR ALTERNATIVE KEY SYMBOL
ENCODING 9095
SWIDTH 1500 0
DWIDTH 6 0
BBX 6 12 0 -2
BITMAP
00
00
00
00
00
0C
10
20
CC
00
00
00
ENDCHAR
STARTCHAR HELM SYMBOL
ENCODING 9096
SWIDTH 1500 0
DWIDTH 6 0
BBX 6 12 0 -2
BITMAP
00
00
00
10
54
38
54
54
38
54
10
00
ENDCHAR
STARTCHAR BROKEN CIRCLE WITH NORTHWEST ARROW
ENCODING 9099
SWIDTH 1500 0
DWIDTH 6 0
BBX 6 12 0 -2
BITMAP
00
00
00
00
E0
C8
A4
14
44
38
00
00
ENDCHAR
STARTCHAR HORIZONTAL SCAN LINE-1
ENCODING 9146
SWIDTH 1500 0
DWIDTH 6 0
BBX 6 12 0 -2
BITMAP
FC
00
00
00
00
00
00
00
00
00
00
00
ENDCHAR
STARTCHAR HORIZONTAL SCAN LINE-3
ENCODING 9147
SWIDTH 1500 0
DWIDTH 6 0
BBX 6 12 0 -2
BITMAP
00
00
00
FC
00
00
00
00
00
00
00
00
ENDCHAR
STARTCHAR HORIZONTAL SCAN LINE-7
ENCODING 9148
SWIDTH 1500 0
DWIDTH 6 0
BBX 6 12 0 -2
BITMAP
00
00
00
00
00
00
00
00
FC
00
00
00
ENDCHAR
STARTCHAR HORIZONTAL SCAN LINE-9
ENCODING 9149
SWIDTH 1500 0
DWIDTH 6 0
BBX 6 12 0 -2
BITMAP
00
00
00
00
00
00
00
00
00
00
00
FC
ENDCHAR
STARTCHAR RETURN SYMBOL
ENCODING 9166
SWIDTH 1500 0
DWIDTH 6 0
BBX 6 12 0 -2
BITMAP
00
00
00
1C
14
14
34
54
84
58
20
00
ENDCHAR
STARTCHAR EJECT SYMBOL
ENCODING 9167
SWIDTH 1500 0
DWIDTH 6 0
BBX 6 12 0 -2
BITMAP
00
00
00
00
00
10
38
7C
00
7C
00
00
ENDCHAR
STARTCHAR SYMBOL FOR NULL
ENCODING 9216
SWIDTH 1500 0
DWIDTH 6 0
BBX 6 12 0 -2
BITMAP
90
D0
B0
90
48
48
48
30
20
20
20
3C
ENDCHAR
STARTCHAR SYMBOL FOR START OF HEADING
ENCODING 9217
SWIDTH 1500 0
DWIDTH 6 0
BBX 6 12 0 -2
BITMAP
60
80
40
20
F0
48
48
30
24
24
3C
24
ENDCHAR
STARTCHAR SYMBOL FOR START OF TEXT
ENCODING 9218
SWIDTH 1500 0
DWIDTH 6 0
BBX 6 12 0 -2
BITMAP
60
80
40
20
F8
10
10
10
24
24
3C
24
ENDCHAR
STARTCHAR SYMBOL FOR END OF TEXT
ENCODING 9219
SWIDTH 1500 0
DWIDTH 6 0
BBX 6 12 0 -2
BITMAP
E0
80
C0
80
F8
10
10
10
24
18
18
24
ENDCHAR
STARTCHAR SYMBOL FOR END OF TRANSMISSION
ENCODING 9220
SWIDTH 1500 0
DWIDTH 6 0
BBX 6 12 0 -2
BITMAP
E0
80
C0
80
F0
48
48
30
1C
08
08
08
ENDCHAR
STARTCHAR SYMBOL FOR ENQUIRY
ENCODING 9221
SWIDTH 1500 0
DWIDTH 6 0
BBX 6 12 0 -2
BITMAP
E0
80
C0
80
E8
68
58
48
18
24
2C
1C
ENDCHAR
STARTCHAR SYMBOL FOR ACKNOWLEDGE
ENCODING 9222
SWIDTH 1500 0
DWIDTH 6 0
BBX 6 12 0 -2
BITMAP
60
90
F0
90
38
40
40
38
24
28
38
24
ENDCHAR
STARTCHAR SYMBOL FOR BELL
ENCODING 9223
SWIDTH 1500 0
DWIDTH 6 0
BBX 6 12 0 -2
BITMAP
C0
A0
C0
A0
F0
40
60
40
70
20
20
3C
ENDCHAR
STARTCHAR SYMBOL FOR BACKSPACE
ENCODING 9224
SWIDTH 1500 0
DWIDTH 6 0
BBX 6 12 0 -2
BITMAP
00
C0
A0
C0
A0
C0
0C
10
08
04
18
00
ENDCHAR
STARTCHAR SYMBOL FOR HORIZONTAL TABULATION
ENCODING 9225
SWIDTH 1500 0
DWIDTH 6 0
BBX 6 12 0 -2
BITMAP
00
A0
A0
E0
A0
A0
1C
08
08
08
08
00
ENDCHAR
STARTCHAR SYMBOL FOR LINE FEED
ENCODING 9226
SWIDTH 1500 0
DWIDTH 6 0
BBX 6 12 0 -2
BITMAP
00
80
80
80
80
E0
1C
10
18
10
10
00
ENDCHAR
STARTCHAR SYMBOL FOR VERTICAL TABULATION
ENCODING 9227
SWIDTH 1500 0
DWIDTH 6 0
BBX 6 12 0 -2
BITMAP
00
A0
A0
A0
40
40
1C
08
08
08
08
00
ENDCHAR
STARTCHAR SYMBOL FOR FORM FEED
ENCODING 9228
SWIDTH 1500 0
DWIDTH 6 0
BBX 6 12 0 -2
BITMAP
00
E0
80
C0
80
80
1C
10
18
10
10
00
ENDCHAR
STARTCHAR SYMBOL FOR CARRIAGE RETURN
ENCODING 9229
SWIDTH 1500 0
DWIDTH 6 0
BBX 6 12 0 -2
BITMAP
00
60
80
80
80
60
18
14
18
14
14
00
ENDCHAR
STARTCHAR SYMBOL FOR SHIFT OUT
ENCODING 9230
SWIDTH 1500 0
DWIDTH 6 0
BBX 6 12 0 -2
BITMAP
00
60
80
40
20
C0
0C
10
08
04
18
00
ENDCHAR
STARTCHAR SYMBOL FOR SHIFT IN
ENCODING 9231
SWIDTH 1500 0
DWIDTH 6 0
BBX 6 12 0 -2
BITMAP
00
60
80
40
20
C0
1C
08
08
08
1C
00
ENDCHAR
STARTCHAR SYMBOL FOR DATA LINK ESCAPE
ENCODING 9232
SWIDTH 1500 0
DWIDTH 6 0
BBX 6 12 0 -2
BITMAP
E0
90
90
F0
40
40
70
1C
10
18
10
1C
ENDCHAR
STARTCHAR SYMBOL FOR DEVICE CONTROL ONE
ENCODING 9233
SWIDTH 1500 0
DWIDTH 6 0
BBX 6 12 0 -2
BITMAP
E0
90
90
E0
38
40
40
38
04
0C
04
04
ENDCHAR
STARTCHAR SYMBOL FOR DEVICE CONTROL TWO
ENCODING 9234
SWIDTH 1500 0
DWIDTH 6 0
BBX 6 12 0 -2
BITMAP
E0
90
90
E0
38
40
40
38
18
04
08
1C
ENDCHAR
STARTCHAR SYMBOL FOR DEVICE CONTROL THREE
ENCODING 9235
SWIDTH 1500 0
DWIDTH 6 0
BBX 6 12 0 -2
BITMAP
E0
90
90
E0
38
40
40
38
04
08
04
18
ENDCHAR
STARTCHAR SYMBOL FOR DEVICE CONTROL FOUR
ENCODING 9236
SWIDTH 1500 0
DWIDTH 6 0
BBX 6 12 0 -2
BITMAP
E0
90
90
E0
38
40
40
3C
0C
14
3C
04
ENDCHAR
STARTCHAR SYMBOL FOR NEGATIVE ACKNOWLEDGE
ENCODING 9237
SWIDTH 1500 0
DWIDTH 6 0
BBX 6 12 0 -2
BITMAP
90
D0
B0
90
30
48
78
48
24
28
38
24
ENDCHAR
STARTCHAR SYMBOL FOR SYNCHRONOUS IDLE
ENCODING 9238
SWIDTH 1500 0
DWIDTH 6 0
BBX 6 12 0 -2
BITMAP
60
80
40
20
E8
28
10
10
24
34
2C
24
ENDCHAR
STARTCHAR SYMBOL FOR END OF TRANSMISSION BLOCK
ENCODING 9239
SWIDTH 1500 0
DWIDTH 6 0
BBX 6 12 0 -2
BITMAP
E0
80
DC
88
E8
08
00
18
14
18
14
18
ENDCHAR
STARTCHAR SYMBOL FOR CANCEL
ENCODING 9240
SWIDTH 1500 0
DWIDTH 6 0
BBX 6 12 0 -2
BITMAP
70
80
80
70
30
48
78
48
24
34
2C
24
ENDCHAR
STARTCHAR SYMBOL FOR END OF MEDIUM
ENCODING 9241
SWIDTH 1500 0
DWIDTH 6 0
BBX 6 12 0 -2
BITMAP
00
E0
80
C0
80
E0
44
6C
54
44
44
00
ENDCHAR
STARTCHAR SYMBOL FOR SUBSTITUTE
ENCODING 9242
SWIDTH 1500 0
DWIDTH 6 0
BBX 6 12 0 -2
BITMAP
60
80
54
34
D4
1C
00
18
14
18
14
18
ENDCHAR
STARTCHAR SYMBOL FOR ESCAPE
ENCODING 9243
SWIDTH 1500 0
DWIDTH 6 0
BBX 6 12 0 -2
BITMAP
E0
80
C0
80
F0
40
20
10
6C
10
10
0C
ENDCHAR
STARTCHAR SYMBOL FOR FILE SEPARATOR
ENCODING 9244
SWIDTH 1500 0
DWIDTH 6 0
BBX 6 12 0 -2
BITMAP
00
E0
80
C0
80
80
0C
10
08
04
18
00
ENDCHAR
STARTCHAR SYMBOL FOR GROUP SEPARATOR
ENCODING 9245
SWIDTH 1500 0
DWIDTH 6 0
BBX 6 12 0 -2
BITMAP
00
60
80
A0
A0
60
0C
10
08
04
18
00
ENDCHAR
STARTCHAR SYMBOL FOR RECORD SEPARATOR
ENCODING 9246
SWIDTH 1500 0
DWIDTH 6 0
BBX 6 12 0 -2
BITMAP
00
C0
A0
C0
A0
A0
0C
10
08
04
18
00
ENDCHAR
STARTCHAR SYMBOL FOR UNIT SEPARATOR
ENCODING 9247
SWIDTH 1500 0
DWIDTH 6 0
BBX 6 12 0 -2
BITMAP
00
90
90
90
90
60
0C
10
08
04
18
00
ENDCHAR
STARTCHAR SYMBOL FOR SPACE
ENCODING 9248
SWIDTH 1500 0
DWIDTH 6 0
BBX 6 12 0 -2
BITMAP
00
60
80
40
20
C0
18
14
18
10
10
00
ENDCHAR
STARTCHAR SYMBOL FOR DELETE
ENCODING 9249
SWIDTH 1500 0
DWIDTH 6 0
BBX 6 12 0 -2
BITMAP
C0
A0
A0
C0
70
40
60
40
70
20
20
3C
ENDCHAR
STARTCHAR BLANK SYMBOL
ENCODING 9250
SWIDTH 1500 0
DWIDTH 6 0
BBX 6 12 0 -2
BITMAP
00
00
50
60
C0
78
44
44
44
78
00
00
ENDCHAR
STARTCHAR OPEN BOX
ENCODING 9251
SWIDTH 1500 0
DWIDTH 6 0
BBX 6 12 0 -2
BITMAP
00
00
00
00
00
00
00
00
00
44
7C
00
ENDCHAR
STARTCHAR SYMBOL FOR NEWLINE
ENCODING 9252
SWIDTH 1500 0
DWIDTH 6 0
BBX 6 12 0 -2
BITMAP
00
90
D0
B0
90
90
20
20
20
20
3C
00
ENDCHAR
STARTCHAR SYMBOL FOR DELETE FORM TWO
ENCODING 9253
SWIDTH 1500 0
DWIDTH 6 0
BBX 6 12 0 -2
BITMAP
00
00
00
00
00
24
48
10
24
48
00
00
ENDCHAR
STARTCHAR SYMBOL FOR SUBSTITUTE FORM TWO
ENCODING 9254
SWIDTH 1500 0
DWIDTH 6 0
BBX 6 12 0 -2
BITMAP
00
00
00
3C
40
40
20
10
00
10
00
00
ENDCHAR
STARTCHAR BOX DRAWINGS LIGHT HORIZONTAL
ENCODING 9472
SWIDTH 1500 0
DWIDTH 6 0
BBX 6 12 0 -2
BITMAP
00
00
00
00
00
FC
00
00
00
00
00
00
ENDCHAR
STARTCHAR BOX DRAWINGS LIGHT VERTICAL
ENCODING 9474
SWIDTH 1500 0
DWIDTH 6 0
BBX 6 12 0 -2
BITMAP
10
10
10
10
10
10
10
10
10
10
10
10
ENDCHAR
STARTCHAR BOX DRAWINGS LIGHT DOWN AND RIGHT
ENCODING 9484
SWIDTH 1500 0
DWIDTH 6 0
BBX 6 12 0 -2
BITMAP
00
00
00
00
00
0C
10
10
10
10
10
10
ENDCHAR
STARTCHAR BOX DRAWINGS LIGHT DOWN AND LEFT
ENCODING 9488
SWIDTH 1500 0
DWIDTH 6 0
BBX 6 12 0 -2
BITMAP
00
00
00
00
00
E0
10
10
10
10
10
10
ENDCHAR
STARTCHAR BOX DRAWINGS LIGHT UP AND RIGHT
ENCODING 9492
SWIDTH 1500 0
DWIDTH 6 0
BBX 6 12 0 -2
BITMAP
10
10
10
10
10
0C
00
00
00
00
00
00
ENDCHAR
STARTCHAR BOX DRAWINGS LIGHT UP AND LEFT
ENCODING 9496
SWIDTH 1500 0
DWIDTH 6 0
BBX 6 12 0 -2
BITMAP
10
10
10
10
10
E0
00
00
00
00
00
00
ENDCHAR
STARTCHAR BOX DRAWINGS LIGHT VERTICAL AND RIGHT
ENCODING 9500
SWIDTH 1500 0
DWIDTH 6 0
BBX 6 12 0 -2
BITMAP
10
10
10
10
10
1C
10
10
10
10
10
10
ENDCHAR
STARTCHAR BOX DRAWINGS LIGHT VERTICAL AND LEFT
ENCODING 9508
SWIDTH 1500 0
DWIDTH 6 0
BBX 6 12 0 -2
BITMAP
10
10
10
10
10
F0
10
10
10
10
10
10
ENDCHAR
STARTCHAR BOX DRAWINGS LIGHT DOWN AND HORIZONTAL
ENCODING 9516
SWIDTH 1500 0
DWIDTH 6 0
BBX 6 12 0 -2
BITMAP
00
00
00
00
00
FC
10
10
10
10
10
10
ENDCHAR
STARTCHAR BOX DRAWINGS LIGHT UP AND HORIZONTAL
ENCODING 9524
SWIDTH 1500 0
DWIDTH 6 0
BBX 6 12 0 -2
BITMAP
10
10
10
10
10
FC
00
00
00
00
00
00
ENDCHAR
STARTCHAR BOX DRAWINGS LIGHT VERTICAL AND HORIZONTAL
ENCODING 9532
SWIDTH 1500 0
DWIDTH 6 0
BBX 6 12 0 -2
BITMAP
10
10
10
10
10
FC
10
10
10
10
10
10
ENDCHAR
STARTCHAR BOX DRAWINGS DOUBLE HORIZONTAL
ENCODING 9552
SWIDTH 1500 0
DWIDTH 6 0
BBX 6 12 0 -2
BITMAP
00
00
00
00
FC
00
FC
00
00
00
00
00
ENDCHAR
STARTCHAR BOX DRAWINGS DOUBLE VERTICAL
ENCODING 9553
SWIDTH 1500 0
DWIDTH 6 0
BBX 6 12 0 -2
BITMAP
28
28
28
28
28
28
28
28
28
28
28
28
ENDCHAR
STARTCHAR BOX DRAWINGS DOWN SINGLE AND RIGHT DOUBLE
ENCODING 9554
SWIDTH 1500 0
DWIDTH 6 0
BBX 6 12 0 -2
BITMAP
00
00
00
00
0C
00
0C
10
10
10
10
10
ENDCHAR
STARTCHAR BOX DRAWINGS DOWN DOUBLE AND RIGHT SINGLE
ENCODING 9555
SWIDTH 1500 0
DWIDTH 6 0
BBX 6 12 0 -2
BITMAP
00
00
00
00
04
28
28
28
28
28
28
28
ENDCHAR
STARTCHAR BOX DRAWINGS DOUBLE DOWN AND RIGHT
ENCODING 9556
SWIDTH 1500 0
DWIDTH 6 0
BBX 6 12 0 -2
BITMAP
00
00
00
00
0C
10
24
28
28
28
28
28
ENDCHAR
STARTCHAR BOX DRAWINGS DOWN SINGLE AND LEFT DOUBLE
ENCODING 9557
SWIDTH 1500 0
DWIDTH 6 0
BBX 6 12 0 -2
BITMAP
00
00
00
00
E0
00
E0
10
10
10
10
10
ENDCHAR
STARTCHAR BOX DRAWINGS DOWN DOUBLE AND LEFT SINGLE
ENCODING 9558
SWIDTH 1500 0
DWIDTH 6 0
BBX 6 12 0 -2
BITMAP
00
00
00
00
00
C0
28
28
28
28
28
28
ENDCHAR
STARTCHAR BOX DRAWINGS DOUBLE DOWN AND LEFT
ENCODING 9559
SWIDTH 1500 0
DWIDTH 6 0
BBX 6 12 0 -2
BITMAP
00
00
00
00
E0
10
C8
28
28
28
28
28
ENDCHAR
STARTCHAR BOX DRAWINGS UP SINGLE AND RIGHT DOUBLE
ENCODING 9560
SWIDTH 1500 0
DWIDTH 6 0
BBX 6 12 0 -2
BITMAP
10
10
10
10
0C
00
0C
00
00
00
00
00
ENDCHAR
STARTCHAR BOX DRAWINGS UP DOUBLE AND RIGHT SINGLE
ENCODING 9561
SWIDTH 1500 0
DWIDTH 6 0
BBX 6 12 0 -2
BITMAP
28
28
28
28
28
04
00
00
00
00
00
00
ENDCHAR
STARTCHAR BOX DRAWINGS DOUBLE UP AND RIGHT
ENCODING 9562
SWIDTH 1500 0
DWIDTH 6 0
BBX 6 12 0 -2
BITMAP
28
28
28
28
24
10
0C
00
00
00
00
00
ENDCHAR
STARTCHAR BOX DRAWINGS UP SINGLE AND LEFT DOUBLE
ENCODING 9563
SWIDTH 1500 0
DWIDTH 6 0
BBX 6 12 0 -2
BITMAP
10
10
10
10
E0
00
E0
00
00
00
00
00
ENDCHAR
STARTCHAR BOX DRAWINGS UP DOUBLE AND LEFT SINGLE
ENCODING 9564
SWIDTH 1500 0
DWIDTH 6 0
BBX 6 12 0 -2
BITMAP
28
28
28
28
28
C0
00
00
00
00
00
00
ENDCHAR
STARTCHAR BOX DRAWINGS DOUBLE UP AND LEFT
ENCODING 9565
SWIDTH 1500 0
DWIDTH 6 0
BBX 6 12 0 -2
BITMAP
28
28
28
28
C8
10
E0
00
00
00
00
00
ENDCHAR
STARTCHAR BOX DRAWINGS VERTICAL SINGLE AND RIGHT DOUBLE
ENCODING 9566
SWIDTH 1500 0
DWIDTH 6 0
BBX 6 12 0 -2
BITMAP
10
10
10
10
1C
10
1C
10
10
10
10
10
ENDCHAR
STARTCHAR BOX DRAWINGS VERTICAL DOUBLE AND RIGHT SINGLE
ENCODING 9567
SWIDTH 1500 0
DWIDTH 6 0
BBX 6 12 0 -2
BITMAP
28
28
28
28
28
2C
28
28
28
28
28
28
ENDCHAR
STARTCHAR BOX DRAWINGS DOUBLE VERTICAL AND RIGHT
ENCODING 9568
SWIDTH 1500 0
DWIDTH 6 0
BBX 6 12 0 -2
BITMAP
28
28
28
28
24
20
24
28
28
28
28
28
ENDCHAR
STARTCHAR BOX DRAWINGS VERTICAL SINGLE AND LEFT DOUBLE
ENCODING 9569
SWIDTH 1500 0
DWIDTH 6 0
BBX 6 12 0 -2
BITMAP
10
10
10
10
F0
10
F0
10
10
10
10
10
ENDCHAR
STARTCHAR BOX DRAWINGS VERTICAL DOUBLE AND LEFT SINGLE
ENCODING 9570
SWIDTH 1500 0
DWIDTH 6 0
BBX 6 12 0 -2
BITMAP
28
28
28
28
28
E8
28
28
28
28
28
28
ENDCHAR
STARTCHAR BOX DRAWINGS DOUBLE VERTICAL AND LEFT
ENCODING 9571
SWIDTH 1500 0
DWIDTH 6 0
BBX 6 12 0 -2
BITMAP
28
28
28
28
C8
08
C8
28
28
28
28
28
ENDCHAR
STARTCHAR BOX DRAWINGS DOWN SINGLE AND HORIZONTAL DOUBLE
ENCODING 9572
SWIDTH 1500 0
DWIDTH 6 0
BBX 6 12 0 -2
BITMAP
00
00
00
00
FC
00
FC
10
10
10
10
10
ENDCHAR
STARTCHAR BOX DRAWINGS DOWN DOUBLE AND HORIZONTAL SINGLE
ENCODING 9573
SWIDTH 1500 0
DWIDTH 6 0
BBX 6 12 0 -2
BITMAP
00
00
00
00
00
FC
28
28
28
28
28
28
ENDCHAR
STARTCHAR BOX DRAWINGS DOUBLE DOWN AND HORIZONTAL
ENCODING 9574
SWIDTH 1500 0
DWIDTH 6 0
BBX 6 12 0 -2
BITMAP
00
00
00
00
FC
00
C4
28
28
28
28
28
ENDCHAR
STARTCHAR BOX DRAWINGS UP SINGLE AND HORIZONTAL DOUBLE
ENCODING 9575
SWIDTH 1500 0
DWIDTH 6 0
BBX 6 12 0 -2
BITMAP
10
10
10
10
FC
00
FC
00
00
00
00
00
ENDCHAR
STARTCHAR BOX DRAWINGS UP DOUBLE AND HORIZONTAL SINGLE
ENCODING 9576
SWIDTH 1500 0
DWIDTH 6 0
BBX 6 12 0 -2
BITMAP
28
28
28
28
28
FC
00
00
00
00
00
00
ENDCHAR
STARTCHAR BOX DRAWINGS DOUBLE UP AND HORIZONTAL
ENCODING 9577
SWIDTH 1500 0
DWIDTH 6 0
BBX 6 12 0 -2
BITMAP
28
28
28
28
C4
00
FC
00
00
00
00
00
ENDCHAR
STARTCHAR BOX DRAWINGS VERTICAL SINGLE AND HORIZONTAL DOUBLE
ENCODING 9578
SWIDTH 1500 0
DWIDTH 6 0
BBX 6 12 0 -2
BITMAP
10
10
10
10
FC
00
FC
10
10
10
10
10
ENDCHAR
STARTCHAR BOX DRAWINGS VERTICAL DOUBLE AND HORIZONTAL SINGLE
ENCODING 9579
SWIDTH 1500 0
DWIDTH 6 0
BBX 6 12 0 -2
BITMAP
28
28
28
28
28
EC
28
28
28
28
28
28
ENDCHAR
STARTCHAR BOX DRAWINGS DOUBLE VERTICAL AND HORIZONTAL
ENCODING 9580
SWIDTH 1500 0
DWIDTH 6 0
BBX 6 12 0 -2
BITMAP
28
28
28
28
C4
10
C4
28
28
28
28
28
ENDCHAR
STARTCHAR UPPER HALF BLOCK
ENCODING 9600
SWIDTH 1500 0
DWIDTH 6 0
BBX 6 12 0 -2
BITMAP
FC
FC
FC
FC
FC
FC
00
00
00
00
00
00
ENDCHAR
STARTCHAR LOWER HALF BLOCK
ENCODING 9604
SWIDTH 1500 0
DWIDTH 6 0
BBX 6 12 0 -2
BITMAP
00
00
00
00
00
00
FC
FC
FC
FC
FC
FC
ENDCHAR
STARTCHAR FULL BLOCK
ENCODING 9608
SWIDTH 1500 0
DWIDTH 6 0
BBX 6 12 0 -2
BITMAP
FC
FC
FC
FC
FC
FC
FC
FC
FC
FC
FC
FC
ENDCHAR
STARTCHAR LEFT HALF BLOCK
ENCODING 9612
SWIDTH 1500 0
DWIDTH 6 0
BBX 6 12 0 -2
BITMAP
E0
E0
E0
E0
E0
E0
E0
E0
E0
E0
E0
E0
ENDCHAR
STARTCHAR RIGHT HALF BLOCK
ENCODING 9616
SWIDTH 1500 0
DWIDTH 6 0
BBX 6 12 0 -2
BITMAP
1C
1C
1C
1C
1C
1C
1C
1C
1C
1C
1C
1C
ENDCHAR
STARTCHAR LIGHT SHADE
ENCODING 9617
SWIDTH 1500 0
DWIDTH 6 0
BBX 6 12 0 -2
BITMAP
48
00
24
00
90
00
48
00
24
00
90
00
ENDCHAR
STARTCHAR MEDIUM SHADE
ENCODING 9618
SWIDTH 1500 0
DWIDTH 6 0
BBX 6 12 0 -2
BITMAP
54
A8
54
A8
54
A8
54
A8
54
A8
54
A8
ENDCHAR
STARTCHAR DARK SHADE
ENCODING 9619
SWIDTH 1500 0
DWIDTH 6 0
BBX 6 12 0 -2
BITMAP
B4
FC
D8
FC
6C
FC
B4
FC
D8
FC
6C
FC
ENDCHAR
STARTCHAR BLACK SQUARE
ENCODING 9632
SWIDTH 1500 0
DWIDTH 6 0
BBX 6 12 0 -2
BITMAP
00
00
00
00
7C
7C
7C
7C
7C
00
00
00
ENDCHAR
STARTCHAR WHITE SQUARE
ENCODING 9633
SWIDTH 1500 0
DWIDTH 6 0
BBX 6 12 0 -2
BITMAP
00
00
00
00
7C
44
44
44
7C
00
00
00
ENDCHAR
STARTCHAR SQUARE WITH HORIZONTAL FILL
ENCODING 9636
SWIDTH 1500 0
DWIDTH 6 0
BBX 6 12 0 -2
BITMAP
00
00
00
00
00
7C
00
7C
00
7C
00
00
ENDCHAR
STARTCHAR BLACK SMALL SQUARE
ENCODING 9642
SWIDTH 1500 0
DWIDTH 6 0
BBX 6 12 0 -2
BITMAP
00
00
00
00
00
38
38
38
00
00
00
00
ENDCHAR
STARTCHAR WHITE SMALL SQUARE
ENCODING 9643
SWIDTH 1500 0
DWIDTH 6 0
BBX 6 12 0 -2
BITMAP
00
00
00
00
00
38
28
38
00
00
00
00
ENDCHAR
STARTCHAR BLACK RECTANGLE
ENCODING 9644
SWIDTH 1500 0
DWIDTH 6 0
BBX 6 12 0 -2
BITMAP
00
00
00
00
00
00
FC
FC
FC
FC
00
00
ENDCHAR
STARTCHAR BLACK UP-POINTING TRIANGLE
ENCODING 9650
SWIDTH 1500 0
DWIDTH 6 0
BBX 6 12 0 -2
BITMAP
30
30
30
30
78
78
78
78
FC
FC
FC
FC
ENDCHAR
STARTCHAR BLACK RIGHT-POINTING TRIANGLE
ENCODING 9654
SWIDTH 1500 0
DWIDTH 6 0
BBX 6 12 0 -2
BITMAP
00
00
00
60
70
78
7C
78
70
60
00
00
ENDCHAR
STARTCHAR WHITE RIGHT-POINTING TRIANGLE
ENCODING 9655
SWIDTH 1500 0
DWIDTH 6 0
BBX 6 12 0 -2
BITMAP
00
00
00
60
50
48
44
48
50
60
00
00
ENDCHAR
STARTCHAR BLACK RIGHT-POINTING SMALL TRIANGLE
ENCODING 9656
SWIDTH 1500 0
DWIDTH 6 0
BBX 6 12 0 -2
BITMAP
00
00
00
00
00
20
30
38
30
20
00
00
ENDCHAR
STARTCHAR BLACK RIGHT-POINTING POINTER
ENCODING 9658
SWIDTH 1500 0
DWIDTH 6 0
BBX 6 12 0 -2
BITMAP
80
C0
E0
F0
F8
FC
FC
F8
F0
E0
C0
80
ENDCHAR
STARTCHAR BLACK DOWN-POINTING TRIANGLE
ENCODING 9660
SWIDTH 1500 0
DWIDTH 6 0
BBX 6 12 0 -2
BITMAP
FC
FC
FC
FC
78
78
78
78
30
30
30
30
ENDCHAR
STARTCHAR WHITE LEFT-POINTING TRIANGLE
ENCODING 9665
SWIDTH 1500 0
DWIDTH 6 0
BBX 6 12 0 -2
BITMAP
00
00
00
0C
14
24
44
24
14
0C
00
00
ENDCHAR
STARTCHAR BLACK LEFT-POINTING POINTER
ENCODING 9668
SWIDTH 1500 0
DWIDTH 6 0
BBX 6 12 0 -2
BITMAP
04
0C
1C
3C
7C
FC
FC
7C
3C
1C
0C
04
ENDCHAR
STARTCHAR BLACK DIAMOND
ENCODING 9670
SWIDTH 1500 0
DWIDTH 6 0
BBX 6 12 0 -2
BITMAP
00
00
00
00
10
38
7C
7C
38
10
00
00
ENDCHAR
STARTCHAR WHITE DIAMOND
ENCODING 9671
SWIDTH 1500 0
DWIDTH 6 0
BBX 6 12 0 -2
BITMAP
00
00
00
00
10
28
44
44
28
10
00
00
ENDCHAR
STARTCHAR LOZENGE
ENCODING 9674
SWIDTH 1500 0
DWIDTH 6 0
BBX 6 12 0 -2
BITMAP
00
10
10
28
28
44
44
28
28
10
10
00
ENDCHAR
STARTCHAR WHITE CIRCLE
ENCODING 9675
SWIDTH 1500 0
DWIDTH 6 0
BBX 6 12 0 -2
BITMAP
00
00
00
00
30
48
48
30
00
00
00
00
ENDCHAR
STARTCHAR BLACK CIRCLE
ENCODING 9679
SWIDTH 1500 0
DWIDTH 6 0
BBX 6 12 0 -2
BITMAP
00
00
00
00
30
78
78
30
00
00
00
00
ENDCHAR
STARTCHAR INVERSE BULLET
ENCODING 9688
SWIDTH 1500 0
DWIDTH 6 0
BBX 6 12 0 -2
BITMAP
FC
FC
FC
FC
CC
84
84
CC
FC
FC
FC
FC
ENDCHAR
STARTCHAR INVERSE WHITE CIRCLE
ENCODING 9689
SWIDTH 1500 0
DWIDTH 6 0
BBX 6 12 0 -2
BITMAP
FC
FC
FC
FC
CC
B4
B4
CC
FC
FC
FC
FC
ENDCHAR
STARTCHAR LARGE CIRCLE
ENCODING 9711
SWIDTH 1500 0
DWIDTH 6 0
BBX 6 12 0 -2
BITMAP
00
00
00
78
84
84
84
84
84
78
00
00
ENDCHAR
STARTCHAR BALLOT BOX
ENCODING 9744
SWIDTH 1500 0
DWIDTH 6 0
BBX 6 12 0 -2
BITMAP
00
00
00
00
FC
84
84
84
84
FC
00
00
ENDCHAR
STARTCHAR BALLOT BOX WITH CHECK
ENCODING 9745
SWIDTH 1500 0
DWIDTH 6 0
BBX 6 12 0 -2
BITMAP
00
00
00
00
FC
84
8C
D4
A4
FC
00
00
ENDCHAR
STARTCHAR BALLOT BOX WITH X
ENCODING 9746
SWIDTH 1500 0
DWIDTH 6 0
BBX 6 12 0 -2
BITMAP
00
00
00
00
FC
84
D4
A4
D4
FC
00
00
ENDCHAR
STARTCHAR WHITE SMILING FACE
ENCODING 9786
SWIDTH 1500 0
DWIDTH 6 0
BBX 6 12 0 -2
BITMAP
00
00
00
00
28
00
00
00
44
38
00
00
ENDCHAR
STARTCHAR BLACK SMILING FACE
ENCODING 9787
SWIDTH 1500 0
DWIDTH 6 0
BBX 6 12 0 -2
BITMAP
00
00
38
7C
54
7C
7C
7C
38
44
7C
38
ENDCHAR
STARTCHAR WHITE SUN WITH RAYS
ENCODING 9788
SWIDTH 1500 0
DWIDTH 6 0
BBX 6 12 0 -2
BITMAP
00
00
00
00
54
38
6C
38
54
00
00
00
ENDCHAR
STARTCHAR FEMALE SIGN
ENCODING 9792
SWIDTH 1500 0
DWIDTH 6 0
BBX 6 12 0 -2
BITMAP
00
00
38
44
44
44
38
10
38
10
00
00
ENDCHAR
STARTCHAR MALE SIGN
ENCODING 9794
SWIDTH 1500 0
DWIDTH 6 0
BBX 6 12 0 -2
BITMAP
00
00
1C
0C
14
38
44
44
44
38
00
00
ENDCHAR
STARTCHAR BLACK SPADE SUIT
ENCODING 9824
SWIDTH 1500 0
DWIDTH 6 0
BBX 6 12 0 -2
BITMAP
00
00
00
00
10
38
7C
6C
10
38
00
00
ENDCHAR
STARTCHAR BLACK CLUB SUIT
ENCODING 9827
SWIDTH 1500 0
DWIDTH 6 0
BBX 6 12 0 -2
BITMAP
00
00
00
00
38
38
7C
6C
10
38
00
00
ENDCHAR
STARTCHAR BLACK HEART SUIT
ENCODING 9829
SWIDTH 1500 0
DWIDTH 6 0
BBX 6 12 0 -2
BITMAP
00
00
00
00
28
7C
7C
7C
38
10
00
00
ENDCHAR
STARTCHAR BLACK DIAMOND SUIT
ENCODING 9830
SWIDTH 1500 0
DWIDTH 6 0
BBX 6 12 0 -2
BITMAP
00
00
00
00
10
38
7C
7C
38
10
00
00
ENDCHAR
STARTCHAR EIGHTH NOTE
ENCODING 9834
SWIDTH 1500 0
DWIDTH 6 0
BBX 6 12 0 -2
BITMAP
00
00
10
18
14
14
10
10
70
70
00
00
ENDCHAR
STARTCHAR BEAMED EIGHTH NOTES
ENCODING 9835
SWIDTH 1500 0
DWIDTH 6 0
BBX 6 12 0 -2
BITMAP
00
00
30
2C
24
24
24
24
64
6C
0C
00
ENDCHAR
STARTCHAR CHECK MARK
ENCODING 10003
SWIDTH 1500 0
DWIDTH 6 0
BBX 6 12 0 -2
BITMAP
00
00
00
00
00
04
48
50
60
40
00
00
ENDCHAR
STARTCHAR BALLOT X
ENCODING 10007
SWIDTH 1500 0
DWIDTH 6 0
BBX 6 12 0 -2
BITMAP
00
00
00
00
00
44
28
10
28
44
00
00
ENDCHAR
STARTCHAR BLACK FOUR POINTED STAR
ENCODING 10022
SWIDTH 1500 0
DWIDTH 6 0
BBX 6 12 0 -2
BITMAP
00
00
00
10
10
38
7C
38
10
10
00
00
ENDCHAR
STARTCHAR WHITE FOUR POINTED STAR
ENCODING 10023
SWIDTH 1500 0
DWIDTH 6 0
BBX 6 12 0 -2
BITMAP
00
00
00
10
10
28
44
28
10
10
00
00
ENDCHAR
STARTCHAR OPEN CENTRE ASTERISK
ENCODING 10034
SWIDTH 1500 0
DWIDTH 6 0
BBX 6 12 0 -2
BITMAP
00
00
00
00
28
10
6C
10
28
00
00
00
ENDCHAR
STARTCHAR BLACK DIAMOND MINUS WHITE X
ENCODING 10070
SWIDTH 1500 0
DWIDTH 6 0
BBX 6 12 0 -2
BITMAP
00
00
00
10
38
54
6C
54
38
10
00
00
ENDCHAR
STARTCHAR BRAILLE PATTERN BLANK
ENCODING 10240
SWIDTH 1500 0
DWIDTH 6 0
BBX 6 12 0 -2
BITMAP
00
00
00
00
00
00
00
00
00
00
00
00
ENDCHAR
STARTCHAR BRAILLE PATTERN DOTS-1
ENCODING 10241
SWIDTH 1500 0
DWIDTH 6 0
BBX 6 12 0 -2
BITMAP
00
60
60
00
00
00
00
00
00
00
00
00
ENDCHAR
STARTCHAR BRAILLE PATTERN DOTS-2
ENCODING 10242
SWIDTH 1500 0
DWIDTH 6 0
BBX 6 12 0 -2
BITMAP
00
00
00
00
60
60
00
00
00
00
00
00
ENDCHAR
STARTCHAR BRAILLE PATTERN DOTS-12
ENCODING 10243
SWIDTH 1500 0
DWIDTH 6 0
BBX 6 12 0 -2
BITMAP
00
60
60
00
60
60
00
00
00
00
00
00
ENDCHAR
STARTCHAR BRAILLE PATTERN DOTS-3
ENCODING 10244
SWIDTH 1500 0
DWIDTH 6 0
BBX 6 12 0 -2
BITMAP
00
00
00
00
00
00
00
60
60
00
00
00
ENDCHAR
STARTCHAR BRAILLE PATTERN DOTS-13
ENCODING 10245
SWIDTH 1500 0
DWIDTH 6 0
BBX 6 12 0 -2
BITMAP
00
60
60
00
00
00
00
60
60
00
00
00
ENDCHAR
STARTCHAR BRAILLE PATTERN DOTS-23
ENCODING 10246
SWIDTH 1500 0
DWIDTH 6 0
BBX 6 12 0 -2
BITMAP
00
00
00
00
60
60
00
60
60
00
00
00
ENDCHAR
STARTCHAR BRAILLE PATTERN DOTS-123
ENCODING 10247
SWIDTH 1500 0
DWIDTH 6 0
BBX 6 12 0 -2
BITMAP
00
60
60
00
60
60
00
60
60
00
00
00
ENDCHAR
STARTCHAR BRAILLE PATTERN DOTS-4
ENCODING 10248
SWIDTH 1500 0
DWIDTH 6 0
BBX 6 12 0 -2
BITMAP
00
0C
0C
00
00
00
00
00
00
00
00
00
ENDCHAR
STARTCHAR BRAILLE PATTERN DOTS-14
ENCODING 10249
SWIDTH 1500 0
DWIDTH 6 0
BBX 6 12 0 -2
BITMAP
00
6C
6C
00
00
00
00
00
00
00
00
00
ENDCHAR
STARTCHAR BRAILLE PATTERN DOTS-24
ENCODING 10250
SWIDTH 1500 0
DWIDTH 6 0
BBX 6 12 0 -2
BITMAP
00
0C
0C
00
60
60
00
00
00
00
00
00
ENDCHAR
STARTCHAR BRAILLE PATTERN DOTS-124
ENCODING 10251
SWIDTH 1500 0
DWIDTH 6 0
BBX 6 12 0 -2
BITMAP
00
6C
6C
00
60
60
00
00
00
00
00
00
ENDCHAR
STARTCHAR BRAILLE PATTERN DOTS-34
ENCODING 10252
SWIDTH 1500 0
DWIDTH 6 0
BBX 6 12 0 -2
BITMAP
00
0C
0C
00
00
00
00
60
60
00
00
00
ENDCHAR
STARTCHAR BRAILLE PATTERN DOTS-134
ENCODING 10253
SWIDTH 1500 0
DWIDTH 6 0
BBX 6 12 0 -2
BITMAP
00
6C
6C
00
00
00
00
60
60
00
00
00
ENDCHAR
STARTCHAR BRAILLE PATTERN DOTS-234
ENCODING 10254
SWIDTH 1500 0
DWIDTH 6 0
BBX 6 12 0 -2
BITMAP
00
0C
0C
00
60
60
00
60
60
00
00
00
ENDCHAR
STARTCHAR BRAILLE PATTERN DOTS-1234
ENCODING 10255
SWIDTH 1500 0
DWIDTH 6 0
BBX 6 12 0 -2
BITMAP
00
6C
6C
00
60
60
00
60
60
00
00
00
ENDCHAR
STARTCHAR BRAILLE PATTERN DOTS-5
ENCODING 10256
SWIDTH 1500 0
DWIDTH 6 0
BBX 6 12 0 -2
BITMAP
00
00
00
00
0C
0C
00
00
00
00
00
00
ENDCHAR
STARTCHAR BRAILLE PATTERN DOTS-15
ENCODING 10257
SWIDTH 1500 0
DWIDTH 6 0
BBX 6 12 0 -2
BITMAP
00
60
60
00
0C
0C
00
00
00
00
00
00
ENDCHAR
STARTCHAR BRAILLE PATTERN DOTS-25
ENCODING 10258
SWIDTH 1500 0
DWIDTH 6 0
BBX 6 12 0 -2
BITMAP
00
00
00
00
6C
6C
00
00
00
00
00
00
ENDCHAR
STARTCHAR BRAILLE PATTERN DOTS-125
ENCODING 10259
SWIDTH 1500 0
DWIDTH 6 0
BBX 6 12 0 -2
BITMAP
00
60
60
00
6C
6C
00
00
00
00
00
00
ENDCHAR
STARTCHAR BRAILLE PATTERN DOTS-35
ENCODING 10260
SWIDTH 1500 0
DWIDTH 6 0
BBX 6 12 0 -2
BITMAP
00
00
00
00
0C
0C
00
60
60
00
00
00
ENDCHAR
STARTCHAR BRAILLE PATTERN DOTS-135
ENCODING 10261
SWIDTH 1500 0
DWIDTH 6 0
BBX 6 12 0 -2
BITMAP
00
60
60
00
0C
0C
00
60
60
00
00
00
ENDCHAR
STARTCHAR BRAILLE PATTERN DOTS-235
ENCODING 10262
SWIDTH 1500 0
DWIDTH 6 0
BBX 6 12 0 -2
BITMAP
00
00
00
00
6C
6C
00
60
60
00
00
00
ENDCHAR
STARTCHAR BRAILLE PATTERN DOTS-1235
ENCODING 10263
SWIDTH 1500 0
DWIDTH 6 0
BBX 6 12 0 -2
BITMAP
00
60
60
00
6C
6C
00
60
60
00
00
00
ENDCHAR
STARTCHAR BRAILLE PATTERN DOTS-45
ENCODING 10264
SWIDTH 1500 0
DWIDTH 6 0
BBX 6 12 0 -2
BITMAP
00
0C
0C
00
0C
0C
00
00
00
00
00
00
ENDCHAR
STARTCHAR BRAILLE PATTERN DOTS-145
ENCODING 10265
SWIDTH 1500 0
DWIDTH 6 0
BBX 6 12 0 -2
BITMAP
00
6C
6C
00
0C
0C
00
00
00
00
00
00
ENDCHAR
STARTCHAR BRAILLE PATTERN DOTS-245
ENCODING 10266
SWIDTH 1500 0
DWIDTH 6 0
BBX 6 12 0 -2
BITMAP
00
0C
0C
00
6C
6C
00
00
00
00
00
00
ENDCHAR
STARTCHAR BRAILLE PATTERN DOTS-1245
ENCODING 10267
SWIDTH 1500 0
DWIDTH 6 0
BBX 6 12 0 -2
BITMAP
00
6C
6C
00
6C
6C
00
00
00
00
00
00
ENDCHAR
STARTCHAR BRAILLE PATTERN DOTS-345
ENCODING 10268
SWIDTH 1500 0
DWIDTH 6 0
BBX 6 12 0 -2
BITMAP
00
0C
0C
00
0C
0C
00
60
60
00
00
00
ENDCHAR
STARTCHAR BRAILLE PATTERN DOTS-1345
ENCODING 10269
SWIDTH 1500 0
DWIDTH 6 0
BBX 6 12 0 -2
BITMAP
00
6C
6C
00
0C
0C
00
60
60
00
00
00
ENDCHAR
STARTCHAR BRAILLE PATTERN DOTS-2345
ENCODING 10270
SWIDTH 1500 0
DWIDTH 6 0
BBX 6 12 0 -2
BITMAP
00
0C
0C
00
6C
6C
00
60
60
00
00
00
ENDCHAR
STARTCHAR BRAILLE PATTERN DOTS-12345
ENCODING 10271
SWIDTH 1500 0
DWIDTH 6 0
BBX 6 12 0 -2
BITMAP
00
6C
6C
00
6C
6C
00
60
60
00
00
00
ENDCHAR
STARTCHAR BRAILLE PATTERN DOTS-6
ENCODING 10272
SWIDTH 1500 0
DWIDTH 6 0
BBX 6 12 0 -2
BITMAP
00
00
00
00
00
00
00
0C
0C
00
00
00
ENDCHAR
STARTCHAR BRAILLE PATTERN DOTS-16
ENCODING 10273
SWIDTH 1500 0
DWIDTH 6 0
BBX 6 12 0 -2
BITMAP
00
60
60
00
00
00
00
0C
0C
00
00
00
ENDCHAR
STARTCHAR BRAILLE PATTERN DOTS-26
ENCODING 10274
SWIDTH 1500 0
DWIDTH 6 0
BBX 6 12 0 -2
BITMAP
00
00
00
00
60
60
00
0C
0C
00
00
00
ENDCHAR
STARTCHAR BRAILLE PATTERN DOTS-126
ENCODING 10275
SWIDTH 1500 0
DWIDTH 6 0
BBX 6 12 0 -2
BITMAP
00
60
60
00
60
60
00
0C
0C
00
00
00
ENDCHAR
STARTCHAR BRAILLE PATTERN DOTS-36
ENCODING 10276
SWIDTH 1500 0
DWIDTH 6 0
BBX 6 12 0 -2
BITMAP
00
00
00
00
00
00
00
6C
6C
00
00
00
ENDCHAR
STARTCHAR BRAILLE PATTERN DOTS-136
ENCODING 10277
SWIDTH 1500 0
DWIDTH 6 0
BBX 6 12 0 -2
BITMAP
00
60
60
00
00
00
00
6C
6C
00
00
00
ENDCHAR
STARTCHAR BRAILLE PATTERN DOTS-236
ENCODING 10278
SWIDTH 1500 0
DWIDTH 6 0
BBX 6 12 0 -2
BITMAP
00
00
00
00
60
60
00
6C
6C
00
00
00
ENDCHAR
STARTCHAR BRAILLE PATTERN DOTS-1236
ENCODING 10279
SWIDTH 1500 0
DWIDTH 6 0
BBX 6 12 0 -2
BITMAP
00
60
60
00
60
60
00
6C
6C
00
00
00
ENDCHAR
STARTCHAR BRAILLE PATTERN DOTS-46
ENCODING 10280
SWIDTH 1500 0
DWIDTH 6 0
BBX 6 12 0 -2
BITMAP
00
0C
0C
00
00
00
00
0C
0C
00
00
00
ENDCHAR
STARTCHAR BRAILLE PATTERN DOTS-146
ENCODING 10281
SWIDTH 1500 0
DWIDTH 6 0
BBX 6 12 0 -2
BITMAP
00
6C
6C
00
00
00
00
0C
0C
00
00
00
ENDCHAR
STARTCHAR BRAILLE PATTERN DOTS-246
ENCODING 10282
SWIDTH 1500 0
DWIDTH 6 0
BBX 6 12 0 -2
BITMAP
00
0C
0C
00
60
60
00
0C
0C
00
00
00
ENDCHAR
STARTCHAR BRAILLE PATTERN DOTS-1246
ENCODING 10283
SWIDTH 1500 0
DWIDTH 6 0
BBX 6 12 0 -2
BITMAP
00
6C
6C
00
60
60
00
0C
0C
00
00
00
ENDCHAR
STARTCHAR BRAILLE PATTERN DOTS-346
ENCODING 10284
SWIDTH 1500 0
DWIDTH 6 0
BBX 6 12 0 -2
BITMAP
00
0C
0C
00
00
00
00
6C
6C
00
00
00
ENDCHAR
STARTCHAR BRAILLE PATTERN DOTS-1346
ENCODING 10285
SWIDTH 1500 0
DWIDTH 6 0
BBX 6 12 0 -2
BITMAP
00
6C
6C
00
00
00
00
6C
6C
00
00
00
ENDCHAR
STARTCHAR BRAILLE PATTERN DOTS-2346
ENCODING 10286
SWIDTH 1500 0
DWIDTH 6 0
BBX 6 12 0 -2
BITMAP
00
0C
0C
00
60
60
00
6C
6C
00
00
00
ENDCHAR
STARTCHAR BRAILLE PATTERN DOTS-12346
ENCODING 10287
SWIDTH 1500 0
DWIDTH 6 0
BBX 6 12 0 -2
BITMAP
00
6C
6C
00
60
60
00
6C
6C
00
00
00
ENDCHAR
STARTCHAR BRAILLE PATTERN DOTS-56
ENCODING 10288
SWIDTH 1500 0
DWIDTH 6 0
BBX 6 12 0 -2
BITMAP
00
00
00
00
0C
0C
00
0C
0C
00
00
00
ENDCHAR
STARTCHAR BRAILLE PATTERN DOTS-156
ENCODING 10289
SWIDTH 1500 0
DWIDTH 6 0
BBX 6 12 0 -2
BITMAP
00
60
60
00
0C
0C
00
0C
0C
00
00
00
ENDCHAR
STARTCHAR BRAILLE PATTERN DOTS-256
ENCODING 10290
SWIDTH 1500 0
DWIDTH 6 0
BBX 6 12 0 -2
BITMAP
00
00
00
00
6C
6C
00
0C
0C
00
00
00
ENDCHAR
STARTCHAR BRAILLE PATTERN DOTS-1256
ENCODING 10291
SWIDTH 1500 0
DWIDTH 6 0
BBX 6 12 0 -2
BITMAP
00
60
60
00
6C
6C
00
0C
0C
00
00
00
ENDCHAR
STARTCHAR BRAILLE PATTERN DOTS-356
ENCODING 10292
SWIDTH 1500 0
DWIDTH 6 0
BBX 6 12 0 -2
BITMAP
00
00
00
00
0C
0C
00
6C
6C
00
00
00
ENDCHAR
STARTCHAR BRAILLE PATTERN DOTS-1356
ENCODING 10293
SWIDTH 1500 0
DWIDTH 6 0
BBX 6 12 0 -2
BITMAP
00
60
60
00
0C
0C
00
6C
6C
00
00
00
ENDCHAR
STARTCHAR BRAILLE PATTERN DOTS-2356
ENCODING 10294
SWIDTH 1500 0
DWIDTH 6 0
BBX 6 12 0 -2
BITMAP
00
00
00
00
6C
6C
00
6C
6C
00
00
00
ENDCHAR
STARTCHAR BRAILLE PATTERN DOTS-12356
ENCODING 10295
SWIDTH 1500 0
DWIDTH 6 0
BBX 6 12 0 -2
BITMAP
00
60
60
00
6C
6C
00
6C
6C
00
00
00
ENDCHAR
STARTCHAR BRAILLE PATTERN DOTS-456
ENCODING 10296
SWIDTH 1500 0
DWIDTH 6 0
BBX 6 12 0 -2
BITMAP
00
0C
0C
00
0C
0C
00
0C
0C
00
00
00
ENDCHAR
STARTCHAR BRAILLE PATTERN DOTS-1456
ENCODING 10297
SWIDTH 1500 0
DWIDTH 6 0
BBX 6 12 0 -2
BITMAP
00
6C
6C
00
0C
0C
00
0C
0C
00
00
00
ENDCHAR
STARTCHAR BRAILLE PATTERN DOTS-2456
ENCODING 10298
SWIDTH 1500 0
DWIDTH 6 0
BBX 6 12 0 -2
BITMAP
00
0C
0C
00
6C
6C
00
0C
0C
00
00
00
ENDCHAR
STARTCHAR BRAILLE PATTERN DOTS-12456
ENCODING 10299
SWIDTH 1500 0
DWIDTH 6 0
BBX 6 12 0 -2
BITMAP
00
6C
6C
00
6C
6C
00
0C
0C
00
00
00
ENDCHAR
STARTCHAR BRAILLE PATTERN DOTS-3456
ENCODING 10300
SWIDTH 1500 0
DWIDTH 6 0
BBX 6 12 0 -2
BITMAP
00
0C
0C
00
0C
0C
00
6C
6C
00
00
00
ENDCHAR
STARTCHAR BRAILLE PATTERN DOTS-13456
ENCODING 10301
SWIDTH 1500 0
DWIDTH 6 0
BBX 6 12 0 -2
BITMAP
00
6C
6C
00
0C
0C
00
6C
6C
00
00
00
ENDCHAR
STARTCHAR BRAILLE PATTERN DOTS-23456
ENCODING 10302
SWIDTH 1500 0
DWIDTH 6 0
BBX 6 12 0 -2
BITMAP
00
0C
0C
00
6C
6C
00
6C
6C
00
00
00
ENDCHAR
STARTCHAR BRAILLE PATTERN DOTS-123456
ENCODING 10303
SWIDTH 1500 0
DWIDTH 6 0
BBX 6 12 0 -2
BITMAP
00
6C
6C
00
6C
6C
00
6C
6C
00
00
00
ENDCHAR
STARTCHAR BRAILLE PATTERN DOTS-7
ENCODING 10304
SWIDTH 1500 0
DWIDTH 6 0
BBX 6 12 0 -2
BITMAP
00
00
00
00
00
00
00
00
00
00
60
60
ENDCHAR
STARTCHAR BRAILLE PATTERN DOTS-17
ENCODING 10305
SWIDTH 1500 0
DWIDTH 6 0
BBX 6 12 0 -2
BITMAP
00
60
60
00
00
00
00
00
00
00
60
60
ENDCHAR
STARTCHAR BRAILLE PATTERN DOTS-27
ENCODING 10306
SWIDTH 1500 0
DWIDTH 6 0
BBX 6 12 0 -2
BITMAP
00
00
00
00
60
60
00
00
00
00
60
60
ENDCHAR
STARTCHAR BRAILLE PATTERN DOTS-127
ENCODING 10307
SWIDTH 1500 0
DWIDTH 6 0
BBX 6 12 0 -2
BITMAP
00
60
60
00
60
60
00
00
00
00
60
60
ENDCHAR
STARTCHAR BRAILLE PATTERN DOTS-37
ENCODING 10308
SWIDTH 1500 0
DWIDTH 6 0
BBX 6 12 0 -2
BITMAP
00
00
00
00
00
00
00
60
60
00
60
60
ENDCHAR
STARTCHAR BRAILLE PATTERN DOTS-137
ENCODING 10309
SWIDTH 1500 0
DWIDTH 6 0
BBX 6 12 0 -2
BITMAP
00
60
60
00
00
00
00
60
60
00
60
60
ENDCHAR
STARTCHAR BRAILLE PATTERN DOTS-237
ENCODING 10310
SWIDTH 1500 0
DWIDTH 6 0
BBX 6 12 0 -2
BITMAP
00
00
00
00
60
60
00
60
60
00
60
60
ENDCHAR
STARTCHAR BRAILLE PATTERN DOTS-1237
ENCODING 10311
SWIDTH 1500 0
DWIDTH 6 0
BBX 6 12 0 -2
BITMAP
00
60
60
00
60
60
00
60
60
00
60
60
ENDCHAR
STARTCHAR BRAILLE PATTERN DOTS-47
ENCODING 10312
SWIDTH 1500 0
DWIDTH 6 0
BBX 6 12 0 -2
BITMAP
00
0C
0C
00
00
00
00
00
00
00
60
60
ENDCHAR
STARTCHAR BRAILLE PATTERN DOTS-147
ENCODING 10313
SWIDTH 1500 0
DWIDTH 6 0
BBX 6 12 0 -2
BITMAP
00
6C
6C
00
00
00
00
00
00
00
60
60
ENDCHAR
STARTCHAR BRAILLE PATTERN DOTS-247
ENCODING 10314
SWIDTH 1500 0
DWIDTH 6 0
BBX 6 12 0 -2
BITMAP
00
0C
0C
00
60
60
00
00
00
00
60
60
ENDCHAR
STARTCHAR BRAILLE PATTERN DOTS-1247
ENCODING 10315
SWIDTH 1500 0
DWIDTH 6 0
BBX 6 12 0 -2
BITMAP
00
6C
6C
00
60
60
00
00
00
00
60
60
ENDCHAR
STARTCHAR BRAILLE PATTERN DOTS-347
ENCODING 10316
SWIDTH 1500 0
DWIDTH 6 0
BBX 6 12 0 -2
BITMAP
00
0C
0C
00
00
00
00
60
60
00
60
60
ENDCHAR
STARTCHAR BRAILLE PATTERN DOTS-1347
ENCODING 10317
SWIDTH 1500 0
DWIDTH 6 0
BBX 6 12 0 -2
BITMAP
00
6C
6C
00
00
00
00
60
60
00
60
60
ENDCHAR
STARTCHAR BRAILLE PATTERN DOTS-2347
ENCODING 10318
SWIDTH 1500 0
DWIDTH 6 0
BBX 6 12 0 -2
BITMAP
00
0C
0C
00
60
60
00
60
60
00
60
60
ENDCHAR
STARTCHAR BRAILLE PATTERN DOTS-12347
ENCODING 10319
SWIDTH 1500 0
DWIDTH 6 0
BBX 6 12 0 -2
BITMAP
00
6C
6C
00
60
60
00
60
60
00
60
60
ENDCHAR
STARTCHAR BRAILLE PATTERN DOTS-57
ENCODING 10320
SWIDTH 1500 0
DWIDTH 6 0
BBX 6 12 0 -2
BITMAP
00
00
00
00
0C
0C
00
00
00
00
60
60
ENDCHAR
STARTCHAR BRAILLE PATTERN DOTS-157
ENCODING 10321
SWIDTH 1500 0
DWIDTH 6 0
BBX 6 12 0 -2
BITMAP
00
60
60
00
0C
0C
00
00
00
00
60
60
ENDCHAR
STARTCHAR BRAILLE PATTERN DOTS-257
ENCODING 10322
SWIDTH 1500 0
DWIDTH 6 0
BBX 6 12 0 -2
BITMAP
00
00
00
00
6C
6C
00
00
00
00
60
60
ENDCHAR
STARTCHAR BRAILLE PATTERN DOTS-1257
ENCODING 10323
SWIDTH 1500 0
DWIDTH 6 0
BBX 6 12 0 -2
BITMAP
00
60
60
00
6C
6C
00
00
00
00
60
60
ENDCHAR
STARTCHAR BRAILLE PATTERN DOTS-357
ENCODING 10324
SWIDTH 1500 0
DWIDTH 6 0
BBX 6 12 0 -2
BITMAP
00
00
00
00
0C
0C
00
60
60
00
60
60
ENDCHAR
STARTCHAR BRAILLE PATTERN DOTS-1357
ENCODING 10325
SWIDTH 1500 0
DWIDTH 6 0
BBX 6 12 0 -2
BITMAP
00
60
60
00
0C
0C
00
60
60
00
60
60
ENDCHAR
STARTCHAR BRAILLE PATTERN DOTS-2357
ENCODING 10326
SWIDTH 1500 0
DWIDTH 6 0
BBX 6 12 0 -2
BITMAP
00
00
00
00
6C
6C
00
60
60
00
60
60
ENDCHAR
STARTCHAR BRAILLE PATTERN DOTS-12357
ENCODING 10327
SWIDTH 1500 0
DWIDTH 6 0
BBX 6 12 0 -2
BITMAP
00
60
60
00
6C
6C
00
60
60
00
60
60
ENDCHAR
STARTCHAR BRAILLE PATTERN DOTS-457
ENCODING 10328
SWIDTH 1500 0
DWIDTH 6 0
BBX 6 12 0 -2
BITMAP
00
0C
0C
00
0C
0C
00
00
00
00
60
60
ENDCHAR
STARTCHAR BRAILLE PATTERN DOTS-1457
ENCODING 10329
SWIDTH 1500 0
DWIDTH 6 0
BBX 6 12 0 -2
BITMAP
00
6C
6C
00
0C
0C
00
00
00
00
60
60
ENDCHAR
STARTCHAR BRAILLE PATTERN DOTS-2457
ENCODING 10330
SWIDTH 1500 0
DWIDTH 6 0
BBX 6 12 0 -2
BITMAP
00
0C
0C
00
6C
6C
00
00
00
00
60
60
ENDCHAR
STARTCHAR BRAILLE PATTERN DOTS-12457
ENCODING 10331
SWIDTH 1500 0
DWIDTH 6 0
BBX 6 12 0 -2
BITMAP
00
6C
6C
00
6C
6C
00
00
00
00
60
60
ENDCHAR
STARTCHAR BRAILLE PATTERN DOTS-3457
ENCODING 10332
SWIDTH 1500 0
DWIDTH 6 0
BBX 6 12 0 -2
BITMAP
00
0C
0C
00
0C
0C
00
60
60
00
60
60
ENDCHAR
STARTCHAR BRAILLE PATTERN DOTS-13457
ENCODING 10333
SWIDTH 1500 0
DWIDTH 6 0
BBX 6 12 0 -2
BITMAP
00
6C
6C
00
0C
0C
00
60
60
00
60
60
ENDCHAR
STARTCHAR BRAILLE PATTERN DOTS-23457
ENCODING 10334
SWIDTH 1500 0
DWIDTH 6 0
BBX 6 12 0 -2
BITMAP
00
0C
0C
00
6C
6C
00
60
60
00
60
60
ENDCHAR
STARTCHAR BRAILLE PATTERN DOTS-123457
ENCODING 10335
SWIDTH 1500 0
DWIDTH 6 0
BBX 6 12 0 -2
BITMAP
00
6C
6C
00
6C
6C
00
60
60
00
60
60
ENDCHAR
STARTCHAR BRAILLE PATTERN DOTS-67
ENCODING 10336
SWIDTH 1500 0
DWIDTH 6 0
BBX 6 12 0 -2
BITMAP
00
00
00
00
00
00
00
0C
0C
00
60
60
ENDCHAR
STARTCHAR BRAILLE PATTERN DOTS-167
ENCODING 10337
SWIDTH 1500 0
DWIDTH 6 0
BBX 6 12 0 -2
BITMAP
00
60
60
00
00
00
00
0C
0C
00
60
60
ENDCHAR
STARTCHAR BRAILLE PATTERN DOTS-267
ENCODING 10338
SWIDTH 1500 0
DWIDTH 6 0
BBX 6 12 0 -2
BITMAP
00
00
00
00
60
60
00
0C
0C
00
60
60
ENDCHAR
STARTCHAR BRAILLE PATTERN DOTS-1267
ENCODING 10339
SWIDTH 1500 0
DWIDTH 6 0
BBX 6 12 0 -2
BITMAP
00
60
60
00
60
60
00
0C
0C
00
60
60
ENDCHAR
STARTCHAR BRAILLE PATTERN DOTS-367
ENCODING 10340
SWIDTH 1500 0
DWIDTH 6 0
BBX 6 12 0 -2
BITMAP
00
00
00
00
00
00
00
6C
6C
00
60
60
ENDCHAR
STARTCHAR BRAILLE PATTERN DOTS-1367
ENCODING 10341
SWIDTH 1500 0
DWIDTH 6 0
BBX 6 12 0 -2
BITMAP
00
60
60
00
00
00
00
6C
6C
00
60
60
ENDCHAR
STARTCHAR BRAILLE PATTERN DOTS-2367
ENCODING 10342
SWIDTH 1500 0
DWIDTH 6 0
BBX 6 12 0 -2
BITMAP
00
00
00
00
60
60
00
6C
6C
00
60
60
ENDCHAR
STARTCHAR BRAILLE PATTERN DOTS-12367
ENCODING 10343
SWIDTH 1500 0
DWIDTH 6 0
BBX 6 12 0 -2
BITMAP
00
60
60
00
60
60
00
6C
6C
00
60
60
ENDCHAR
STARTCHAR BRAILLE PATTERN DOTS-467
ENCODING 10344
SWIDTH 1500 0
DWIDTH 6 0
BBX 6 12 0 -2
BITMAP
00
0C
0C
00
00
00
00
0C
0C
00
60
60
ENDCHAR
STARTCHAR BRAILLE PATTERN DOTS-1467
ENCODING 10345
SWIDTH 1500 0
DWIDTH 6 0
BBX 6 12 0 -2
BITMAP
00
6C
6C
00
00
00
00
0C
0C
00
60
60
ENDCHAR
STARTCHAR BRAILLE PATTERN DOTS-2467
ENCODING 10346
SWIDTH 1500 0
DWIDTH 6 0
BBX 6 12 0 -2
BITMAP
00
0C
0C
00
60
60
00
0C
0C
00
60
60
ENDCHAR
STARTCHAR BRAILLE PATTERN DOTS-12467
ENCODING 10347
SWIDTH 1500 0
DWIDTH 6 0
BBX 6 12 0 -2
BITMAP
00
6C
6C
00
60
60
00
0C
0C
00
60
60
ENDCHAR
STARTCHAR BRAILLE PATTERN DOTS-3467
ENCODING 10348
SWIDTH 1500 0
DWIDTH 6 0
BBX 6 12 0 -2
BITMAP
00
0C
0C
00
00
00
00
6C
6C
00
60
60
ENDCHAR
STARTCHAR BRAILLE PATTERN DOTS-13467
ENCODING 10349
SWIDTH 1500 0
DWIDTH 6 0
BBX 6 12 0 -2
BITMAP
00
6C
6C
00
00
00
00
6C
6C
00
60
60
ENDCHAR
STARTCHAR BRAILLE PATTERN DOTS-23467
ENCODING 10350
SWIDTH 1500 0
DWIDTH 6 0
BBX 6 12 0 -2
BITMAP
00
0C
0C
00
60
60
00
6C
6C
00
60
60
ENDCHAR
STARTCHAR BRAILLE PATTERN DOTS-123467
ENCODING 10351
SWIDTH 1500 0
DWIDTH 6 0
BBX 6 12 0 -2
BITMAP
00
6C
6C
00
60
60
00
6C
6C
00
60
60
ENDCHAR
STARTCHAR BRAILLE PATTERN DOTS-567
ENCODING 10352
SWIDTH 1500 0
DWIDTH 6 0
BBX 6 12 0 -2
BITMAP
00
00
00
00
0C
0C
00
0C
0C
00
60
60
ENDCHAR
STARTCHAR BRAILLE PATTERN DOTS-1567
ENCODING 10353
SWIDTH 1500 0
DWIDTH 6 0
BBX 6 12 0 -2
BITMAP
00
60
60
00
0C
0C
00
0C
0C
00
60
60
ENDCHAR
STARTCHAR BRAILLE PATTERN DOTS-2567
ENCODING 10354
SWIDTH 1500 0
DWIDTH 6 0
BBX 6 12 0 -2
BITMAP
00
00
00
00
6C
6C
00
0C
0C
00
60
60
ENDCHAR
STARTCHAR BRAILLE PATTERN DOTS-12567
ENCODING 10355
SWIDTH 1500 0
DWIDTH 6 0
BBX 6 12 0 -2
BITMAP
00
60
60
00
6C
6C
00
0C
0C
00
60
60
ENDCHAR
STARTCHAR BRAILLE PATTERN DOTS-3567
ENCODING 10356
SWIDTH 1500 0
DWIDTH 6 0
BBX 6 12 0 -2
BITMAP
00
00
00
00
0C
0C
00
6C
6C
00
60
60
ENDCHAR
STARTCHAR BRAILLE PATTERN DOTS-13567
ENCODING 10357
SWIDTH 1500 0
DWIDTH 6 0
BBX 6 12 0 -2
BITMAP
00
60
60
00
0C
0C
00
6C
6C
00
60
60
ENDCHAR
STARTCHAR BRAILLE PATTERN DOTS-23567
ENCODING 10358
SWIDTH 1500 0
DWIDTH 6 0
BBX 6 12 0 -2
BITMAP
00
00
00
00
6C
6C
00
6C
6C
00
60
60
ENDCHAR
STARTCHAR BRAILLE PATTERN DOTS-123567
ENCODING 10359
SWIDTH 1500 0
DWIDTH 6 0
BBX 6 12 0 -2
BITMAP
00
60
60
00
6C
6C
00
6C
6C
00
60
60
ENDCHAR
STARTCHAR BRAILLE PATTERN DOTS-4567
ENCODING 10360
SWIDTH 1500 0
DWIDTH 6 0
BBX 6 12 0 -2
BITMAP
00
0C
0C
00
0C
0C
00
0C
0C
00
60
60
ENDCHAR
STARTCHAR BRAILLE PATTERN DOTS-14567
ENCODING 10361
SWIDTH 1500 0
DWIDTH 6 0
BBX 6 12 0 -2
BITMAP
00
6C
6C
00
0C
0C
00
0C
0C
00
60
60
ENDCHAR
STARTCHAR BRAILLE PATTERN DOTS-24567
ENCODING 10362
SWIDTH 1500 0
DWIDTH 6 0
BBX 6 12 0 -2
BITMAP
00
0C
0C
00
6C
6C
00
0C
0C
00
60
60
ENDCHAR
STARTCHAR BRAILLE PATTERN DOTS-124567
ENCODING 10363
SWIDTH 1500 0
DWIDTH 6 0
BBX 6 12 0 -2
BITMAP
00
6C
6C
00
6C
6C
00
0C
0C
00
60
60
ENDCHAR
STARTCHAR BRAILLE PATTERN DOTS-34567
ENCODING 10364
SWIDTH 1500 0
DWIDTH 6 0
BBX 6 12 0 -2
BITMAP
00
0C
0C
00
0C
0C
00
6C
6C
00
60
60
ENDCHAR
STARTCHAR BRAILLE PATTERN DOTS-134567
ENCODING 10365
SWIDTH 1500 0
DWIDTH 6 0
BBX 6 12 0 -2
BITMAP
00
6C
6C
00
0C
0C
00
6C
6C
00
60
60
ENDCHAR
STARTCHAR BRAILLE PATTERN DOTS-234567
ENCODING 10366
SWIDTH 1500 0
DWIDTH 6 0
BBX 6 12 0 -2
BITMAP
00
0C
0C
00
6C
6C
00
6C
6C
00
60
60
ENDCHAR
STARTCHAR BRAILLE PATTERN DOTS-1234567
ENCODING 10367
SWIDTH 1500 0
DWIDTH 6 0
BBX 6 12 0 -2
BITMAP
00
6C
6C
00
6C
6C
00
6C
6C
00
60
60
ENDCHAR
STARTCHAR BRAILLE PATTERN DOTS-8
ENCODING 10368
SWIDTH 1500 0
DWIDTH 6 0
BBX 6 12 0 -2
BITMAP
00
00
00
00
00
00
00
00
00
00
0C
0C
ENDCHAR
STARTCHAR BRAILLE PATTERN DOTS-18
ENCODING 10369
SWIDTH 1500 0
DWIDTH 6 0
BBX 6 12 0 -2
BITMAP
00
60
60
00
00
00
00
00
00
00
0C
0C
ENDCHAR
STARTCHAR BRAILLE PATTERN DOTS-28
ENCODING 10370
SWIDTH 1500 0
DWIDTH 6 0
BBX 6 12 0 -2
BITMAP
00
00
00
00
60
60
00
00
00
00
0C
0C
ENDCHAR
STARTCHAR BRAILLE PATTERN DOTS-128
ENCODING 10371
SWIDTH 1500 0
DWIDTH 6 0
BBX 6 12 0 -2
BITMAP
00
60
60
00
60
60
00
00
00
00
0C
0C
ENDCHAR
STARTCHAR BRAILLE PATTERN DOTS-38
ENCODING 10372
SWIDTH 1500 0
DWIDTH 6 0
BBX 6 12 0 -2
BITMAP
00
00
00
00
00
00
00
60
60
00
0C
0C
ENDCHAR
STARTCHAR BRAILLE PATTERN DOTS-138
ENCODING 10373
SWIDTH 1500 0
DWIDTH 6 0
BBX 6 12 0 -2
BITMAP
00
60
60
00
00
00
00
60
60
00
0C
0C
ENDCHAR
STARTCHAR BRAILLE PATTERN DOTS-238
ENCODING 10374
SWIDTH 1500 0
DWIDTH 6 0
BBX 6 12 0 -2
BITMAP
00
00
00
00
60
60
00
60
60
00
0C
0C
ENDCHAR
STARTCHAR BRAILLE PATTERN DOTS-1238
ENCODING 10375
SWIDTH 1500 0
DWIDTH 6 0
BBX 6 12 0 -2
BITMAP
00
60
60
00
60
60
00
60
60
00
0C
0C
ENDCHAR
STARTCHAR BRAILLE PATTERN DOTS-48
ENCODING 10376
SWIDTH 1500 0
DWIDTH 6 0
BBX 6 12 0 -2
BITMAP
00
0C
0C
00
00
00
00
00
00
00
0C
0C
ENDCHAR
STARTCHAR BRAILLE PATTERN DOTS-148
ENCODING 10377
SWIDTH 1500 0
DWIDTH 6 0
BBX 6 12 0 -2
BITMAP
00
6C
6C
00
00
00
00
00
00
00
0C
0C
ENDCHAR
STARTCHAR BRAILLE PATTERN DOTS-248
ENCODING 10378
SWIDTH 1500 0
DWIDTH 6 0
BBX 6 12 0 -2
BITMAP
00
0C
0C
00
60
60
00
00
00
00
0C
0C
ENDCHAR
STARTCHAR BRAILLE PATTERN DOTS-1248
ENCODING 10379
SWIDTH 1500 0
DWIDTH 6 0
BBX 6 12 0 -2
BITMAP
00
6C
6C
00
60
60
00
00
00
00
0C
0C
ENDCHAR
STARTCHAR BRAILLE PATTERN DOTS-348
ENCODING 10380
SWIDTH 1500 0
DWIDTH 6 0
BBX 6 12 0 -2
BITMAP
00
0C
0C
00
00
00
00
60
60
00
0C
0C
ENDCHAR
STARTCHAR BRAILLE PATTERN DOTS-1348
ENCODING 10381
SWIDTH 1500 0
DWIDTH 6 0
BBX 6 12 0 -2
BITMAP
00
6C
6C
00
00
00
00
60
60
00
0C
0C
ENDCHAR
STARTCHAR BRAILLE PATTERN DOTS-2348
ENCODING 10382
SWIDTH 1500 0
DWIDTH 6 0
BBX 6 12 0 -2
BITMAP
00
0C
0C
00
60
60
00
60
60
00
0C
0C
ENDCHAR
STARTCHAR BRAILLE PATTERN DOTS-12348
ENCODING 10383
SWIDTH 1500 0
DWIDTH 6 0
BBX 6 12 0 -2
BITMAP
00
6C
6C
00
60
60
00
60
60
00
0C
0C
ENDCHAR
STARTCHAR BRAILLE PATTERN DOTS-58
ENCODING 10384
SWIDTH 1500 0
DWIDTH 6 0
BBX 6 12 0 -2
BITMAP
00
00
00
00
0C
0C
00
00
00
00
0C
0C
ENDCHAR
STARTCHAR BRAILLE PATTERN DOTS-158
ENCODING 10385
SWIDTH 1500 0
DWIDTH 6 0
BBX 6 12 0 -2
BITMAP
00
60
60
00
0C
0C
00
00
00
00
0C
0C
ENDCHAR
STARTCHAR BRAILLE PATTERN DOTS-258
ENCODING 10386
SWIDTH 1500 0
DWIDTH 6 0
BBX 6 12 0 -2
BITMAP
00
00
00
00
6C
6C
00
00
00
00
0C
0C
ENDCHAR
STARTCHAR BRAILLE PATTERN DOTS-1258
ENCODING 10387
SWIDTH 1500 0
DWIDTH 6 0
BBX 6 12 0 -2
BITMAP
00
60
60
00
6C
6C
00
00
00
00
0C
0C
ENDCHAR
STARTCHAR BRAILLE PATTERN DOTS-358
ENCODING 10388
SWIDTH 1500 0
DWIDTH 6 0
BBX 6 12 0 -2
BITMAP
00
00
00
00
0C
0C
00
60
60
00
0C
0C
ENDCHAR
STARTCHAR BRAILLE PATTERN DOTS-1358
ENCODING 10389
SWIDTH 1500 0
DWIDTH 6 0
BBX 6 12 0 -2
BITMAP
00
60
60
00
0C
0C
00
60
60
00
0C
0C
ENDCHAR
STARTCHAR BRAILLE PATTERN DOTS-2358
ENCODING 10390
SWIDTH 1500 0
DWIDTH 6 0
BBX 6 12 0 -2
BITMAP
00
00
00
00
6C
6C
00
60
60
00
0C
0C
ENDCHAR
STARTCHAR BRAILLE PATTERN DOTS-12358
ENCODING 10391
SWIDTH 1500 0
DWIDTH 6 0
BBX 6 12 0 -2
BITMAP
00
60
60
00
6C
6C
00
60
60
00
0C
0C
ENDCHAR
STARTCHAR BRAILLE PATTERN DOTS-458
ENCODING 10392
SWIDTH 1500 0
DWIDTH 6 0
BBX 6 12 0 -2
BITMAP
00
0C
0C
00
0C
0C
00
00
00
00
0C
0C
ENDCHAR
STARTCHAR BRAILLE PATTERN DOTS-1458
ENCODING 10393
SWIDTH 1500 0
DWIDTH 6 0
BBX 6 12 0 -2
BITMAP
00
6C
6C
00
0C
0C
00
00
00
00
0C
0C
ENDCHAR
STARTCHAR BRAILLE PATTERN DOTS-2458
ENCODING 10394
SWIDTH 1500 0
DWIDTH 6 0
BBX 6 12 0 -2
BITMAP
00
0C
0C
00
6C
6C
00
00
00
00
0C
0C
ENDCHAR
STARTCHAR BRAILLE PATTERN DOTS-12458
ENCODING 10395
SWIDTH 1500 0
DWIDTH 6 0
BBX 6 12 0 -2
BITMAP
00
6C
6C
00
6C
6C
00
00
00
00
0C
0C
ENDCHAR
STARTCHAR BRAILLE PATTERN DOTS-3458
ENCODING 10396
SWIDTH 1500 0
DWIDTH 6 0
BBX 6 12 0 -2
BITMAP
00
0C
0C
00
0C
0C
00
60
60
00
0C
0C
ENDCHAR
STARTCHAR BRAILLE PATTERN DOTS-13458
ENCODING 10397
SWIDTH 1500 0
DWIDTH 6 0
BBX 6 12 0 -2
BITMAP
00
6C
6C
00
0C
0C
00
60
60
00
0C
0C
ENDCHAR
STARTCHAR BRAILLE PATTERN DOTS-23458
ENCODING 10398
SWIDTH 1500 0
DWIDTH 6 0
BBX 6 12 0 -2
BITMAP
00
0C
0C
00
6C
6C
00
60
60
00
0C
0C
ENDCHAR
STARTCHAR BRAILLE PATTERN DOTS-123458
ENCODING 10399
SWIDTH 1500 0
DWIDTH 6 0
BBX 6 12 0 -2
BITMAP
00
6C
6C
00
6C
6C
00
60
60
00
0C
0C
ENDCHAR
STARTCHAR BRAILLE PATTERN DOTS-68
ENCODING 10400
SWIDTH 1500 0
DWIDTH 6 0
BBX 6 12 0 -2
BITMAP
00
00
00
00
00
00
00
0C
0C
00
0C
0C
ENDCHAR
STARTCHAR BRAILLE PATTERN DOTS-168
ENCODING 10401
SWIDTH 1500 0
DWIDTH 6 0
BBX 6 12 0 -2
BITMAP
00
60
60
00
00
00
00
0C
0C
00
0C
0C
ENDCHAR
STARTCHAR BRAILLE PATTERN DOTS-268
ENCODING 10402
SWIDTH 1500 0
DWIDTH 6 0
BBX 6 12 0 -2
BITMAP
00
00
00
00
60
60
00
0C
0C
00
0C
0C
ENDCHAR
STARTCHAR BRAILLE PATTERN DOTS-1268
ENCODING 10403
SWIDTH 1500 0
DWIDTH 6 0
BBX 6 12 0 -2
BITMAP
00
60
60
00
60
60
00
0C
0C
00
0C
0C
ENDCHAR
STARTCHAR BRAILLE PATTERN DOTS-368
ENCODING 10404
SWIDTH 1500 0
DWIDTH 6 0
BBX 6 12 0 -2
BITMAP
00
00
00
00
00
00
00
6C
6C
00
0C
0C
ENDCHAR
STARTCHAR BRAILLE PATTERN DOTS-1368
ENCODING 10405
SWIDTH 1500 0
DWIDTH 6 0
BBX 6 12 0 -2
BITMAP
00
60
60
00
00
00
00
6C
6C
00
0C
0C
ENDCHAR
STARTCHAR BRAILLE PATTERN DOTS-2368
ENCODING 10406
SWIDTH 1500 0
DWIDTH 6 0
BBX 6 12 0 -2
BITMAP
00
00
00
00
60
60
00
6C
6C
00
0C
0C
ENDCHAR
STARTCHAR BRAILLE PATTERN DOTS-12368
ENCODING 10407
SWIDTH 1500 0
DWIDTH 6 0
BBX 6 12 0 -2
BITMAP
00
60
60
00
60
60
00
6C
6C
00
0C
0C
ENDCHAR
STARTCHAR BRAILLE PATTERN DOTS-468
ENCODING 10408
SWIDTH 1500 0
DWIDTH 6 0
BBX 6 12 0 -2
BITMAP
00
0C
0C
00
00
00
00
0C
0C
00
0C
0C
ENDCHAR
STARTCHAR BRAILLE PATTERN DOTS-1468
ENCODING 10409
SWIDTH 1500 0
DWIDTH 6 0
BBX 6 12 0 -2
BITMAP
00
6C
6C
00
00
00
00
0C
0C
00
0C
0C
ENDCHAR
STARTCHAR BRAILLE PATTERN DOTS-2468
ENCODING 10410
SWIDTH 1500 0
DWIDTH 6 0
BBX 6 12 0 -2
BITMAP
00
0C
0C
00
60
60
00
0C
0C
00
0C
0C
ENDCHAR
STARTCHAR BRAILLE PATTERN DOTS-12468
ENCODING 10411
SWIDTH 1500 0
DWIDTH 6 0
BBX 6 12 0 -2
BITMAP
00
6C
6C
00
60
60
00
0C
0C
00
0C
0C
ENDCHAR
STARTCHAR BRAILLE PATTERN DOTS-3468
ENCODING 10412
SWIDTH 1500 0
DWIDTH 6 0
BBX 6 12 0 -2
BITMAP
00
0C
0C
00
00
00
00
6C
6C
00
0C
0C
ENDCHAR
STARTCHAR BRAILLE PATTERN DOTS-13468
ENCODING 10413
SWIDTH 1500 0
DWIDTH 6 0
BBX 6 12 0 -2
BITMAP
00
6C
6C
00
00
00
00
6C
6C
00
0C
0C
ENDCHAR
STARTCHAR BRAILLE PATTERN DOTS-23468
ENCODING 10414
SWIDTH 1500 0
DWIDTH 6 0
BBX 6 12 0 -2
BITMAP
00
0C
0C
00
60
60
00
6C
6C
00
0C
0C
ENDCHAR
STARTCHAR BRAILLE PATTERN DOTS-123468
ENCODING 10415
SWIDTH 1500 0
DWIDTH 6 0
BBX 6 12 0 -2
BITMAP
00
6C
6C
00
60
60
00
6C
6C
00
0C
0C
ENDCHAR
ENDFONT
